<svg width="41" height="41" fill="none" xmlns="http://www.w3.org/2000/svg"><path d="M17.467 39.549H1.451V6.868l4.39-4.39V5.84H4.535a.726.726 0 000 1.452h2.032a.726.726 0 00.726-.726V1.451h20.572v8.962a.726.726 0 001.451 0V.726A.726.726 0 0028.591 0H6.567a.726.726 0 00-.513.212L.212 6.054A.726.726 0 000 6.567v33.707A.726.726 0 00.726 41h16.741a.726.726 0 000-1.451z" fill="#DDE3F1"/><path d="M19.397 12.614a.726.726 0 000-1.451h-9.48a.726.726 0 000 1.451h9.48zm3.243 3.676H6.676a.726.726 0 000 1.452H22.64a.726.726 0 000-1.451zm0 3.484H6.676a.726.726 0 100 1.451H22.64a.726.726 0 100-1.451zm0 3.483H6.676a.726.726 0 000 1.451H22.64a.726.726 0 100-1.45zm.726 4.209a.725.725 0 00-.726-.726H6.676a.726.726 0 000 1.452H22.64a.726.726 0 00.726-.726zm-10.4 4.924a15.073 15.073 0 00-3.152 1.979 2.68 2.68 0 00-.406-1.235 1.152 1.152 0 00-.93-.505c-.98-.014-2.055 1.216-2.472 1.75a.726.726 0 001.142.892 5.414 5.414 0 011.15-1.118c.046.187.078.376.095.567.058.493.13 1.103.713 1.336a.98.98 0 00.359.069 2.046 2.046 0 001.212-.59 13.842 13.842 0 012.875-1.82.726.726 0 10-.586-1.328v.003z" fill="#DDE3F1"/><path d="M40.275 32.066h-7.916v-2.14h.658a.726.726 0 00.725-.725v-1.008a20.939 20.939 0 011.156-7.273 5.385 5.385 0 10-10.19-.213 23.014 23.014 0 011.225 6.992v1.5a.725.725 0 00.725.725h.658v2.14h-7.918a.726.726 0 00-.726.726v4.714a.726.726 0 00.726.726h1.406v2.043a.725.725 0 00.726.725h16.613a.726.726 0 000-1.451H22.258V38.23h18.017a.726.726 0 00.725-.725v-4.714a.726.726 0 00-.725-.726zM26.089 20.267a3.931 3.931 0 117.444.154 22.35 22.35 0 00-1.242 7.77v.282h-4.908v-.772a24.437 24.437 0 00-1.294-7.434zm2.678 9.66h2.14v2.14h-2.14v-2.14zM39.55 36.78H20.125v-3.262H39.55v3.262z" fill="#504EF3"/></svg>