<svg width="38" height="42" fill="none" xmlns="http://www.w3.org/2000/svg"><path d="M23.24 39.78H1.458V6.908l4.415-4.416v3.383H4.456a.73.73 0 100 1.46h2.15a.73.73 0 00.73-.73V1.46h20.693v13.904a.73.73 0 101.46 0V.73a.73.73 0 00-.73-.73H6.605a.73.73 0 00-.516.214L.214 6.089A.73.73 0 000 6.605V40.51a.73.73 0 00.73.73h22.51a.73.73 0 100-1.46z" fill="#DDE3F1"/><path opacity=".3" d="M19.513 12.688a.73.73 0 000-1.46H9.976a.73.73 0 100 1.46h9.537zm3.99 4.428a.73.73 0 00-.73-.73H6.715a.73.73 0 100 1.46h16.058a.73.73 0 00.73-.73zm-2.81 3.504a.73.73 0 00-.73-.73H6.715a.73.73 0 100 1.46h13.248a.73.73 0 00.73-.73zM6.715 24.853h11.059a.73.73 0 000-1.46H6.715a.73.73 0 000 1.46zm0 3.504h11.789a.73.73 0 100-1.46H6.715a.73.73 0 000 1.46z" fill="#DDE3F1"/><path d="M16.014 35.477a5.45 5.45 0 011.158-1.125c.045.188.077.378.095.57.058.495.13 1.11.717 1.343.114.046.237.07.36.07.461-.055.89-.263 1.218-.592.296-.245.615-.487.952-.717a.73.73 0 10-.826-1.204c-.35.238-.682.489-.992.744a2.699 2.699 0 00-.41-1.242 1.161 1.161 0 00-.934-.507h-.027c-.98 0-2.044 1.226-2.459 1.76a.73.73 0 001.152.898l-.004.002zm21.124-12.628l-8.035-4.3a.73.73 0 00-.689 0l-8.034 4.3a.73.73 0 00-.386.638c-.116 13.084 8.079 17.489 8.428 17.67a.73.73 0 00.673 0c.35-.181 8.544-4.586 8.428-17.67a.73.73 0 00-.385-.638zm-8.38 16.817c-1.488-.934-7.243-5.222-7.304-15.734l7.305-3.912 7.305 3.912c-.062 10.512-5.82 14.8-7.305 15.732v.002z" fill="#504EF3"/></svg>