<svg width="41" height="41" fill="none" xmlns="http://www.w3.org/2000/svg"><path d="M19.398 12.614a.726.726 0 000-1.451H9.916a.726.726 0 100 1.451h9.482zm3.242 3.676H6.676a.726.726 0 000 1.452H22.64a.726.726 0 000-1.451zm0 3.484H6.676a.726.726 0 000 1.451H22.64a.726.726 0 000-1.451zm0 3.483H6.676a.726.726 0 100 1.452H22.64a.726.726 0 000-1.452zm.726 4.209a.725.725 0 00-.726-.726H6.676a.726.726 0 000 1.452H22.64a.726.726 0 00.726-.726z" fill="#DDE3F1"/><path d="M21.736 32.39a15.098 15.098 0 00-3.152 1.979 2.68 2.68 0 00-.406-1.235 1.152 1.152 0 00-.93-.505c-.964-.014-2.055 1.215-2.472 1.75a.727.727 0 001.145.892 5.423 5.423 0 011.151-1.118c.046.187.078.376.095.567.058.493.129 1.103.713 1.336a.96.96 0 00.358.069 2.052 2.052 0 001.21-.59 13.843 13.843 0 012.873-1.82.726.726 0 00-.585-1.328v.003z" fill="#504EF3"/><path d="M40.133 7.572a2.951 2.951 0 00-5.445-.29l-5.371 11.23V.726A.726.726 0 0028.59 0H6.567a.726.726 0 00-.513.212L.212 6.054A.726.726 0 000 6.567v33.707A.726.726 0 00.726 41H28.59a.726.726 0 00.726-.726v-6.047a.726.726 0 10-1.451 0v5.322H1.45V6.868l4.39-4.39V5.84H4.702a.726.726 0 000 1.452h1.865a.726.726 0 00.726-.726V1.451h20.573v20.094l-2.475 5.174a.726.726 0 00-.071.326l.084 4.982a.726.726 0 001.172.56l3.93-3.06a.725.725 0 00.21-.259l9.297-19.44a2.93 2.93 0 00.12-2.256zm-1.43 1.63L29.48 28.486l-2.65 2.064-.058-3.357 9.225-19.285a1.499 1.499 0 112.706 1.294z" fill="#DDE3F1"/><path fill-rule="evenodd" clip-rule="evenodd" d="M40.113 7.568a2.95 2.95 0 00-5.445-.29L25.37 26.716a.728.728 0 00-.071.325l.084 4.982a.726.726 0 001.172.56l3.931-3.06a.725.725 0 00.208-.259l9.298-19.44a2.934 2.934 0 00.12-2.256zM29.459 28.483l9.225-19.286a1.498 1.498 0 00-2.356-1.762 1.5 1.5 0 00-.351.469l-9.225 19.285.059 3.357 2.648-2.063z" fill="#504EF3"/></svg>