<svg width="125" height="38" fill="none" xmlns="http://www.w3.org/2000/svg"><path d="M124.121 32.651a3.554 3.554 0 01-1.04 2.509 3.548 3.548 0 01-2.51 1.037H4.379a3.552 3.552 0 01-3.555-3.546V4.374A3.555 3.555 0 014.38.824h116.19a3.554 3.554 0 013.28 2.192c.179.43.27.892.27 1.358l.001 28.277z" fill="#fff"/><path d="M120.571 37.022H4.379A4.381 4.381 0 010 32.652V4.374A4.381 4.381 0 014.38 0h116.19a4.387 4.387 0 014.379 4.375v28.276c.002 2.411-1.966 4.371-4.378 4.371z" fill="#A6A6A6"/><path d="M124.121 32.651a3.554 3.554 0 01-1.04 2.509 3.548 3.548 0 01-2.51 1.037H4.379a3.552 3.552 0 01-3.555-3.546V4.374A3.555 3.555 0 014.38.824h116.19a3.554 3.554 0 013.28 2.192c.179.43.27.892.27 1.358l.001 28.277z" fill="#000"/><path d="M27.9 18.316c-.026-2.984 2.445-4.436 2.558-4.503-1.4-2.04-3.568-2.319-4.33-2.34-1.822-.192-3.589 1.089-4.517 1.089-.946 0-2.375-1.071-3.915-1.04-1.982.03-3.836 1.178-4.853 2.96-2.098 3.631-.533 8.968 1.477 11.904 1.006 1.439 2.181 3.043 3.72 2.987 1.504-.061 2.066-.958 3.882-.958 1.8 0 2.327.958 3.896.922 1.615-.025 2.632-1.445 3.602-2.895 1.163-1.647 1.63-3.271 1.648-3.355-.037-.012-3.136-1.196-3.167-4.771zM24.939 9.54c.809-1.012 1.363-2.389 1.209-3.786-1.171.052-2.637.81-3.48 1.8-.747.872-1.413 2.302-1.241 3.646 1.316.098 2.667-.664 3.512-1.66z" fill="#fff"/><path d="M120.57 0H58.334l24.377 37.022h37.859a4.385 4.385 0 004.379-4.373V4.375A4.382 4.382 0 00120.57 0z" fill="url(#paint0_linear_1_136)"/><path d="M49.697 29.167h-2.103l-1.152-3.62h-4.004l-1.098 3.62h-2.047l3.968-12.321h2.45l3.986 12.32zm-3.602-5.138l-1.042-3.217c-.11-.329-.318-1.103-.621-2.32h-.037a97.515 97.515 0 01-.586 2.32l-1.024 3.217h3.31zm13.787.586c0 1.511-.41 2.706-1.232 3.582-.735.78-1.649 1.17-2.739 1.17-1.177 0-2.023-.419-2.537-1.26v4.662h-1.975v-9.566c0-.95-.025-1.922-.073-2.92h1.736l.11 1.408h.038c.658-1.061 1.657-1.592 2.998-1.592 1.049 0 1.924.414 2.624 1.243.699.83 1.05 1.92 1.05 3.273zm-2.011.073c0-.865-.195-1.578-.586-2.14-.427-.584-1-.877-1.718-.877-.487 0-.93.163-1.326.485a2.245 2.245 0 00-.777 1.27 2.583 2.583 0 00-.091.602v1.482c0 .645.198 1.19.594 1.636.397.445.912.668 1.545.668.743 0 1.322-.288 1.736-.86.415-.572.623-1.328.623-2.266zm12.232-.073c0 1.511-.41 2.706-1.232 3.582-.736.78-1.65 1.17-2.74 1.17-1.177 0-2.023-.419-2.537-1.26v4.662h-1.975v-9.566c0-.95-.025-1.922-.073-2.92h1.736l.11 1.408h.038c.657-1.061 1.656-1.592 2.998-1.592 1.048 0 1.923.414 2.625 1.243.698.83 1.05 1.92 1.05 3.273zm-2.012.073c0-.865-.196-1.578-.587-2.14-.427-.584-.998-.877-1.717-.877-.487 0-.93.163-1.327.485a2.244 2.244 0 00-.776 1.27 2.65 2.65 0 00-.092.602v1.482c0 .645.199 1.19.593 1.636.397.444.912.668 1.547.668.744 0 1.323-.288 1.736-.86.415-.572.623-1.328.623-2.266zm13.44 1.023c0 1.049-.367 1.901-1.096 2.56-.802.718-1.922 1.078-3.357 1.078-1.326 0-2.39-.256-3.191-.768l.456-1.645a5.494 5.494 0 002.852.769c.745 0 1.324-.169 1.737-.503.414-.335.623-.783.623-1.342 0-.501-.173-.92-.513-1.262-.342-.34-.907-.659-1.7-.95-2.158-.805-3.238-1.981-3.238-3.53 0-1.01.382-1.838 1.143-2.485.761-.646 1.77-.97 3.026-.97 1.122 0 2.056.196 2.798.586l-.495 1.609c-.699-.378-1.487-.567-2.368-.567-.697 0-1.243.171-1.634.512a1.465 1.465 0 00-.495 1.117c0 .486.19.89.567 1.206.328.292.926.61 1.791.95 1.062.428 1.841.926 2.34 1.498.503.572.753 1.286.753 2.137zm6.544-3.947h-2.176v4.313c0 1.097.383 1.644 1.152 1.644.352 0 .645-.03.877-.091l.054 1.499c-.389.145-.9.218-1.535.218-.78 0-1.39-.238-1.83-.714-.437-.476-.658-1.273-.658-2.395V21.76h-1.296v-1.48h1.296v-1.627l1.94-.585v2.212h2.176v1.485zm9.8 2.887c0 1.366-.391 2.487-1.171 3.364-.816.903-1.901 1.353-3.254 1.353-1.306 0-2.344-.433-3.118-1.297-.774-.865-1.162-1.956-1.162-3.271 0-1.377.4-2.505 1.198-3.381.799-.878 1.875-1.317 3.228-1.317 1.304 0 2.351.433 3.144 1.298.758.839 1.134 1.922 1.134 3.252zm-2.047.046c0-.814-.176-1.512-.529-2.096-.414-.706-1.007-1.058-1.774-1.058-.791 0-1.398.352-1.81 1.058-.355.584-.53 1.294-.53 2.133 0 .815.175 1.514.53 2.097.426.705 1.022 1.058 1.793 1.058.755 0 1.347-.36 1.774-1.076.363-.598.546-1.3.546-2.116zm8.467-2.678a3.445 3.445 0 00-.623-.055c-.694 0-1.231.26-1.609.787-.328.463-.493 1.048-.493 1.754v4.662h-1.974V23.08a62.401 62.401 0 00-.058-2.796h1.72l.072 1.7h.055c.209-.585.537-1.056.987-1.409a2.389 2.389 0 011.427-.476c.183 0 .348.013.494.036l.002 1.883zm8.83 2.285c.005.3-.02.6-.073.896h-5.923c.023.877.31 1.55.86 2.012.499.413 1.144.62 1.937.62.877 0 1.677-.138 2.397-.419l.309 1.37c-.841.366-1.834.548-2.979.548-1.378 0-2.46-.405-3.247-1.214-.785-.81-1.179-1.9-1.179-3.263 0-1.338.366-2.454 1.099-3.344.766-.95 1.803-1.425 3.106-1.425 1.281 0 2.251.475 2.909 1.425.522.753.784 1.686.784 2.794zm-1.883-.512c.014-.586-.116-1.09-.383-1.517-.342-.55-.868-.824-1.573-.824-.645 0-1.171.267-1.571.805-.329.426-.525.94-.585 1.535l4.112.001zM41.868 12.49a12.6 12.6 0 01-1.42-.072V6.462a10.752 10.752 0 011.672-.126c2.264 0 3.307 1.114 3.307 2.93 0 2.093-1.232 3.225-3.56 3.225zm.331-5.39c-.305 0-.565.018-.781.063v4.528c.117.018.34.027.656.027 1.483 0 2.328-.845 2.328-2.426 0-1.41-.764-2.192-2.203-2.192zm6.477 5.436c-1.276 0-2.103-.953-2.103-2.246 0-1.348.845-2.309 2.175-2.309 1.258 0 2.104.907 2.104 2.238 0 1.364-.872 2.317-2.176 2.317zm.037-3.846c-.7 0-1.15.656-1.15 1.572 0 .9.459 1.555 1.141 1.555.682 0 1.14-.701 1.14-1.573 0-.89-.448-1.554-1.13-1.554zm9.416-.62l-1.366 4.367h-.89l-.566-1.896c-.14-.464-.258-.934-.351-1.41h-.019a9.452 9.452 0 01-.35 1.41l-.602 1.896h-.899l-1.285-4.366h.997l.495 2.075c.116.495.215.961.296 1.402h.019c.07-.367.188-.827.359-1.392l.62-2.084h.791l.594 2.04c.143.494.26.979.35 1.437h.027c.063-.449.162-.926.296-1.438l.53-2.04h.954zm5.028 4.367h-.97V9.93c0-.772-.297-1.16-.881-1.16-.575 0-.97.495-.97 1.07v2.597h-.971V9.319c0-.386-.01-.8-.036-1.25h.853l.046.675h.027c.26-.467.79-.763 1.384-.763.917 0 1.519.7 1.519 1.841l-.001 2.615zm2.676 0h-.971v-6.37h.971v6.37zm3.539.099c-1.275 0-2.103-.953-2.103-2.246 0-1.348.844-2.309 2.174-2.309 1.259 0 2.103.907 2.103 2.238.001 1.364-.871 2.317-2.174 2.317zm.036-3.846c-.701 0-1.15.656-1.15 1.572 0 .9.459 1.555 1.14 1.555.683 0 1.14-.701 1.14-1.573.002-.89-.447-1.554-1.13-1.554zm5.965 3.747l-.07-.503h-.027c-.296.405-.728.602-1.277.602-.782 0-1.338-.548-1.338-1.285 0-1.078.934-1.635 2.552-1.635v-.08c0-.575-.304-.863-.906-.863-.43 0-.809.108-1.141.324l-.197-.638c.403-.252.907-.378 1.499-.378 1.14 0 1.717.602 1.717 1.806v1.608c0 .441.02.783.063 1.043l-.875-.001zm-.134-2.175c-1.078 0-1.618.261-1.618.88 0 .459.278.683.665.683.494 0 .953-.377.953-.889v-.674zm5.658 2.175l-.045-.7h-.027c-.279.529-.747.799-1.402.799-1.053 0-1.832-.926-1.832-2.228 0-1.366.808-2.328 1.912-2.328.584 0 .998.197 1.231.594h.02V6.067h.971v5.193c0 .422.01.818.037 1.177h-.865zm-.143-2.57c0-.61-.405-1.131-1.022-1.131-.72 0-1.16.637-1.16 1.535 0 .88.457 1.484 1.14 1.484.61 0 1.042-.53 1.042-1.16v-.727zm7.13 2.669c-1.275 0-2.102-.953-2.102-2.246 0-1.348.845-2.309 2.175-2.309 1.258 0 2.103.907 2.103 2.238 0 1.364-.87 2.317-2.175 2.317zm.037-3.846c-.7 0-1.15.656-1.15 1.572 0 .9.459 1.555 1.14 1.555.684 0 1.141-.701 1.141-1.573.002-.89-.447-1.554-1.131-1.554zm7.358 3.747h-.971V9.93c0-.772-.297-1.16-.881-1.16-.575 0-.97.495-.97 1.07v2.597h-.971V9.319c0-.386-.01-.8-.036-1.25h.854l.045.675h.027c.26-.467.79-.764 1.383-.764.917 0 1.52.7 1.52 1.842v2.615zm6.53-3.638h-1.068v2.12c0 .54.187.809.565.809.171 0 .315-.019.431-.046l.026.737c-.188.073-.44.109-.753.109-.764 0-1.222-.423-1.222-1.528V8.8h-.637v-.73h.637v-.8l.953-.288V8.07h1.068v.729zm5.137 3.638h-.969V9.948c0-.781-.295-1.176-.881-1.176-.503 0-.971.341-.971 1.033v2.632h-.97v-6.37h.97V8.69h.019c.306-.476.749-.71 1.313-.71.925 0 1.489.719 1.489 1.86v2.597zm5.264-1.95h-2.912c.018.827.566 1.294 1.376 1.294.43 0 .827-.073 1.177-.207l.151.674c-.413.18-.899.27-1.465.27-1.366 0-2.175-.863-2.175-2.201 0-1.339.828-2.345 2.066-2.345 1.115 0 1.816.827 1.816 2.075.006.148-.005.295-.034.44zm-.89-.691c0-.674-.34-1.15-.96-1.15-.558 0-.998.485-1.061 1.15h2.021z" fill="#fff"/><defs><linearGradient id="paint0_linear_1_136" x1="91.64" y1="37.121" x2="91.64" y2="-96.4" gradientUnits="userSpaceOnUse"><stop stop-color="#1A1A1A" stop-opacity=".1"/><stop offset=".123" stop-color="#212121" stop-opacity=".151"/><stop offset=".308" stop-color="#353535" stop-opacity=".227"/><stop offset=".532" stop-color="#575757" stop-opacity=".318"/><stop offset=".783" stop-color="#858585" stop-opacity=".421"/><stop offset="1" stop-color="#B3B3B3" stop-opacity=".51"/></linearGradient></defs></svg>