<svg width="126" height="38" fill="none" xmlns="http://www.w3.org/2000/svg"><path d="M121.272 37.023H5.577A4.641 4.641 0 01.95 32.395V4.628A4.641 4.641 0 015.577 0h115.695a4.641 4.641 0 014.628 4.628v27.767a4.641 4.641 0 01-4.628 4.628z" fill="#100F0D"/><path d="M121.272 0H5.577A4.641 4.641 0 00.95 4.628v27.767a4.641 4.641 0 004.628 4.628h115.695a4.641 4.641 0 004.628-4.628V4.628A4.641 4.641 0 00121.272 0zm0 .74a3.892 3.892 0 013.888 3.888v27.767a3.892 3.892 0 01-3.888 3.888H5.577a3.892 3.892 0 01-3.887-3.888V4.628A3.892 3.892 0 015.577.74h115.695z" fill="#A2A2A1"/><path d="M99.925 27.767h1.728V16.195h-1.728v11.572zm15.557-7.403l-1.98 5.017h-.059l-2.055-5.017h-1.86l3.082 7.011-1.758 3.9h1.801l4.749-10.91-1.92-.001zm-9.795 6.088c-.565 0-1.355-.283-1.355-.982 0-.893.983-1.236 1.831-1.236.759 0 1.117.164 1.578.387a2.094 2.094 0 01-2.054 1.832zm.209-6.341c-1.251 0-2.546.55-3.081 1.771l1.532.64c.328-.64.938-.848 1.578-.848.894 0 1.802.536 1.816 1.489v.119c-.312-.179-.983-.447-1.801-.447-1.653 0-3.335.908-3.335 2.605 0 1.548 1.355 2.546 2.873 2.546 1.161 0 1.802-.521 2.203-1.132h.06v.894h1.668V23.31c0-2.054-1.534-3.2-3.513-3.2zm-10.674 1.662h-2.457v-3.967h2.457c1.291 0 2.024 1.07 2.024 1.983 0 .897-.733 1.983-2.024 1.983zm-.045-5.578H91.04v11.572h1.726v-4.384h2.412c1.914 0 3.796-1.385 3.796-3.593s-1.882-3.595-3.796-3.595zm-22.566 10.26c-1.193 0-2.192-1-2.192-2.371 0-1.388.999-2.401 2.192-2.401 1.178 0 2.102 1.014 2.102 2.4 0 1.372-.924 2.371-2.102 2.371zm1.983-5.443h-.06c-.387-.463-1.133-.88-2.072-.88-1.969 0-3.773 1.73-3.773 3.952 0 2.206 1.804 3.921 3.773 3.921.939 0 1.685-.418 2.072-.894h.06v.566c0 1.506-.805 2.311-2.102 2.311-1.059 0-1.715-.76-1.983-1.401l-1.506.626c.432 1.043 1.58 2.326 3.489 2.326 2.028 0 3.743-1.193 3.743-4.1V20.37h-1.64v.642zm2.834 6.755h1.729V16.195h-1.729v11.572zm4.28-3.818c-.045-1.52 1.178-2.296 2.057-2.296.686 0 1.267.343 1.462.835l-3.52 1.461zm5.367-1.312c-.328-.88-1.327-2.505-3.37-2.505-2.028 0-3.713 1.595-3.713 3.937 0 2.207 1.67 3.936 3.907 3.936 1.804 0 2.848-1.103 3.28-1.744l-1.341-.895c-.448.656-1.059 1.088-1.94 1.088-.879 0-1.505-.402-1.907-1.193l5.263-2.177-.179-.447zM45.139 21.34v1.67h3.996c-.119.94-.432 1.625-.91 2.102-.581.582-1.49 1.223-3.086 1.223-2.46 0-4.384-1.983-4.384-4.443 0-2.46 1.924-4.444 4.384-4.444 1.327 0 2.296.522 3.012 1.193l1.178-1.178c-.999-.954-2.326-1.685-4.19-1.685-3.37 0-6.204 2.744-6.204 6.114 0 3.37 2.834 6.113 6.204 6.113 1.82 0 3.191-.596 4.265-1.715 1.103-1.103 1.446-2.654 1.446-3.907 0-.387-.03-.745-.09-1.043h-5.62zm10.255 5.114c-1.193 0-2.222-.984-2.222-2.385 0-1.417 1.029-2.386 2.222-2.386s2.221.969 2.221 2.386c0 1.401-1.028 2.385-2.221 2.385zm0-6.322c-2.178 0-3.952 1.655-3.952 3.937 0 2.266 1.774 3.936 3.952 3.936 2.177 0 3.951-1.67 3.951-3.936 0-2.282-1.774-3.937-3.951-3.937zm8.62 6.322c-1.193 0-2.222-.984-2.222-2.385 0-1.417 1.03-2.386 2.222-2.386 1.193 0 2.222.969 2.222 2.386 0 1.401-1.03 2.385-2.222 2.385zm0-6.322c-2.177 0-3.951 1.655-3.951 3.937 0 2.266 1.774 3.936 3.95 3.936 2.178 0 3.953-1.67 3.953-3.936 0-2.282-1.775-3.937-3.952-3.937z" fill="#fff"/><path d="M20.122 17.978l-9.853 10.459.001.006a2.66 2.66 0 003.921 1.605l.031-.018 11.092-6.4-5.192-5.652z" fill="#EB3131"/><path d="M30.092 16.198l-.01-.007-4.788-2.776-5.396 4.8 5.414 5.414 4.764-2.748a2.663 2.663 0 00.016-4.683z" fill="#F6B60B"/><path d="M10.267 8.586a2.61 2.61 0 00-.09.685v18.482c0 .237.03.467.09.684l10.194-10.191-10.194-9.66z" fill="#5778C5"/><path d="M20.195 18.512l5.1-5.099-11.08-6.424a2.668 2.668 0 00-3.947 1.595v.003l9.927 9.925z" fill="#3BAD49"/><path d="M44.815 9.053h-2.7v.668h2.023c-.055.546-.272.974-.638 1.285-.366.31-.833.467-1.385.467a2.1 2.1 0 01-1.54-.63c-.413-.429-.622-.958-.622-1.596 0-.638.21-1.167.621-1.595a2.1 2.1 0 011.54-.63c.312 0 .608.054.88.172.272.117.49.28.66.49l.514-.514a2.311 2.311 0 00-.894-.614 3.052 3.052 0 00-1.16-.219c-.808 0-1.493.281-2.053.84-.56.562-.84 1.253-.84 2.07s.28 1.51.84 2.07c.56.56 1.245.84 2.053.84.85 0 1.526-.272 2.047-.824.458-.46.693-1.082.693-1.86a2.75 2.75 0 00-.04-.42zm1.046-2.591v5.57h3.252v-.684h-2.536V9.582h2.288v-.668h-2.288V7.147h2.536v-.685h-3.252zm7.813.685v-.685h-3.828v.685h1.556v4.886h.716V7.147h1.556zm3.466-.685h-.716v5.57h.716v-5.57zm4.725.685v-.685h-3.828v.685h1.556v4.886h.716V7.147h1.556zm7.224.04c-.553-.569-1.23-.85-2.038-.85-.81 0-1.487.28-2.04.84-.552.553-.823 1.246-.823 2.07 0 .824.271 1.517.824 2.07.552.56 1.23.84 2.039.84.801 0 1.485-.28 2.038-.84.552-.553.824-1.245.824-2.07 0-.817-.272-1.508-.824-2.06zm-3.564.465a2.05 2.05 0 011.526-.63c.606 0 1.112.21 1.517.63.412.412.615.95.615 1.595 0 .647-.203 1.183-.615 1.595-.405.42-.911.63-1.517.63a2.052 2.052 0 01-1.526-.63c-.403-.42-.606-.948-.606-1.595 0-.645.203-1.174.606-1.595zm6.089.911l-.03-1.074h.03l2.831 4.544h.748V6.462h-.716v3.26l.03 1.074h-.03L71.77 6.462h-.872v5.57h.716V8.564z" fill="#fff" stroke="#fff" stroke-width=".267" stroke-miterlimit="10"/></svg>