<svg width="95" height="33" fill="none" xmlns="http://www.w3.org/2000/svg"><path d="M28.15.845H3.907A3.673 3.673 0 00.234 4.518V28.76a3.673 3.673 0 003.673 3.673H28.15a3.673 3.673 0 003.673-3.673V4.518A3.673 3.673 0 0028.15.845z" fill="#8B8B8B"/><path d="M5.375 11.496V8.19c0-1.217.987-2.204 2.204-2.204h2.938M5.375 21.782v3.305c0 1.217.987 2.204 2.204 2.204h2.938M26.68 11.496V8.19a2.204 2.204 0 00-2.204-2.204h-2.939m5.143 15.796v3.305a2.204 2.204 0 01-2.204 2.204h-2.939m-5.139-12.118v2.204" stroke="#fff" stroke-width="1.469"/><path fill-rule="evenodd" clip-rule="evenodd" d="M12.712 13.632v-.002c0-.66-.585-1.322-1.469-1.322-.883 0-1.47.662-1.47 1.322v.002H8.306v-.002c0-1.541 1.315-2.791 2.938-2.791 1.623 0 2.939 1.25 2.939 2.791 0 .04-.001.077-.003.116v-.114h-1.467zm9.922 0v-.002c0-.66-.586-1.322-1.469-1.322-.883 0-1.47.662-1.47 1.322v.002h-1.468v-.002c0-1.541 1.315-2.791 2.938-2.791 1.623 0 2.939 1.25 2.939 2.791 0 .028 0 .056-.002.084v-.082h-1.468zm-.004 3.818c0 1.051-.57 2.12-1.721 2.976-1.151.857-2.81 1.431-4.707 1.431-1.896 0-3.556-.574-4.707-1.43-1.151-.857-1.721-1.926-1.721-2.977h-1.47c0 3.245 3.537 5.876 7.898 5.876s7.897-2.63 7.897-5.877c0-.056-.001-.113-.003-.169v.17H22.63zm-6.344-5.877h-.168a11.795 11.795 0 01.168 0z" fill="#fff"/><path d="M45.512 10.622h9.75v2.574h-6.524v2.31h5.89v2.556l-5.89.018v2.327h6.7v2.575h-9.926v-12.36zm18.191 2.698c1.046 0 1.881.329 2.504.987.634.658.952 1.546.952 2.662v6.012h-3.12V17.87c0-.541-.148-.964-.442-1.27-.294-.317-.687-.476-1.18-.476-.518.012-.947.182-1.288.511-.329.33-.523.764-.582 1.305v5.043H57.41v-9.539h3.138v1.552c.341-.553.776-.97 1.305-1.252.541-.282 1.158-.423 1.851-.423zm11.792 9.168c-.352.2-.758.358-1.216.476a6.18 6.18 0 01-1.393.159c-.94 0-1.705-.27-2.292-.811-.576-.541-.864-1.288-.864-2.24v-4.09h-1.322v-2.08h1.322v-2.645h3.12v2.645h2.47v2.08h-2.47v3.597c0 .67.277 1.005.83 1.005.34 0 .746-.106 1.216-.318l.6 2.222zm4.63-7.458a3.459 3.459 0 011.268-1.27c.53-.293 1.128-.44 1.798-.44v2.874a4.701 4.701 0 00-.476-.018c-.74 0-1.34.176-1.798.529-.458.34-.723.811-.793 1.41v4.867h-3.139v-9.539h3.14v1.587zm9.998 8.886c-.365.893-.853 1.552-1.464 1.975-.61.435-1.369.652-2.274.652a4.35 4.35 0 01-1.48-.247 4.463 4.463 0 01-1.34-.74l1.304-2.169c.223.188.434.323.634.406.2.082.412.123.635.123.517 0 .9-.241 1.146-.723l.23-.44-3.95-9.31h3.226l2.275 6.206 2.027-6.206h3.121l-4.09 10.473z" fill="#8B8B8B"/></svg>