<svg width="114" height="20" fill="none" xmlns="http://www.w3.org/2000/svg"><mask id="a" style="mask-type:luminance" maskUnits="userSpaceOnUse" x="0" y="0" width="114" height="20"><path d="M114 0H0v20h114V0z" fill="#fff"/></mask><g mask="url(#a)" fill="#8B8B8B"><path d="M5.906 6.988c-1.588 0-2.871 1.336-2.871 2.981 0 1.685 1.283 3.042 2.871 3.042 1.589 0 2.873-1.315 2.873-3.042 0-1.706-1.284-2.98-2.873-2.98zm.392 8.53c-1.305 0-2.415-.41-3.263-1.233V20H.14V9.97c0-3.043 2.372-5.53 5.765-5.53 3.373 0 5.745 2.487 5.745 5.53 0 3.062-2.393 5.549-5.353 5.549zm9.418-2.805v2.58h-2.872v-2.58h2.872zm0-3.546v2.415h-2.872V9.167c0-.1.002-.2.007-.298h2.882a2.637 2.637 0 00-.017.298zm3.043-4.665V7.05c-1.131-.19-2.03.091-2.549.69h-3.187c.599-2.207 2.64-3.597 5.736-3.238zm8.616 5.528c0-1.829-1.24-3.103-2.763-3.103S21.849 8.2 21.849 10.03c0 1.788 1.24 3.021 2.763 3.021s2.763-1.233 2.763-3.021zm2.894-.02c0 3.165-2.546 5.53-5.657 5.53s-5.635-2.364-5.635-5.53c0-3.166 2.524-5.57 5.635-5.57 3.111 0 5.657 2.404 5.657 5.57zm18.367 5.283h-2.872V9.106c0-.596-.218-2.015-2.11-2.015-1.263 0-2.177.822-2.177 2.015v6.187h-2.872V9.106c0-.596-.196-2.015-2.088-2.015-1.285 0-2.176.822-2.176 2.015v6.187h-2.872V9.167c0-2.692 1.98-4.728 5.047-4.728 1.524 0 2.764.576 3.569 1.501.849-.925 2.11-1.5 3.568-1.5 3.133 0 4.983 1.952 4.983 4.727v6.126zm9.591-5.263c0-1.829-1.24-3.103-2.764-3.103-1.523 0-2.763 1.274-2.763 3.104 0 1.788 1.24 3.021 2.763 3.021s2.764-1.233 2.764-3.021zm2.893-.02c0 3.165-2.545 5.53-5.657 5.53-3.111 0-5.635-2.364-5.635-5.53 0-3.166 2.524-5.57 5.635-5.57 3.112 0 5.657 2.404 5.657 5.57zm6.054 5.263c-3.285.329-5.026-1.542-5.026-4.44V2.015h2.872v2.693h2.024v2.405H65.02v3.74c0 1.48.718 2.035 2.154 1.953v2.467zm9.246-6.435c-.35-1.233-1.436-2.014-2.807-2.014-1.305 0-2.35.781-2.763 2.014h5.57zm-5.614 2.22c.37 1.295 1.458 2.097 2.807 2.097.958 0 1.893-.39 2.372-1.233h3.067c-.652 2.158-2.632 3.617-5.417 3.617-3.155 0-5.744-2.466-5.744-5.529 0-3.063 2.589-5.57 5.744-5.57 3.307 0 6.048 2.425 5.635 6.618h-8.464zm14.898-4.069c-1.588 0-2.872 1.295-2.872 3.042 0 1.686 1.284 2.98 2.872 2.98 1.588 0 2.872-1.335 2.872-2.98 0-1.686-1.284-3.042-2.872-3.042zm5.744 3.021c0 3.063-2.371 5.53-5.744 5.53-3.394 0-5.765-2.467-5.765-5.53 0-3.042 2.414-5.529 5.352-5.529 1.328 0 2.415.39 3.285 1.233V0h2.872v10.01zm11.907-3.967c-2.09 0-3.787 1.747-3.787 3.967 0 2.22 1.697 3.926 3.787 3.926 2.066 0 3.785-1.747 3.785-3.926 0-2.2-1.741-3.967-3.785-3.967zm5.613 9.25h-1.784v-1.645a4.859 4.859 0 01-3.874 1.912c-3.089 0-5.591-2.385-5.591-5.55 0-3.186 2.524-5.57 5.636-5.57 3.176 0 5.613 2.446 5.613 5.57v5.283zm2.149.003h1.855V4.71h-1.855v10.586zm-16.409.264c-.905 0-1.638-.692-1.638-1.547 0-.854.733-1.547 1.638-1.547.905 0 1.638.693 1.638 1.547 0 .855-.733 1.548-1.638 1.548zm18.639-13.603c0 .677-.581 1.227-1.299 1.227-.717 0-1.298-.55-1.298-1.227S111.331.73 112.048.73c.718 0 1.299.55 1.299 1.227z"/></g></svg>