<svg width="112" height="22" fill="none" xmlns="http://www.w3.org/2000/svg"><path fill-rule="evenodd" clip-rule="evenodd" d="M13.042 1.195C12.548.686 11.614.422 10.95.603l-2.555.69c-.665.18-1.342.881-1.518 1.57L6.57 4.1c-.177.688-.86 1.39-1.525 1.571l-2.97.807C.747 6.837-.032 8.251.338 9.64l2.64 9.927c.369 1.383 1.744 2.211 3.072 1.852l16.76-4.547c1.328-.36 2.107-1.772 1.738-3.155l-2.64-9.928c-.37-1.39-1.719-2.225-3.014-1.875l-2.875.781c-.663.18-1.597-.083-2.091-.59l-.886-.91zM7 12.927c-.82-3.004.921-6.083 3.884-6.866 2.964-.783 6.04 1.025 6.861 4.028.823 3.013-.92 6.084-3.884 6.867-2.963.782-6.038-1.016-6.861-4.029zm8.27-2.179c-.444-1.618-2.107-2.594-3.701-2.174-1.595.42-2.536 2.084-2.093 3.702.443 1.616 2.106 2.594 3.7 2.174 1.596-.421 2.536-2.084 2.094-3.702zm17.44.906c0 1.917 1.48 3.42 3.369 3.42 1.88 0 3.351-1.503 3.351-3.42 0-1.918-1.472-3.42-3.351-3.42-1.89 0-3.37 1.502-3.37 3.42zm-1.575-.373c.184-2.608 2.287-4.602 4.943-4.602 2.772 0 4.944 2.185 4.944 4.974 0 2.79-2.172 4.975-4.944 4.975a4.942 4.942 0 01-3.333-1.267v5.674h-1.628v-9.293l.018-.46zm11.3 5.152h1.576v-5.028c0-1.986 1.017-3.172 2.72-3.172 1.416 0 2.229.853 2.229 2.34v5.86h1.592v-5.86c0-2.366-1.472-3.895-3.751-3.895-1.149 0-2.095.383-2.79 1.12V2.405h-1.575v14.028zm17.84-4.78c0-1.917-1.471-3.419-3.35-3.419-1.89 0-3.37 1.502-3.37 3.42s1.48 3.42 3.37 3.42c1.879 0 3.35-1.502 3.35-3.42zm-3.35-4.973c2.772 0 4.944 2.185 4.944 4.975 0 2.79-2.172 4.974-4.944 4.974-2.782 0-4.961-2.185-4.961-4.974 0-2.79 2.179-4.975 4.961-4.975zm11.3 9.8l.297-.045V14.9l-.38.034c-.358.032-.734.061-1.05.061-.888 0-1.183-.165-1.183-1.145V8.446h2.613V6.873h-2.613V2.426l-1.592.836v3.611h-1.93v1.573h1.93v5.403c0 .92.231 1.588.707 2.04.455.433 1.109.643 2 .643h.169c.312.003.66.005 1.032-.053zm9.36-4.825c0-1.918-1.471-3.42-3.351-3.42-1.89 0-3.369 1.502-3.369 3.42s1.48 3.42 3.369 3.42c1.88 0 3.351-1.502 3.351-3.42zM74.234 6.68c2.772 0 4.944 2.185 4.944 4.975 0 2.79-2.172 4.974-4.944 4.974-2.782 0-4.962-2.185-4.962-4.974 0-2.79 2.18-4.975 4.962-4.975zm22.852-2.728c0-.857-.667-1.529-1.52-1.529a1.51 1.51 0 00-1.525 1.53c0 .857.67 1.528 1.525 1.528.853 0 1.52-.671 1.52-1.529zm-10.94 2.354l-1.745 4.6h3.492l-1.747-4.6zm-.982-3.882h1.966l5.373 14.01h-2.52l-1.209-3.2h-5.272l-1.21 3.2h-2.519l5.391-14.01zm9.246 14.009h2.306V6.957H94.41v9.476zm10.373-11.68h-3.029v9.352h3.029c2.456 0 4.239-1.967 4.239-4.677 0-2.71-1.783-4.676-4.239-4.676zm0-2.329c3.751 0 6.581 3.011 6.581 7.005 0 3.993-2.83 7.004-6.581 7.004h-5.389V2.424h5.389z" fill="#8B8B8B"/></svg>