<svg width="127" height="33" fill="none" xmlns="http://www.w3.org/2000/svg"><mask id="a" style="mask-type:luminance" maskUnits="userSpaceOnUse" x="46" y="9" width="11" height="15"><path fill-rule="evenodd" clip-rule="evenodd" d="M46.89 9.969h9.864V23.28H46.89V9.97z" fill="#fff"/></mask><g mask="url(#a)"><path fill-rule="evenodd" clip-rule="evenodd" d="M54.376 18.358c0-1.566-1.088-2.629-2.544-2.629-1.476 0-2.564 1.063-2.564 2.629s1.088 2.628 2.563 2.628c1.457 0 2.545-1.062 2.545-2.628zm2.378-8.39V23.02h-2.378v-1.1c-.664.858-1.641 1.361-2.987 1.361-2.471 0-4.5-2.144-4.5-4.922 0-2.778 2.029-4.922 4.5-4.922 1.346 0 2.323.504 2.987 1.361V9.97h2.378z" fill="#8B8B8B"/></g><path fill-rule="evenodd" clip-rule="evenodd" d="M65.936 18.36c0-1.567-1.088-2.63-2.563-2.63-1.457 0-2.545 1.063-2.545 2.63 0 1.565 1.088 2.628 2.545 2.628 1.475 0 2.563-1.063 2.563-2.629zm2.378-4.662v9.322h-2.379v-1.1c-.663.84-1.66 1.361-3.005 1.361-2.452 0-4.48-2.144-4.48-4.922 0-2.778 2.028-4.922 4.48-4.922 1.346 0 2.342.523 3.005 1.362v-1.1h2.379zm5.352 2.311v3.878c0 1.006.72 1.025 2.083.95v2.182c-3.337.373-4.461-.615-4.461-3.132v-3.878h-1.604v-2.312h1.604v-1.883l2.379-.727v2.61h2.082v2.312h-2.082zm10.489 2.351c0-1.567-1.088-2.63-2.564-2.63-1.456 0-2.543 1.063-2.543 2.63 0 1.565 1.087 2.628 2.543 2.628 1.476 0 2.564-1.063 2.564-2.629zm2.377-4.662v9.322h-2.377v-1.1c-.665.84-1.66 1.361-3.006 1.361-2.453 0-4.481-2.144-4.481-4.922 0-2.778 2.028-4.922 4.481-4.922 1.346 0 2.341.523 3.006 1.362v-1.1h2.377zm1.68 4.659c0-2.777 2.065-4.921 4.868-4.921 1.807 0 3.374.969 4.13 2.405l-2.046 1.211c-.37-.764-1.162-1.249-2.103-1.249-1.42 0-2.47 1.063-2.47 2.554 0 1.473 1.05 2.536 2.47 2.536.96 0 1.752-.466 2.12-1.23l2.066 1.193c-.793 1.454-2.36 2.423-4.167 2.423-2.803 0-4.868-2.144-4.868-4.922zm17.143.003c0-1.567-1.088-2.63-2.563-2.63-1.456 0-2.544 1.063-2.544 2.63 0 1.565 1.088 2.628 2.544 2.628 1.475 0 2.563-1.063 2.563-2.629zm2.38-4.662v9.322h-2.379v-1.1c-.664.84-1.66 1.361-3.006 1.361-2.451 0-4.48-2.144-4.48-4.922 0-2.778 2.029-4.922 4.48-4.922 1.346 0 2.342.523 3.006 1.362v-1.1h2.379z" fill="#8B8B8B"/><mask id="b" style="mask-type:luminance" maskUnits="userSpaceOnUse" x="109" y="13" width="11" height="14"><path fill-rule="evenodd" clip-rule="evenodd" d="M109.893 13.438h9.864v13.31h-9.864v-13.31z" fill="#fff"/></mask><g mask="url(#b)"><path fill-rule="evenodd" clip-rule="evenodd" d="M117.38 18.36c0-1.567-1.088-2.63-2.563-2.63-1.457 0-2.545 1.063-2.545 2.63 0 1.565 1.088 2.628 2.545 2.628 1.475 0 2.563-1.063 2.563-2.629zm2.377 0c0 2.777-2.028 4.921-4.499 4.921-1.346 0-2.323-.503-2.987-1.36v4.828h-2.378v-13.05h2.378v1.1c.664-.858 1.641-1.361 2.987-1.361 2.471 0 4.499 2.143 4.499 4.921z" fill="#8B8B8B"/></g><mask id="c" style="mask-type:luminance" maskUnits="userSpaceOnUse" x="120" y="11" width="7" height="13"><path fill-rule="evenodd" clip-rule="evenodd" d="M120.439 11.087h6.067v12.008h-6.067V11.087z" fill="#fff"/></mask><g mask="url(#c)"><path fill-rule="evenodd" clip-rule="evenodd" d="M124.422 16.009v3.878c0 1.006.719 1.025 2.084.95v2.182c-3.338.373-4.462-.615-4.462-3.132v-3.878h-1.605v-2.312h1.605v-1.883l2.378-.727v2.61h2.084v2.312h-2.084z" fill="#8B8B8B"/></g><path fill-rule="evenodd" clip-rule="evenodd" d="M27.017 19.046c-.39.237-.844.371-1.328.371a2.54 2.54 0 01-1.342-.382 2.82 2.82 0 01-1.322-2.415c0-1.03.531-1.93 1.322-2.415a2.559 2.559 0 012.67-.01 2.824 2.824 0 011.338 2.425c0 1.038-.54 1.943-1.338 2.426zm-5.325 7.64c-1.472 0-2.665-1.253-2.665-2.796 0-1.03.53-1.931 1.32-2.414a2.541 2.541 0 011.345-.383c.482 0 .936.135 1.326.372.801.483 1.338 1.388 1.338 2.425 0 1.543-1.193 2.795-2.664 2.795zm-3.997-6.491a5.69 5.69 0 00-1.055 1.907 5.813 5.813 0 00-.279 1.788c0 1.543-1.19 2.795-2.664 2.795-1.472 0-2.665-1.252-2.665-2.794 0-1.031.53-1.932 1.32-2.415l-.001-.005c.507-.308.96-.7 1.346-1.156a5.681 5.681 0 001.053-1.907 5.82 5.82 0 00.28-1.789 5.81 5.81 0 00-.28-1.786 5.64 5.64 0 00-1.053-1.907 5.437 5.437 0 00-1.346-1.156l.002-.005a2.823 2.823 0 01-1.321-2.414c0-1.545 1.193-2.798 2.665-2.798 1.473 0 2.664 1.253 2.664 2.798 0 .623.098 1.225.28 1.786a5.65 5.65 0 001.054 1.907c.38.454.83.84 1.328 1.145l-.002.005c.801.482 1.338 1.388 1.338 2.425 0 1.038-.537 1.943-1.338 2.426l.002.005a5.438 5.438 0 00-1.328 1.145zm-7.994-.778c-.49 0-.95-.138-1.345-.382a2.82 2.82 0 01-1.321-2.415c0-1.03.53-1.93 1.321-2.415a2.566 2.566 0 012.67-.01c.802.482 1.339 1.388 1.339 2.425 0 1.038-.537 1.943-1.339 2.426-.39.237-.843.371-1.325.371zM21.692 6.553c1.47 0 2.664 1.253 2.664 2.797 0 1.038-.537 1.944-1.338 2.424a2.56 2.56 0 01-2.67-.009 2.824 2.824 0 01-1.321-2.415c0-1.544 1.193-2.797 2.665-2.797zm12.197 7.871L27.587 2.972C26.84 1.612 25.458.776 23.962.776H11.36c-1.496 0-2.88.837-3.627 2.196L1.43 14.424a4.582 4.582 0 000 4.394l6.302 11.45c.747 1.359 2.13 2.197 3.627 2.197h12.602c1.496 0 2.877-.838 3.625-2.197l6.302-11.45a4.581 4.581 0 000-4.394z" fill="#8B8B8B"/></svg>