<svg width="122" height="26" fill="none" xmlns="http://www.w3.org/2000/svg"><path d="M33.75 19.287V8.947c0-1.063.86-1.924 1.923-1.924h.14v12.264H33.75zm5.063 0V7.023h2.172l4.972 8.901v-8.9h.05c1.063 0 1.924.86 1.924 1.923v10.34h-2.173l-4.972-8.9v8.9h-1.974zm15.622.298c-1.28 0-2.28-.392-2.998-1.173-.718-.784-1.078-1.822-1.078-3.12h2.064c0 .76.167 1.367.503 1.822.346.445.849.666 1.507.666.658 0 1.16-.221 1.507-.666.36-.455.538-1.057.538-1.805V8.947c0-1.063.86-1.924 1.923-1.924h.141v8.288c0 1.297-.366 2.336-1.095 3.12-.718.77-1.723 1.156-3.016 1.156l.004-.002zm6.918-12.562h7.253c0 .998-.808 1.806-1.805 1.806h-3.384v3.468h5.187v1.805h-5.187v3.382h5.187v1.805h-7.252V7.023h.001zm52.399 0h7.253c0 .998-.808 1.806-1.806 1.806h-3.383v3.468h5.187v1.805h-5.187v3.382h5.187v1.805h-7.253V7.023h.002zM77.039 19.584c-1.79 0-3.207-.596-4.253-1.786-1.044-1.19-1.567-2.739-1.567-4.643 0-1.905.523-3.452 1.567-4.644 1.044-1.19 2.463-1.786 4.253-1.786 1.504 0 2.739.42 3.71 1.261.969.829 1.54 1.91 1.712 3.241H82c-.906 0-1.63-.684-2.166-1.413-.155-.21-.333-.4-.538-.566-.575-.478-1.321-.718-2.238-.718-1.226 0-2.186.42-2.877 1.262-.683.828-1.024 1.95-1.024 3.363s.34 2.54 1.024 3.381c.693.829 1.65 1.243 2.877 1.243.917 0 1.663-.24 2.238-.718.205-.167.385-.354.538-.566.538-.73 1.26-1.413 2.166-1.413h.46c-.17 1.33-.74 2.418-1.711 3.258-.971.828-2.206 1.244-3.71 1.244zm10.754-.297V8.915h-3.645c0-1.044.848-1.892 1.892-1.892h7.478v1.892h-3.66v10.372h-2.065zm8.347 0V8.947c0-1.063.86-1.924 1.924-1.924h.14v12.264h-2.063zm8.846 0L100.82 7.023h.84c.836 0 1.577.54 1.832 1.337l2.48 7.755 2.48-7.755a1.922 1.922 0 011.831-1.337h.84l-4.165 12.264h-1.974.002zM3.086 4.752c.155-.195.32-.384.485-.572.008-.009.025-.01.032-.02.015-.019.04-.03.054-.049l.015-.019c.115-.106.239-.22.38-.322a5.622 5.622 0 011.563-.857c1.75-.615 3.7-.236 5.23 1.207 2.135 2.003 1.944 5.225.24 7.368-2.154 3.194-5.855 7.65-.732 11.643.923.718 1.605 1.31 4.507 2.148-1.899.35-3.657.242-5.616-.259-1.386-.781-3.564-2.455-4.306-4.718-1.121-3.43 1.972-8.557 3.466-10.531 2.053-2.734-1.27-5.692-3.714-2.389-1.278 1.721-3.513 6.593-2.737 10.206.454 2.049 1.06 3.543 3.46 5.593a11.43 11.43 0 01-1.296-.894C-1.46 17.091-.812 9.058 3.086 4.752z" fill="#8B8B8B"/><path d="M22.073 21.155c-.155.195-.32.385-.485.572-.008.01-.025.011-.032.02-.015.02-.04.03-.055.05l-.015.018a3.87 3.87 0 01-.378.323 5.652 5.652 0 01-1.564.856c-1.75.615-3.7.237-5.23-1.207-2.135-2.002-1.944-5.224-.24-7.367 2.154-3.194 5.855-7.65.73-11.643-.921-.718-1.605-1.31-4.507-2.149 1.899-.35 3.657-.241 5.616.26 1.386.78 3.564 2.457 4.306 4.717 1.121 3.431-1.972 8.558-3.466 10.532-2.053 2.733 1.27 5.691 3.714 2.388 1.278-1.72 3.513-6.593 2.737-10.205-.454-2.049-1.06-3.543-3.461-5.594.444.263.877.56 1.297.894 5.577 5.195 4.93 13.23 1.033 17.535z" fill="#8B8B8B"/></svg>