<svg width="83" height="29" fill="none" xmlns="http://www.w3.org/2000/svg"><path d="M22.673 18.082l3.05-1.207c.549 1.114 1.538 1.694 2.845 1.694 1.286 0 1.973-.627 1.973-1.368 0-.906-1.332-1.114-2.916-1.44-2.087-.44-4.408-1.089-4.408-3.737 0-2.11 2.02-3.944 5.07-3.923 2.614 0 4.177 1 5.325 2.67l-2.89 1.18c-.507-.834-1.287-1.32-2.435-1.32-1.24 0-1.835.508-1.835 1.206 0 .788 1.01 1 2.824 1.394 2.066.42 4.496 1.136 4.496 3.83 0 1.949-1.722 4.152-5.326 4.13-2.928 0-4.789-1.114-5.773-3.11zM34.6 8.406h2.296V5.69l3.122-1.855v4.57h3.26v2.83h-3.26v5.152c0 1.322.549 1.788 1.353 1.788.435 0 .779-.14 1.148-.466l1.445 2.508a4.883 4.883 0 01-2.962.953c-2.594 0-4.106-1.254-4.106-4.664v-5.27H34.6v-2.83zm18.728 7.867v-.674h-2.915c-1.882 0-2.64.602-2.64 1.576 0 .907.62 1.368 1.927 1.368 1.517 0 3.008-.927 3.628-2.27zm-8.857 1.181c0-2.596 2.133-4.198 5.577-4.198h3.26v-.16c0-1.348-.897-2.276-2.686-2.276-1.4 0-2.342.602-2.917 1.648l-2.916-1.461c1.261-1.67 3.075-2.856 5.853-2.856 3.65 0 5.736 1.928 5.736 5.08v7.702h-3.05v-1.927c-.897 1.3-2.594 2.181-4.542 2.181-2.71.005-4.316-1.53-4.316-3.732h.001zm13.285.628l6.905-6.893h-6.765V8.406h10.667v2.855l-6.883 6.867h6.975v2.805H57.758v-2.851zm15.031-4.804h6.607c-.414-1.555-1.605-2.415-3.26-2.415-1.604 0-2.84.953-3.347 2.415zm-3.143 1.414c0-3.643 2.8-6.545 6.494-6.545 3.717 0 6.403 2.716 6.403 6.427v1.207h-9.846c.414 1.623 1.722 2.644 3.557 2.644 1.47 0 2.455-.648 3.075-1.67l2.594 1.53c-1.24 1.762-2.984 2.902-5.715 2.902-3.993.004-6.562-2.851-6.562-6.495zM17.637.39l-14.4 8.584.523 6.138 7.45.479L.92 19.793l-.47 6.35 3.612 2.369 4.973-3.038-2.803-2.024 14.015-5.11-.708-6.248-8.518-1.331 7.223-4.321-.607-6.05z" fill="#8B8B8B"/></svg>