<svg width="97" height="29" fill="none" xmlns="http://www.w3.org/2000/svg"><path d="M28.116.156L24.86 3.414h2.138v11.173a12.017 12.017 0 01-3.408 8.359 12.095 12.095 0 01-8.29 3.717 11.406 11.406 0 01-2.873-.232 12.267 12.267 0 01-6.593-3.653 12.074 12.074 0 01-3.171-6.793 11.931 11.931 0 01.682-5.629A12.03 12.03 0 016.55 5.661c2.876-2.559 6.252-3.562 10.08-3.032a11.8 11.8 0 015.253 2.098 12.073 12.073 0 012.591 2.478c.044.058.075.136.165.16a.49.49 0 000-.08V4.08a.363.363 0 00-.154-.295A14.642 14.642 0 0014.746 0c-.962-.01-1.922.078-2.866.264a14.46 14.46 0 00-3.841 1.297A14.67 14.67 0 003.5 5.11a14.518 14.518 0 00-2.804 5.01 13.874 13.874 0 00-.638 3.238.648.648 0 01-.03.237A14.049 14.049 0 00.06 15.78c.016.122.033.245.045.37.107.947.307 1.882.598 2.791l.013.035c.033.101.067.206.102.304.015.035.027.072.04.107l.087.23.052.136a12.325 12.325 0 00.144.35 14.775 14.775 0 002.945 4.438c.04.043.08.082.121.124l.175.173.14.137c.091.086.183.173.277.258l.125.107.234.206.08.07a14.887 14.887 0 002.869 1.86 14.101 14.101 0 004.527 1.38c.369.048.738.081 1.106.116a14.635 14.635 0 001.87-.008c.463-.048.927-.089 1.388-.16l.115-.016a13.989 13.989 0 004.145-1.352 14.452 14.452 0 006.651-6.814 14.125 14.125 0 001.361-6.145c0-1.48.015-11.058.015-11.058l2.109-.014-3.279-3.25z" fill="#8B8B8B"/><path d="M6.21 16.532v3.884c.273.344.564.673.874.985.58.581 1.228 1.094 1.928 1.527v-6.4l-2.801.004zm3.454-2.489v9.244c.885.462 1.83.8 2.81 1.004V14.043h-2.81zm3.453-2.525v12.901c.674.105 1.357.14 2.039.107.26-.014.516-.035.77-.064V11.518h-2.809zm3.453-2.565v15.415a10.675 10.675 0 002.816-.88V8.953H16.57zm3.446-2.493v16.693a11.045 11.045 0 002.81-2.29V6.461h-2.81zm18.895 3.678a4.872 4.872 0 00-1.894-.36 5.432 5.432 0 00-2.71.68 4.857 4.857 0 00-1.886 1.92 5.86 5.86 0 00-.686 2.866 5.925 5.925 0 00.686 2.879 4.838 4.838 0 001.886 1.928c.827.46 1.762.695 2.71.682a4.974 4.974 0 001.957-.38 3.773 3.773 0 001.488-1.134l.171-.206v1.583h2.199V5.661h-2.293v5.75l-.169-.206a3.824 3.824 0 00-1.459-1.067zm1.668 5.106a3.823 3.823 0 01-.43 1.84 3.11 3.11 0 01-1.173 1.239 3.428 3.428 0 01-3.324 0 3.11 3.11 0 01-1.172-1.239 3.825 3.825 0 01-.429-1.84 3.823 3.823 0 01.43-1.838 3.109 3.109 0 011.17-1.238 3.413 3.413 0 013.323.016c.5.297.907.726 1.174 1.239.292.563.44 1.188.43 1.821zm21.91-4.596A5.403 5.403 0 0059.4 9.67h-.039a6.807 6.807 0 00-2.67.47 7.187 7.187 0 00-1.799 1.032l.984 1.445a4.62 4.62 0 011.459-.764 5.884 5.884 0 011.826-.287c.908 0 1.269.116 1.757.562.487.446.51 1.044.51 1.858v.264H58.51c-1.54 0-2.682.3-3.39.89a2.897 2.897 0 00-1.063 2.346 2.996 2.996 0 00.487 1.677c.34.509.82.912 1.384 1.16a4.98 4.98 0 002.111.413 5.078 5.078 0 002.062-.38 4.04 4.04 0 00.996-.665c.175-.164.334-.345.473-.54l.102-.147v1.585h2.018V13.94c-.009-1.605-.411-2.712-1.201-3.292zm-1.067 6.57a2.549 2.549 0 01-1.096 1.34 3.373 3.373 0 01-1.759.465 2.608 2.608 0 01-1.601-.437 1.439 1.439 0 01-.59-1.21c0-1.052.778-1.584 2.309-1.584h2.743l-.006 1.427zm-9.269-6.57a5.392 5.392 0 00-3.093-.978h-.04a6.793 6.793 0 00-2.673.468 7.106 7.106 0 00-1.8 1.033l.983 1.445a4.63 4.63 0 011.459-.764 5.89 5.89 0 011.838-.287c.896 0 1.273.12 1.757.562.483.442.508 1.045.508 1.858v.264h-2.917c-1.54 0-2.683.3-3.392.89a2.923 2.923 0 00-.806 1.051c-.184.407-.272.85-.256 1.295a2.996 2.996 0 00.487 1.677c.341.509.821.911 1.384 1.16a4.99 4.99 0 002.111.413 5.068 5.068 0 002.062-.38c.363-.17.7-.395.996-.665.175-.164.334-.345.473-.54l.102-.147v1.586h2.02v-6.65c0-1.604-.417-2.71-1.203-3.29zm-1.067 6.57a2.539 2.539 0 01-1.096 1.34 3.359 3.359 0 01-1.761.465 2.598 2.598 0 01-1.597-.437 1.45 1.45 0 01-.592-1.21c0-1.051.778-1.584 2.312-1.584h2.74l-.006 1.427zm20.143-2.419a10.994 10.994 0 00-1.701-.647 19.8 19.8 0 00-.998-.282 7.207 7.207 0 01-.81-.24c-.35-.17-.624-.339-.624-.814a1.133 1.133 0 01.534-.972c.343-.236.846-.355 1.498-.355.969.022 1.91.323 2.71.865l.802-1.652a5.935 5.935 0 00-1.613-.754 7.164 7.164 0 00-1.876-.254c-1.33 0-2.336.283-2.99.839a3.156 3.156 0 00-1.185 2.424c0 .743.626 1.893 1.47 2.317.862.377 1.744.71 2.64 1 .457.158.82.282.934.336.392.18.798.59.776.995-.044.84-.651 1.268-1.801 1.268a6.31 6.31 0 01-1.89-.333 7.55 7.55 0 01-1.712-.987l-1.096 1.638c.7.5 1.464.91 2.27 1.22a6.969 6.969 0 002.165.345c1.367 0 2.322-.262 3.008-.826.833-.677 1.206-1.404 1.206-2.286 0-.826-.173-1.51-.473-1.883a4.367 4.367 0 00-1.244-.962zm3.952-9.609a1.322 1.322 0 00-.982.403 1.373 1.373 0 00-.394 1.004 1.392 1.392 0 00.394 1.006 1.32 1.32 0 00.978.402 1.29 1.29 0 00.986-.413c.26-.287.4-.663.387-1.049a1.284 1.284 0 00-.387-.966 1.354 1.354 0 00-.982-.386zm1.039 4.766h-2.103v10.605h2.103V9.956zm6.453 8.836a1.325 1.325 0 01-1.057-.446 1.938 1.938 0 01-.363-1.26v-5.49h2.837V9.873h-2.837v-3.4h-2.23v3.4h-1.39v1.723h1.39v5.558a3.796 3.796 0 001.013 2.635c.56.605 1.459.952 2.445.952.394.002.785-.057 1.16-.175a6.472 6.472 0 001.416-.826l-.853-1.516a2.276 2.276 0 01-1.531.568z" fill="#8B8B8B"/><path d="M93.879 9.956l-3.352 8.235-3.334-8.235h-2.318l4.387 10.9c.013.323-.059.642-.208.928-.248.582-1.001 1.053-1.459 1.053-.344 0-.685-.07-1.001-.206a2.831 2.831 0 01-.76-.483l-.882 1.705c.321.33.708.59 1.136.764a4.84 4.84 0 001.557.29 3.482 3.482 0 002.128-.827c.719-.62 1.165-1.784 1.213-1.914.065-.175.131-.357.208-.55L96.003 9.95l-2.124.006z" fill="#8B8B8B"/></svg>