<svg width="121" height="33" fill="none" xmlns="http://www.w3.org/2000/svg"><path fill-rule="evenodd" clip-rule="evenodd" d="M96.144 12.017c0-1.179.682-1.823 1.915-1.823.552 0 1.049.166 1.602.405l.755-1.878c-.792-.405-1.676-.681-2.688-.681-2.283 0-3.977 1.307-3.977 3.921v.46h-1.583v2.026h1.583v7.971h2.393v-7.971h3.13v-2.025h-3.13v-.405zm-40.72-2.302c0 .866.662 1.51 1.527 1.51.847 0 1.528-.644 1.528-1.51 0-.865-.681-1.51-1.528-1.51-.865 0-1.528.645-1.528 1.51zm-2.468-.902H50.47v8.726l-7.437-8.726h-1.51v13.605h2.486v-8.653l7.308 8.653h1.639V8.813zm5.191 13.604h-2.412v-9.996h2.412v9.996zM70.5 12.422h-2.246v1.197c-.736-.847-1.767-1.436-3.166-1.436-2.835 0-5.081 2.117-5.081 5.136 0 2.927 2.062 5.118 4.989 5.118 1.417 0 2.467-.552 3.185-1.362v.589c0 1.657-1.16 2.908-3.24 2.908-1.344 0-2.614-.552-3.517-1.178l-.975 1.823c1.178.847 2.798 1.436 4.547 1.436 3.222 0 5.504-1.988 5.504-5.229v-9.002zm-5.155 7.916c1.675 0 2.909-1.288 2.909-3 0-1.713-1.234-2.965-2.909-2.965-1.694 0-2.927 1.252-2.927 2.964 0 1.713 1.233 3.001 2.927 3.001zm7.585-11.91v13.99h2.394v-5.412c0-1.565.994-2.651 2.411-2.651 1.289 0 2.191.902 2.191 2.614v5.45h2.393v-6.094c0-2.835-1.878-4.16-3.884-4.16-1.473 0-2.633.68-3.167 1.546V8.427H72.93zM90.842 19.95l.755 1.878c-.773.534-1.878.829-2.89.829-2.265 0-3.424-1.363-3.424-3.903v-4.308h-1.657v-2.025h1.693V8.887h2.375v3.535h3.351v2.025h-3.351v4.216c0 1.178.424 1.804 1.455 1.804.644 0 1.196-.22 1.693-.515zm17.198-7.529h2.282v9.997h-2.282v-1.234c-.755.847-1.823 1.473-3.259 1.473-2.89 0-4.952-2.32-4.952-5.284 0-3 2.099-5.191 4.952-5.191 1.436 0 2.485.644 3.259 1.51v-1.27zm.053 4.99c0 1.674-1.196 3.055-2.945 3.055-1.749 0-2.927-1.38-2.927-3.056 0-1.657 1.159-3.038 2.927-3.038 1.749 0 2.945 1.381 2.945 3.038zm7.068 5.006h-2.393V8.428h2.393v13.99zm2.45 0h2.394V8.428h-2.394v13.99z" fill="#8B8B8B"/><path opacity=".46" d="M29.87 16.774a14.475 14.475 0 01-1.287 5.989c-2.307 5.087-7.366 8.004-13.356 8.004-7.12 0-13.166-4.382-14.529-11.046a14.569 14.569 0 015.42-14.5 14.826 14.826 0 0115.5-1.566c5.046 2.455 8.246 7.543 8.251 13.12z" fill="#8B8B8B"/><path opacity=".5" d="M15.137 29.43c7.044 0 12.754-5.668 12.754-12.66 0-6.991-5.71-12.659-12.754-12.659S2.383 9.78 2.383 16.771c0 6.99 5.71 12.659 12.754 12.659z" fill="url(#paint0_radial_12_1114)"/><path d="M10.007 10.604l7.509 7.546 2.167-3.986 8.845 8.78s-5.385 11.976-17.42 7.067c-12.037-4.91-8.71-9.278-8.71-9.278l7.609-10.129z" fill="url(#paint1_linear_12_1114)"/><path d="M16.484 17.104l3.195-2.94s1.203 1.874.681 3.068c-.21.475-1.24 2.64-1.24 2.64l-2.636-2.768z" fill="#3F3747"/><path opacity=".8" d="M15.69 11.307c-.07-.072 0-.274.193-.449l5.807-5.754c.176-.174.38-.26.452-.188.07.07 0 .271-.192.446l-5.797 5.754c-.177.178-.38.26-.462.191z" fill="url(#paint2_radial_12_1114)"/><path opacity=".4" d="M20.073 12.238c-.07-.073 0-.274.193-.449l5.797-5.754c.176-.175.379-.26.449-.188.073.07 0 .27-.19.449l-5.797 5.754c-.182.175-.379.26-.452.188z" fill="url(#paint3_radial_12_1114)"/><path opacity=".4" d="M16.808 7.355c-.07-.073 0-.274.19-.449l5.8-5.754c.176-.174.379-.26.448-.188.073.07 0 .27-.19.446L17.26 7.167c-.176.175-.38.257-.452.188z" fill="url(#paint4_radial_12_1114)"/><path d="M9.573 28.137c-3.989-2.924.691-10.485 1.559-12.462.867-1.976-1.127-5.07-1.127-5.07l-9.27 9.21c1.449 6.753 7.457 11.58 14.412 11.581a14.984 14.984 0 007.778-2.052 14.479 14.479 0 00-2.951-1.207c-3.128-.861-6.42 2.92-10.401 0z" fill="url(#paint5_linear_12_1114)"/><path d="M9.573 28.137c-3.989-2.924.691-10.485 1.559-12.462.867-1.976-1.127-5.07-1.127-5.07l-9.27 9.21c1.449 6.753 7.457 11.58 14.412 11.581a14.984 14.984 0 007.778-2.052 14.479 14.479 0 00-2.951-1.207c-3.128-.861-6.42 2.92-10.401 0z" fill="#3F3747"/><path d="M15.28 32.035c8.374 0 15.163-6.788 15.163-15.162S23.654 1.71 15.28 1.71.117 8.499.117 16.873 6.906 32.035 15.28 32.035z" fill="#8B8B8B"/><defs><radialGradient id="paint0_radial_12_1114" cx="0" cy="0" r="1" gradientUnits="userSpaceOnUse" gradientTransform="matrix(12.7541 0 0 12.6591 15.137 16.77)"><stop stop-color="#27183E"/><stop offset=".8" stop-color="#180056"/></radialGradient><radialGradient id="paint2_radial_12_1114" cx="0" cy="0" r="1" gradientUnits="userSpaceOnUse" gradientTransform="matrix(4.88215 -2.04475 2.0307 4.84862 16.47 10.813)"><stop offset=".06" stop-color="#fff"/><stop offset=".93" stop-color="#A469FF" stop-opacity=".01"/></radialGradient><radialGradient id="paint3_radial_12_1114" cx="0" cy="0" r="1" gradientUnits="userSpaceOnUse" gradientTransform="rotate(-22.767 39.595 -45.91) scale(5.28504 5.25625)"><stop offset=".06" stop-color="#fff"/><stop offset=".93" stop-color="#A469FF" stop-opacity=".01"/></radialGradient><radialGradient id="paint4_radial_12_1114" cx="0" cy="0" r="1" gradientUnits="userSpaceOnUse" gradientTransform="matrix(4.87331 -2.04478 2.03333 4.84602 17.586 6.862)"><stop offset=".06" stop-color="#fff"/><stop offset=".93" stop-color="#A469FF" stop-opacity=".01"/></radialGradient><linearGradient id="paint1_linear_12_1114" x1="1.979" y1="10.604" x2="1.979" y2="31.188" gradientUnits="userSpaceOnUse"><stop offset=".06" stop-color="#fff"/><stop offset=".93" stop-color="#A469FF"/></linearGradient><linearGradient id="paint5_linear_12_1114" x1="-.389" y1="32.647" x2="24.471" y2="32.647" gradientUnits="userSpaceOnUse"><stop stop-color="#700EDB"/><stop offset="1" stop-color="#6E0ED9"/></linearGradient></defs></svg>