<svg width="50" height="28" fill="none" xmlns="http://www.w3.org/2000/svg"><path d="M21.34.745c.24 0 .442.202.442.412v20.448c0 .238-.203.44-.443.44h-5.21a.447.447 0 01-.443-.44V1.157c0-.201.203-.412.443-.412h5.21zm5.652 21.3c-1.954 0-3.255-1.209-3.255-3.03 0-1.73 1.3-2.91 3.256-2.91 1.955 0 3.255 1.17 3.255 2.91 0 1.83-1.3 3.03-3.256 3.03zm-2.572-6.463c-.24 0-.443-.192-.443-.375V1.194c0-.22.203-.403.443-.403h5.21c.24 0 .443.192.443.403v14.013c0 .192-.203.375-.443.375h-5.21zM36.903 7.38c1.124-1.17 3.015-1.94 4.998-1.94 4.675 0 7.81 3.405 7.81 8.522 0 5.08-3.135 8.494-7.81 8.494-1.392 0-2.72-.412-3.616-1.116v5.757c0 .201-.202.412-.442.412h-5.21c-.24 0-.443-.202-.443-.412V6.328c0-.238.203-.44.443-.44h3.347c.204 0 .36.175.47.44l.453 1.053zm1.392 8.413a2.5 2.5 0 002.342 1.62c1.632 0 2.721-1.355 2.721-3.405 0-2.115-1.098-3.524-2.72-3.524a2.51 2.51 0 00-2.343 1.62v3.689zM14 .781c.268 0 .443.202.443.412v4.44c0 .265-.175.439-.443.439H6.475v2.993h5.948c.268 0 .415.201.388.384l-.415 4.11c-.028.174-.24.385-.508.385H6.475v7.652c0 .2-.202.412-.442.412H.795c-.24 0-.415-.238-.415-.44V1.193C.38.992.555.781.795.781H14z" fill="#8B8B8B"/></svg>