<svg width="97" height="28" fill="none" xmlns="http://www.w3.org/2000/svg"><mask id="a" style="mask-type:luminance" maskUnits="userSpaceOnUse" x="0" y="0" width="97" height="28"><path d="M96.461.143H.527v27.714h95.934V.143z" fill="#fff"/></mask><g mask="url(#a)"><path d="M13.992 27.857c7.436 0 13.464-6.204 13.464-13.857S21.428.143 13.992.143C6.556.143.527 6.347.527 14s6.029 13.857 13.465 13.857z" fill="#8B8B8B"/><path d="M13.992 5.69L.527 19.54v8.317h13.157l8.073-8.318L13.992 5.69z" fill="url(#paint0_linear_144_1429)"/><path d="M9.33 19.54l4.665-8.31 4.658 8.31h3.107L13.995 5.69 6.222 19.54h3.107z" fill="#fff"/><path d="M93.378 7.071v7.214l-8.452-7.444v12.698h2.468v-7.214l8.451 7.444V7.071h-2.467zM77.96 13.555c0 2.016-1.611 3.675-3.57 3.675-1.959 0-3.57-1.659-3.57-3.675V7.071h-2.468v6.484c0 3.41 2.725 6.215 6.037 6.215 3.314 0 6.04-2.806 6.04-6.215V7.071H77.96v6.484zM34.185 19.54h2.853l4.272-7.62 4.272 7.62h2.853L41.31 6.84l-7.125 12.7zm23.631-6.485l-6.038-6.214v12.698h2.468v-6.571l3.57 3.675 3.57-3.675v6.571h2.468V6.841l-6.038 6.214z" fill="#8B8B8B"/></g><defs><linearGradient id="paint0_linear_144_1429" x1="17.4" y1="13.104" x2="6.322" y2="23.868" gradientUnits="userSpaceOnUse"><stop stop-color="#131313"/><stop offset="1" stop-color="#9095AD" stop-opacity="0"/></linearGradient></defs></svg>