<svg width="550" height="474" fill="none" xmlns="http://www.w3.org/2000/svg"><path d="M350.264 269.495a548.11 548.11 0 01-6.738 5.832l-.422-.495a541.139 541.139 0 01-5.327 4.479l.415.5a546.556 546.556 0 01-6.902 5.637l-.407-.507a547.802 547.802 0 01-5.437 4.31l.4.512a531.105 531.105 0 01-7.074 5.442l-.392-.518a531.23 531.23 0 01-5.547 4.138l.386.523a524.587 524.587 0 01-7.223 5.221l-.376-.53a512.76 512.76 0 01-5.693 3.983l.369.535a495.86 495.86 0 01-7.39 5l-.359-.542a479.37 479.37 0 01-5.79 3.783l.352.547a478.025 478.025 0 01-7.539 4.75l-.341-.553a471.44 471.44 0 01-5.943 3.603l.333.559a441.86 441.86 0 01-7.711 4.491l-.322-.565a418.125 418.125 0 01-6.045 3.373l.312.571a405.012 405.012 0 01-7.868 4.194l-.299-.577a385.679 385.679 0 01-6.167 3.13l.289.582a367.261 367.261 0 01-8.042 3.868l-.275-.59c-2.12.988-4.227 1.943-6.322 2.867l.263.594a314.496 314.496 0 01-8.212 3.485l-.245-.602a291.512 291.512 0 01-6.446 2.54l.231.607a268.979 268.979 0 01-8.388 3.034l-.211-.615a247.059 247.059 0 01-6.577 2.15l.193.621a220.214 220.214 0 01-8.57 2.479l-.167-.628c-2.268.605-4.506 1.16-6.713 1.665l.145.634a169.92 169.92 0 01-8.735 1.766l-.111-.64c-2.318.404-4.595.747-6.829 1.028l.081.645c-3.037.382-5.996.651-8.872.804l-.034-.649c-2.36.126-4.663.174-6.903.143l-.009.65a84.172 84.172 0 01-8.893-.579l.078-.645a67.13 67.13 0 01-6.761-1.157l-.143.634c-3.01-.681-5.852-1.562-8.514-2.648l.246-.602a43.539 43.539 0 01-6.11-3.055l-.337.556a38.343 38.343 0 01-7.034-5.442l.456-.464a35.888 35.888 0 01-4.383-5.213l-.535.369a38.24 38.24 0 01-4.153-7.864l.606-.236a43.516 43.516 0 01-1.961-6.545l-.635.139c-.612-2.808-.992-5.76-1.145-8.842l.649-.032a66.88 66.88 0 01.021-6.859l-.649-.034c.15-2.862.471-5.818.958-8.86l.642.103c.354-2.213.796-4.473 1.326-6.776l-.634-.146a124.702 124.702 0 012.317-8.601l.622.19c.66-2.152 1.389-4.337 2.186-6.551l-.612-.22c.98-2.725 2.061-5.493 3.24-8.301l.6.252a192.665 192.665 0 012.793-6.327l-.589-.273a218.342 218.342 0 013.914-8.016l.578.297a245.644 245.644 0 013.248-6.11l-.569-.313a265.425 265.425 0 014.429-7.743l.559.331a294.785 294.785 0 013.609-5.913l-.551-.345c1.555-2.482 3.17-4.98 4.844-7.491l.541.361a338.249 338.249 0 013.909-5.736l-.533-.371c1.679-2.41 3.41-4.83 5.192-7.258l.524.384a380.813 380.813 0 014.142-5.537l-.517-.394a402.918 402.918 0 015.484-7.031l.508.406a421.984 421.984 0 014.362-5.376l-.501-.414a435.839 435.839 0 015.749-6.825l.493.424a436.193 436.193 0 014.571-5.235l-.487-.431a464.552 464.552 0 015.975-6.612l.478.441a476.342 476.342 0 014.721-5.054l-.472-.447a499.71 499.71 0 016.195-6.421l.464.455a516.267 516.267 0 014.902-4.924l-.458-.461a525.074 525.074 0 016.384-6.219l.45.47a535.388 535.388 0 015.029-4.754l-.443-.475a536.078 536.078 0 016.576-6.034l.435.483a547.09 547.09 0 015.181-4.616l-.429-.488a558.02 558.02 0 016.738-5.832l.422.495a541.004 541.004 0 015.327-4.478l-.416-.5a553.86 553.86 0 016.903-5.637l.407.507a563.003 563.003 0 015.437-4.311l-.4-.512a546.252 546.252 0 017.073-5.441l.392.518a538.293 538.293 0 015.547-4.138l-.385-.524a524.482 524.482 0 017.223-5.22l.376.53a495.837 495.837 0 015.692-3.983l-.369-.535a493.39 493.39 0 017.39-5l.36.541a491.659 491.659 0 015.789-3.783l-.351-.546a469.93 469.93 0 017.539-4.75l.341.553a455.394 455.394 0 015.942-3.604l-.332-.558a438.106 438.106 0 017.711-4.491l.321.565a419.226 419.226 0 016.046-3.374l-.312-.57a399.487 399.487 0 017.868-4.195l.299.577a383.149 383.149 0 016.167-3.13l-.289-.581a361.918 361.918 0 018.042-3.868l.275.59a336.67 336.67 0 016.321-2.867l-.262-.595a316.221 316.221 0 018.212-3.485l.245.602a298.503 298.503 0 016.445-2.54l-.231-.607a268.733 268.733 0 018.389-3.033l.211.615a243.058 243.058 0 016.577-2.15l-.193-.621a218.815 218.815 0 018.57-2.48l.167.629c2.268-.605 4.506-1.16 6.712-1.666l-.145-.633a168.23 168.23 0 018.735-1.766l.112.64c2.318-.404 4.595-.747 6.829-1.028l-.081-.645c3.037-.382 5.996-.651 8.871-.805l.035.65c2.36-.127 4.662-.175 6.903-.143l.009-.65c3.08.043 6.047.235 8.893.578l-.078.645c2.34.283 4.595.668 6.761 1.158l.143-.634c3.01.68 5.852 1.562 8.513 2.647l-.245.602c2.162.882 4.201 1.9 6.11 3.056l.337-.556a38.24 38.24 0 017.033 5.442l-.455.463a36.045 36.045 0 014.383 5.214l.535-.37a38.238 38.238 0 014.152 7.865l-.605.236a43.617 43.617 0 011.961 6.544l.635-.138c.612 2.808.992 5.76 1.145 8.841l-.649.033a66.887 66.887 0 01-.021 6.859l.649.034a84.15 84.15 0 01-.958 8.86l-.642-.103a102.369 102.369 0 01-1.326 6.776l.633.146a124.119 124.119 0 01-2.316 8.601l-.622-.191a146.192 146.192 0 01-2.186 6.551l.612.22a170.572 170.572 0 01-3.24 8.302l-.6-.252a192.673 192.673 0 01-2.794 6.326l.59.273a219.206 219.206 0 01-3.914 8.017l-.578-.297a245.921 245.921 0 01-3.249 6.11l.57.313a269.099 269.099 0 01-4.429 7.743l-.559-.332a293.766 293.766 0 01-3.609 5.913l.551.345a317.35 317.35 0 01-4.844 7.491l-.541-.36a348.392 348.392 0 01-3.909 5.735l.533.372c-1.679 2.41-3.41 4.83-5.192 7.258l-.524-.385a375.496 375.496 0 01-4.142 5.538l.517.394a399.142 399.142 0 01-5.484 7.03l-.508-.405a421.984 421.984 0 01-4.362 5.376l.501.414a446.16 446.16 0 01-5.749 6.825l-.493-.424a453.53 453.53 0 01-4.571 5.235l.487.431a476.31 476.31 0 01-5.975 6.611l-.478-.44a496.596 496.596 0 01-4.721 5.054l.471.447a499.6 499.6 0 01-6.194 6.421l-.464-.456a504.84 504.84 0 01-4.902 4.924l.457.462a517.743 517.743 0 01-6.383 6.218l-.45-.469a535.322 535.322 0 01-5.029 4.753l.443.476a544.122 544.122 0 01-6.576 6.033l-.435-.482a533.445 533.445 0 01-5.181 4.615l.429.488z" stroke="#D2DAEF" stroke-width="1.3" stroke-dasharray="7 9"/><path d="M324.05 344.13c-62.231 35.41-124.072 57.74-173.732 65.235-24.833 3.747-46.584 3.78-63.803-.092-17.22-3.871-29.835-11.628-36.536-23.404-6.701-11.777-6.925-26.585-1.457-43.365 5.468-16.781 16.607-35.464 32.514-54.897 31.811-38.864 82.598-80.62 144.829-116.031 62.231-35.41 124.072-57.74 173.733-65.235 24.832-3.747 46.584-3.78 63.803.092 17.218 3.871 29.835 11.628 36.536 23.404 6.701 11.777 6.924 26.585 1.456 43.366-5.467 16.78-16.607 35.463-32.514 54.897-31.811 38.863-82.598 80.62-144.829 116.03z" stroke="#D2DAEF" stroke-width="1.3"/></svg>