<svg width="25" height="25" fill="none" xmlns="http://www.w3.org/2000/svg"><path d="M12.5 3.534H3.534A2.534 2.534 0 011 1v15.398c0 1.4 1.134 2.534 2.534 2.534h17.932a2.534 2.534 0 11-1.73 4.386M24 21.32V10.21M6.847 14.888h9.162m-9.162-3.655h3.265m13.132-9.477a2.583 2.583 0 00-3.653 0l-2.978 2.978a6.072 6.072 0 00-1.66 3.104L14.4 10.6l2.762-.552a6.074 6.074 0 003.104-1.661l2.978-2.978a2.583 2.583 0 000-3.653z" stroke="#504EF3" stroke-width="2" stroke-miterlimit="10" stroke-linecap="round" stroke-linejoin="round"/></svg>