<svg width="25" height="25" fill="none" xmlns="http://www.w3.org/2000/svg"><path d="M14.79 1H5.873A4.873 4.873 0 001 5.873v13.254A4.873 4.873 0 005.873 24h8.722a4.873 4.873 0 004.873-4.873V13.28M4.946 16.203H15.57" stroke="#504EF3" stroke-width="2" stroke-miterlimit="10" stroke-linecap="round" stroke-linejoin="round"/><path d="M23.244 1.757a2.583 2.583 0 00-3.653 0l-2.978 2.977a6.073 6.073 0 00-1.66 3.105l-.553 2.76 2.762-.551a6.073 6.073 0 003.104-1.661l2.978-2.978a2.583 2.583 0 000-3.652z" stroke="#504EF3" stroke-width="2" stroke-miterlimit="10" stroke-linecap="round" stroke-linejoin="round"/><path d="M11.525 20.102a1.218 1.218 0 11-2.436 0 1.218 1.218 0 012.436 0z" fill="#504EF3"/></svg>