<svg width="29" height="29" fill="none" xmlns="http://www.w3.org/2000/svg"><path d="M6.322 18.2l2.734-7.295a.164.164 0 01.305 0l2.71 7.294m-4.897-1.816h4.058M21.67 10.8v7.398M14.791 10.8v7.398m0-7.398s.005 1.61.005 2.088c0 .58.01 2.097.01 2.097s1.45-.01 2.013-.01c1.135 0 2.095-.934 2.095-2.088 0-1.153-.96-2.087-2.095-2.087H14.79zM10.514 28h7.972v-2.774a11.231 11.231 0 003.171-1.851l2.357 1.382L28 17.743l-2.367-1.389c.097-.605.161-1.221.161-1.854s-.064-1.25-.16-1.854L28 11.257l-3.986-7.014-2.357 1.382a11.23 11.23 0 00-3.17-1.85V1h-7.973v2.774a11.232 11.232 0 00-3.171 1.85l-2.357-1.38L1 11.257l2.366 1.389c-.096.605-.16 1.221-.16 1.854s.064 1.25.16 1.854L1 17.743l3.986 7.014 2.357-1.382c.94.784 2.012 1.406 3.17 1.85V28z" stroke="#504EF3" stroke-width="2" stroke-miterlimit="10" stroke-linecap="round" stroke-linejoin="round"/></svg>