<svg width="25" height="25" fill="none" xmlns="http://www.w3.org/2000/svg"><path d="M9.381 3.534H3.534A2.534 2.534 0 011 1v15.398c0 1.4 1.134 2.534 2.534 2.534h17.932a2.534 2.534 0 11-1.73 4.386M24 21.32v-6.53m-17.153.098h6.238m-6.238-3.655h2.29m10.965-5.068l-1.675.92-1.688-.92m1.755.925v1.853M12.89 4.725v4.762c0 .677.378 1.298.98 1.609l3.732 1.934a1.805 1.805 0 001.65.002l3.764-1.938A1.81 1.81 0 0024 9.485V4.727a1.81 1.81 0 00-.987-1.612L19.25 1.197a1.805 1.805 0 00-1.645.002l-3.732 1.915a1.81 1.81 0 00-.983 1.611z" stroke="#504EF3" stroke-width="2" stroke-miterlimit="10" stroke-linecap="round" stroke-linejoin="round"/></svg>