<svg width="25" height="25" fill="none" xmlns="http://www.w3.org/2000/svg"><path d="M0 24a1 1 0 102 0H0zm9.869-6.894a1 1 0 000-2v2zm10.962-3.63a1 1 0 10-1.36-1.466l1.36 1.467zm-2.119 3.532a1 1 0 101.415-1.414l-1.415 1.414zm5.96.618a1 1 0 00-1.344-1.48l1.344 1.48zm-2.761 1.157l-.672-.74a1 1 0 00-.326.675l.998.065zm-1.837 4.389l-.217.976a1 1 0 00.932-.277l-.715-.7zM12.55 24l-.918-.397a1 1 0 001.283 1.328L12.549 24zm.926-7.467l-.61-.793a1 1 0 00-.339 1.11l.949-.317zM2 24a6.894 6.894 0 016.894-6.894v-2A8.894 8.894 0 000 24h2zm6.894-6.894h.975v-2h-.975v2zm5.237-10.502a4.604 4.604 0 01-4.603 4.604v2a6.604 6.604 0 006.603-6.604h-2zm-4.603 4.604a4.604 4.604 0 01-4.604-4.604h-2a6.604 6.604 0 006.604 6.604v-2zM4.924 6.604A4.604 4.604 0 019.528 2V0a6.604 6.604 0 00-6.604 6.604h2zM9.528 2a4.604 4.604 0 014.603 4.604h2A6.604 6.604 0 009.528 0v2zm5.627 17.37c0 1.226.993 2.219 2.218 2.219v-2a.218.218 0 01-.218-.218h-2zm2.218 2.219a2.218 2.218 0 002.218-2.218h-2c0 .12-.098.218-.218.218v2zm2.218-2.218a2.218 2.218 0 00-2.218-2.218v2c.12 0 .218.097.218.218h2zm-2.218-2.218a2.218 2.218 0 00-2.218 2.218h2c0-.12.097-.218.218-.218v-2zm2.097-5.142l-2.224 2.063 1.36 1.466 2.224-2.063-1.36-1.466zm-2.251 3.503l1.493 1.494 1.415-1.414-1.494-1.494-1.414 1.414zm6.109.631l-2.09 1.897 1.345 1.48 2.09-1.896-1.345-1.48zm-2.415 2.573c-.088 1.352-.523 2.702-1.553 3.754l1.429 1.4c1.455-1.487 2.01-3.342 2.12-5.024l-1.996-.13zm-.621 3.478c-2.47-.551-5.237-.253-8.108.873l.73 1.862c2.583-1.012 4.939-1.23 6.943-.783l.435-1.952zm-6.826 2.201c1.188-2.745 1.825-5.588.957-8.181l-1.897.635c.633 1.889.226 4.16-.895 6.752l1.835.794zm.618-7.07c1.363-1.048 2.38-1.266 4.005-1.534l-.325-1.973c-1.723.284-3.137.567-4.899 1.92l1.219 1.586z" fill="#504EF3"/></svg>