<svg width="25" height="25" fill="none" xmlns="http://www.w3.org/2000/svg"><path d="M19.698 19.65h1.378A2.924 2.924 0 0024 16.728v-.044m-17.248 0l-1.124-.864a1.364 1.364 0 010-2.163l1.124-.864m7.147 0l1.124.864c.71.546.71 1.617 0 2.163l-1.124.864m-3.17-3.891l-.808 3.891M24 11.81V3.924A2.924 2.924 0 0021.076 1H8.273a2.924 2.924 0 00-2.924 2.924v1.361M16.727 24H3.924A2.924 2.924 0 011 21.076V8.273a2.924 2.924 0 012.924-2.924h12.803a2.924 2.924 0 012.924 2.924v12.803A2.924 2.924 0 0116.727 24z" stroke="#504EF3" stroke-width="2" stroke-miterlimit="10" stroke-linecap="round" stroke-linejoin="round"/></svg>