<svg width="25" height="24" fill="none" xmlns="http://www.w3.org/2000/svg"><path d="M23.104 18.547H1.896V3.894C1.896 2.296 3.205 1 4.82 1h15.36c1.615 0 2.924 1.296 2.924 2.894v9.82m-14.421.76a5.438 5.438 0 017.634 0m4.76 8.088H3.923C2.309 22.563 1 21.267 1 19.669v-1.121h23v1.121c0 1.599-1.309 2.895-2.924 2.895zm-5.09-13.105c0 1.907-1.561 3.453-3.488 3.453s-3.488-1.546-3.488-3.453c0-1.907 1.561-3.454 3.488-3.454s3.488 1.547 3.488 3.454z" stroke="#504EF3" stroke-width="1.8" stroke-miterlimit="10" stroke-linecap="round" stroke-linejoin="round"/></svg>