<svg width="16" height="17" fill="none" xmlns="http://www.w3.org/2000/svg"><path d="M14.84 8.42c-.002.617-.009 1.235-.017 1.852-.01.744-.022 1.489-.209 2.22-.195.768-.581 1.43-1.182 1.92-.633.516-1.399.788-2.225.838a52.194 52.194 0 01-3.287.09 52.195 52.195 0 01-3.287-.09c-.826-.05-1.592-.322-2.225-.838-.6-.49-.987-1.152-1.183-1.92-.186-.731-.198-1.476-.208-2.22C1.008 9.655 1 9.037 1 8.42c.001-.617.008-1.234.017-1.851.01-.745.022-1.49.208-2.221.196-.768.582-1.43 1.183-1.92.633-.516 1.399-.787 2.225-.837A52.112 52.112 0 017.92 1.5a52.111 52.111 0 013.287.09c.826.05 1.592.321 2.225.837.6.49.987 1.152 1.182 1.92.187.731.199 1.476.209 2.22.008.618.015 1.235.017 1.852z" stroke="#5857F0" stroke-width="2" stroke-miterlimit="10"/><path d="M10.969 8.42a3.079 3.079 0 11-6.158 0 3.079 3.079 0 016.158 0z" stroke="#5857F0" stroke-width="2" stroke-miterlimit="10"/><path d="M12.847 4.462a.88.88 0 11-1.76 0 .88.88 0 011.76 0z" fill="#5857F0"/></svg>