<svg width="19" height="18" fill="none" xmlns="http://www.w3.org/2000/svg"><path d="M10.484 16.5l-.75-.002.75.001zM17 12.882l.528.533.538-.533-.538-.533-.528.533zM5.474 5.37c0-1.993 1.634-3.621 3.664-3.621V.25c-2.845 0-5.164 2.286-5.164 5.12h1.5zm3.664-3.62c2.03 0 3.664 1.628 3.664 3.62h1.5c0-2.834-2.32-5.12-5.164-5.12v1.5zm3.664 3.62c0 1.993-1.634 3.621-3.664 3.621v1.5c2.845 0 5.164-2.285 5.164-5.12h-1.5zM9.138 8.992c-2.03 0-3.664-1.628-3.664-3.62h-1.5c0 2.835 2.319 5.12 5.164 5.12v-1.5zM1.75 17.8c0-4.03 3.3-7.309 7.388-7.309v-1.5C4.236 8.991.25 12.928.25 17.8h1.5zm14.63-5.701h-2.207v1.5h2.206v-1.5zm-2.207 0c-2.443 0-4.437 1.962-4.44 4.4h1.5c.002-1.595 1.31-2.9 2.94-2.9v-1.5zm-4.44 4.4v1.3l1.5.002V16.5l-1.5-.002zm3.98-5.815l2.76 2.732 1.055-1.066-2.759-2.732-1.055 1.066zm2.76 1.666l-2.76 2.732 1.056 1.066 2.759-2.732-1.056-1.066z" fill="#000"/></svg>