<svg width="128" height="59" fill="none" xmlns="http://www.w3.org/2000/svg"><path fill-rule="evenodd" clip-rule="evenodd" d="M0 15l50 30-25 14L0 44.2V15z" fill="url(#paint0_linear_214_459)"/><path d="M0 44.2V15l25 14.8V59L0 44.2z" fill="url(#paint1_linear_214_459)"/><path d="M0 14.595L25 0v30L0 14.595z" fill="url(#paint2_linear_214_459)"/><path fill-rule="evenodd" clip-rule="evenodd" d="M41.351 31.838V21.734H39v12.238h8.912v-2.134h-6.56zm7.976-9.524c0 .854.493 1.263 1.373 1.263s1.364-.426 1.364-1.263c0-.836-.493-1.28-1.364-1.28-.872 0-1.373.435-1.373 1.28zm.27 11.658h2.212v-9.328h-2.211v9.328zm13.353-9.32v1a4.996 4.996 0 00-1.763-1.13 4.854 4.854 0 00-2.052-.296c-3.19 0-5.065 1.527-5.065 4.907s1.875 4.941 5.065 4.941a5.002 5.002 0 003.593-1.229v.333c0 2.21-.946 3.107-3.174 3.107-1.702 0-2.647-.444-3.083-1.494h-2.318C54.793 37.087 56.33 38 59.538 38c3.913 0 5.352-1.647 5.352-5.24v-8.107h-1.94zm-3.412 7.613c-2.056 0-3.289-.802-3.289-3.098s1.217-3.047 3.289-3.047c2.228 0 3.289 1.195 3.289 3.03 0 1.835-1.07 3.115-3.29 3.115zm14.043-7.98a4.386 4.386 0 00-1.95.281c-.622.24-1.186.62-1.652 1.11V21h-2.22v12.972h2.22v-5.06c0-2.006 1.192-2.698 2.886-2.698 1.834 0 2.763.76 2.763 2.723v5.035h2.211v-5.197c0-3.482-1.644-4.532-4.25-4.532l-.008.043zm13.088 9.687h1.94v-2.006h-1.364c-2.467 0-2.902-.264-2.902-2.39V26.48h4.283v-1.835h-4.234v-2.68h-1.644c-.099 1.904-.255 2.68-2.146 2.68h-.921v1.835h2.466v3.123c0 3.636 1.119 4.361 4.555 4.361l-.032.009zm9.168-12.23h-5.303v12.23h5.286c4.555 0 6.668-1.843 6.668-6.12 0-4.514-2.162-6.11-6.668-6.11h.017zm0 10.241h-2.903v-8.252h2.903c3.05 0 4.283 1.178 4.283 4.113 0 2.936-1.233 4.122-4.283 4.122v.017zm13.771 2.33c3.609 0 5.615-1.562 5.615-5.069 0-3.508-1.989-5.044-5.615-5.044-3.626 0-5.64 1.545-5.64 5.044 0 3.499 2.006 5.07 5.64 5.07zm0-1.894c-2.466 0-3.412-1.084-3.412-3.175 0-2.09.913-3.15 3.412-3.15 2.499 0 3.387 1.068 3.387 3.15s-.896 3.175-3.387 3.175zm12.818 1.894c3.288 0 5.13-1.195 5.574-3.891h-2.277c-.305 1.365-1.341 1.997-3.289 1.997-2.467 0-3.387-1.067-3.387-3.175 0-2.108.896-3.183 3.387-3.183 1.957 0 2.993.631 3.289 1.997H128c-.444-2.68-2.294-3.892-5.574-3.892-3.593 0-5.616 1.562-5.616 5.078s2.023 5.07 5.616 5.07z" fill="#14131B"/><defs><linearGradient id="paint0_linear_214_459" x1="50" y1="45.4" x2="21.774" y2="45.4" gradientUnits="userSpaceOnUse"><stop stop-color="#3BCCF3"/><stop offset=".816" stop-color="#6B9BFB"/><stop offset="1" stop-color="#4B6ED9"/></linearGradient><linearGradient id="paint1_linear_214_459" x1="5.645" y1="17.8" x2="23.147" y2="59.102" gradientUnits="userSpaceOnUse"><stop stop-color="#9640F9"/><stop offset=".519" stop-color="#504EF3"/><stop offset="1" stop-color="#20D5ED"/></linearGradient><linearGradient id="paint2_linear_214_459" x1="25" y1="0" x2="15.64" y2="22.667" gradientUnits="userSpaceOnUse"><stop stop-color="#BF13FC"/><stop offset="1" stop-color="#504EF3"/></linearGradient></defs></svg>