<svg width="393" height="494" fill="none" xmlns="http://www.w3.org/2000/svg"><g opacity=".4" fill="#888E9C"><circle cx="55" cy="66" r="2"/><circle cx="161" cy="2" r="2"/><circle cx="55" cy="172" r="2"/><circle cx="263" cy="172" r="2"/><circle cx="161" cy="221" r="2"/><circle cx="161" cy="126" r="2"/></g><path opacity=".2" d="M243.103 527.785c-33.195 27.907-67.784 47.722-96.85 57.216-14.535 4.747-27.652 6.901-38.503 6.221-10.849-.679-19.364-4.184-24.828-10.683-5.463-6.498-7.453-15.489-6.259-26.293 1.195-10.807 5.57-23.358 12.744-36.862 14.346-27.003 39.808-57.674 73.003-85.581 33.195-27.908 67.784-47.723 96.851-57.217 14.535-4.747 27.651-6.901 38.502-6.221 10.849.68 19.365 4.184 24.828 10.683 5.463 6.498 7.453 15.489 6.259 26.294-1.194 10.806-5.57 23.358-12.743 36.861-14.346 27.003-39.809 57.674-73.004 85.582z" stroke="#D2DAEF" stroke-width="1.5"/><path opacity=".2" d="M231.427 575.669c-44.448 25.292-88.607 41.234-124.051 46.584-17.726 2.675-33.231 2.694-45.49-.062-12.257-2.756-21.188-8.266-25.923-16.588-4.735-8.322-4.91-18.813-1.017-30.759 3.892-11.946 11.83-25.266 23.184-39.138 22.705-27.738 58.968-57.557 103.416-82.848 44.448-25.292 88.607-41.234 124.052-46.583 17.725-2.675 33.23-2.695 45.489.061 12.258 2.756 21.188 8.266 25.923 16.588 4.735 8.322 4.91 18.813 1.018 30.759-3.893 11.946-11.83 25.266-23.184 39.138-22.705 27.738-58.969 57.557-103.417 82.848z" stroke="#D2DAEF" stroke-width="1.5"/></svg>