<svg width="293" height="67" fill="none" xmlns="http://www.w3.org/2000/svg"><rect x="1" y="1" width="291" height="64.842" rx="2" fill="#fff" stroke="#2B23CD" stroke-width="1.2"/><path d="M7.484 14.103v-2.088h.364c.232-.469.39-1.014.475-1.636.09-.628.134-1.355.134-2.183v-.87h3.408v4.69h.443v2.087h-.846v-1.242H8.33v1.242h-.846zm1.353-2.088h2.103V8.172H9.382c0 .817-.045 1.542-.134 2.175a7.224 7.224 0 01-.411 1.668zm5.743.933c-.347 0-.66-.084-.94-.253a1.886 1.886 0 01-.657-.72 2.36 2.36 0 01-.237-1.082c0-.412.08-.773.237-1.084.164-.31.383-.55.657-.72.28-.173.593-.26.94-.26.36 0 .676.087.95.26.28.17.498.41.656.72.158.311.237.672.237 1.084 0 .41-.079.772-.237 1.083a1.806 1.806 0 01-.656.72c-.274.168-.59.252-.95.252zm0-.838a.84.84 0 00.68-.316c.18-.21.27-.511.27-.902 0-.39-.09-.69-.27-.9a.832.832 0 00-.68-.325.824.824 0 00-.671.324c-.174.21-.261.511-.261.902 0 .39.087.69.26.901.175.21.399.316.673.316zm2.611.751V8.877h.894v1.558a.52.52 0 00.284-.143.964.964 0 00.182-.34c.1-.305.2-.535.3-.687a.756.756 0 01.357-.309c.137-.053.313-.079.53-.079h.474v.767h-.403a.73.73 0 00-.23.032.363.363 0 00-.166.15 2.43 2.43 0 00-.166.38.71.71 0 01-.237.363c-.1.08-.232.145-.396.198.17.026.314.082.435.166.122.084.23.208.325.372a723.268 723.268 0 00.427.712c.126.205.298.487.514.845h-.989l-.672-1.194a.922.922 0 00-.237-.292.742.742 0 00-.332-.134v1.62h-.894zm4.235 1.574c-.126 0-.245-.005-.355-.016a1.663 1.663 0 01-.301-.04v-.814c.09.021.182.037.277.048.1.016.195.024.284.024.143 0 .25-.016.325-.048a.321.321 0 00.174-.15c.042-.074.087-.177.134-.309l.103-.276-1.503-3.978h.926l.964 2.91.91-2.91h.91l-1.55 4.515c-.122.354-.275.614-.46.783-.184.174-.463.261-.838.261zm3.48-1.574V8.877h.893l1.084 1.605 1.075-1.605h.894v3.986h-.886v-2.657l-.838 1.312h-.498l-.83-1.312v2.656h-.894zm6.579.087c-.553 0-1.001-.17-1.344-.514-.343-.347-.514-.859-.514-1.534 0-.427.076-.793.23-1.099.152-.31.366-.548.64-.711.274-.17.588-.253.94-.253.354 0 .655.09.902.268.248.174.438.414.57.72.132.3.197.643.197 1.028v.213h-2.601c.02.39.121.67.3.839.18.163.412.245.696.245.248 0 .45-.06.61-.182.157-.127.294-.311.41-.554l.657.467c-.195.38-.435.654-.72.822-.28.164-.604.245-.973.245zm-.94-2.601h1.684c-.042-.248-.135-.44-.277-.577a.717.717 0 00-.53-.206.875.875 0 00-.577.19c-.148.126-.248.324-.3.593zm3.404 2.514V8.877h.893v1.518h1.408V8.876h.877v3.986h-.877v-1.7h-1.408v1.7h-.893zm5.459 0v-3.21h-1.305v-.775h3.511v.775h-1.313v3.21h-.893zm5.398 0V8.877h3.044v3.986h-.885V9.65H45.7v3.21h-.894zm5.653.087c-.349 0-.662-.084-.942-.253a1.885 1.885 0 01-.656-.72 2.36 2.36 0 01-.237-1.082c0-.412.079-.773.237-1.084.164-.31.382-.55.657-.72a1.75 1.75 0 01.94-.26 1.755 1.755 0 011.606.98c.158.311.237.672.237 1.084 0 .41-.08.772-.237 1.083a1.807 1.807 0 01-.657.72c-.274.168-.59.252-.948.252zm0-.838a.84.84 0 00.68-.316c.179-.21.268-.511.268-.902 0-.39-.09-.69-.268-.9a.832.832 0 00-.68-.325.824.824 0 00-.673.324c-.174.21-.26.511-.26.902 0 .39.086.69.26.901.174.21.398.316.672.316zm2.286 1.78v-1.803h.348c.142-.217.255-.44.34-.673.09-.237.153-.5.19-.79a7.13 7.13 0 00.063-1.013v-.735h2.862v3.21h.443v1.803h-.76v-1.027h-2.72v1.027h-.766zm1.297-1.803h1.605V9.65H54.57c-.01.48-.055.917-.134 1.313-.08.39-.211.764-.395 1.123zm3.591.774V8.877h3.044v3.986h-.886V9.65h-1.265v3.21h-.893zm4.015 0V8.877h.894v2.562l1.613-2.562h.886v3.986h-.894v-2.539l-1.605 2.538h-.894zm6 .087c-.348 0-.661-.084-.94-.253a1.885 1.885 0 01-.657-.72c-.158-.305-.237-.663-.237-1.075 0-.416.079-.777.237-1.083a1.753 1.753 0 011.597-.98 1.8 1.8 0 01.846.197c.259.127.47.314.633.562l-.712.537a.81.81 0 00-.767-.466.824.824 0 00-.672.324c-.174.21-.26.514-.26.91 0 .384.086.682.26.893.174.21.398.316.672.316a.83.83 0 00.775-.458l.704.537c-.163.243-.374.43-.633.562a1.804 1.804 0 01-.846.197zm3.497-.031c-.411.016-.751-.074-1.02-.269-.264-.195-.395-.477-.395-.846 0-.269.081-.498.245-.688.163-.19.374-.338.632-.443.259-.11.525-.169.799-.174a1.17 1.17 0 01.712.166v-.466c0-.248-.053-.409-.158-.483-.106-.074-.261-.11-.467-.11-.221 0-.456.04-.704.118a2.23 2.23 0 00-.624.309l-.404-.688a3.49 3.49 0 01.783-.356c.306-.106.622-.158.949-.158.49 0 .86.1 1.107.3.248.195.372.551.372 1.068v1.882c0 .11.023.174.07.19.054.015.17-.003.349-.056v.562c-.08.036-.18.068-.3.094a1.436 1.436 0 01-.38.048.754.754 0 01-.38-.08.49.49 0 01-.182-.284c-.132.11-.284.198-.458.261a2.085 2.085 0 01-.546.103zm-.016-.775c.295-.01.538-.069.728-.174.195-.105.287-.256.276-.45-.005-.127-.07-.214-.197-.262a1.095 1.095 0 00-.459-.055 1.077 1.077 0 00-.64.198c-.169.12-.25.258-.246.41.011.238.19.349.538.333zm2.991.719V8.877h.893v1.518h1.408V8.876h.878v3.986h-.878v-1.7h-1.408v1.7h-.893zm6.845 1.574c-.126 0-.245-.005-.356-.016a1.661 1.661 0 01-.3-.04v-.814c.09.021.182.037.276.048.1.016.196.024.285.024a.85.85 0 00.324-.048.322.322 0 00.174-.15c.043-.074.087-.177.135-.309l.103-.276-1.503-3.978h.925l.965 2.91.91-2.91h.909l-1.55 4.515c-.121.354-.274.614-.459.783-.184.174-.464.261-.838.261zm4.962-1.487a1.78 1.78 0 01-.941-.253 1.885 1.885 0 01-.657-.72c-.158-.305-.237-.663-.237-1.075 0-.416.08-.777.237-1.083.164-.311.383-.55.657-.72.28-.173.593-.26.94-.26.312 0 .594.065.847.197.258.127.47.314.633.562l-.712.537a.81.81 0 00-.767-.466.824.824 0 00-.672.324c-.174.21-.261.514-.261.91 0 .384.087.682.26.893.175.21.399.316.673.316a.83.83 0 00.775-.458l.704.537a1.67 1.67 0 01-.633.562 1.804 1.804 0 01-.846.197zm2.247-.087V8.877h.894v2.562l1.613-2.562h.886v3.986h-.894v-2.539l-1.605 2.538h-.894zm3.992 0v-.774h.174a.482.482 0 00.213-.032c.042-.021.071-.09.087-.206.042-.232.074-.548.095-.949.026-.4.04-.822.04-1.265v-.759h2.72v3.986H94.6V9.65h-.933c0 .327-.008.654-.024.98-.015.327-.04.63-.07.91-.027.28-.059.517-.096.712-.047.226-.145.384-.292.474-.143.09-.367.134-.672.134h-.348zm5.963.087c-.554 0-1.002-.17-1.345-.514-.342-.347-.514-.859-.514-1.534 0-.427.077-.793.23-1.099.153-.31.366-.548.64-.711.274-.17.588-.253.941-.253s.654.09.902.268c.247.174.437.414.569.72.132.3.198.643.198 1.028v.213h-2.602c.021.39.121.67.3.839.18.163.412.245.696.245.248 0 .451-.06.61-.182a1.55 1.55 0 00.41-.554l.657.467c-.195.38-.435.654-.72.822-.28.164-.603.245-.972.245zm-.941-2.601h1.684c-.042-.248-.135-.44-.277-.577a.717.717 0 00-.53-.206.875.875 0 00-.577.19c-.147.126-.248.324-.3.593zm3.404 2.514V8.877h.893v1.518h1.408V8.876h.878v3.986h-.878v-1.7h-1.408v1.7h-.893zm4.154 0V8.877h.894v1.518h1.407V8.876h.878v3.986h-.878v-1.7h-1.407v1.7h-.894zm5.792.087a1.78 1.78 0 01-.941-.253 1.893 1.893 0 01-.657-.72 2.362 2.362 0 01-.237-1.082c0-.412.079-.773.237-1.084.164-.31.383-.55.657-.72a1.75 1.75 0 01.941-.26 1.755 1.755 0 011.605.98c.158.311.237.672.237 1.084 0 .41-.079.772-.237 1.083a1.807 1.807 0 01-.656.72 1.776 1.776 0 01-.949.252zm0-.838a.84.84 0 00.68-.316c.179-.21.269-.511.269-.902 0-.39-.09-.69-.269-.9a.832.832 0 00-.68-.325.824.824 0 00-.672.324c-.174.21-.261.511-.261.902 0 .39.087.69.261.901.174.21.398.316.672.316zm2.61.751V8.877h.894v2.562l1.613-2.562h.885v3.986h-.893v-2.539l-1.605 2.538h-.894zm1.7-4.293c-.379 0-.651-.077-.814-.23-.158-.158-.261-.413-.309-.767h.514c.027.18.085.3.174.364.09.058.235.087.435.087.201 0 .346-.029.435-.087.095-.063.153-.184.174-.364h.506c-.042.354-.145.61-.308.767-.164.153-.432.23-.807.23zm4.88 4.293V8.877h.893v1.558a.522.522 0 00.285-.143.976.976 0 00.182-.34c.1-.305.2-.535.3-.687a.756.756 0 01.356-.309c.137-.053.314-.079.53-.079h.474v.767h-.403c-.09 0-.166.01-.229.032a.36.36 0 00-.166.15c-.048.08-.103.206-.167.38a.702.702 0 01-.237.363c-.1.08-.232.145-.395.198.169.026.314.082.435.166s.229.208.324.372c.032.047.079.126.142.237l.285.474c.127.206.298.488.514.846h-.988l-.673-1.194a.903.903 0 00-.237-.292.743.743 0 00-.332-.134v1.62h-.893zm3.76 0V8.877h1.827c.474 0 .833.087 1.075.261.243.174.364.459.364.854 0 .19-.047.361-.142.514a.634.634 0 01-.364.3.873.873 0 01.49.325.916.916 0 01.206.609c0 .384-.108.67-.324.854-.211.179-.593.268-1.147.268h-1.985zm.886-.774h1.012c.248 0 .417-.035.506-.103.09-.074.135-.185.135-.332 0-.164-.05-.277-.151-.34-.095-.064-.258-.095-.49-.095h-1.012v.87zm0-1.645h.917c.201 0 .343-.032.427-.095.085-.063.127-.166.127-.308 0-.143-.045-.243-.135-.301-.089-.058-.237-.087-.443-.087h-.893v.79zm4.711 2.475c-.411.016-.751-.074-1.02-.269-.263-.195-.395-.477-.395-.846 0-.269.082-.498.245-.688.163-.19.374-.338.633-.443a2.11 2.11 0 01.798-.174 1.175 1.175 0 01.712.166v-.466c0-.248-.053-.409-.158-.483-.106-.074-.261-.11-.467-.11-.221 0-.456.04-.704.118-.242.08-.45.182-.624.309l-.404-.688a3.52 3.52 0 01.783-.356c.306-.106.622-.158.949-.158.49 0 .86.1 1.107.3.248.195.372.551.372 1.068v1.882c0 .11.024.174.071.19.053.015.169-.003.348-.056v.562a1.442 1.442 0 01-.3.094 1.44 1.44 0 01-.38.048.758.758 0 01-.38-.08.486.486 0 01-.181-.284 1.51 1.51 0 01-.459.261 2.086 2.086 0 01-.546.103zm-.016-.775c.296-.01.538-.069.728-.174.195-.105.287-.256.277-.45-.006-.127-.071-.214-.198-.262a1.095 1.095 0 00-.459-.055 1.076 1.076 0 00-.64.198c-.169.12-.251.258-.245.41.01.238.19.349.537.333zm2.619.719v-.774h.174a.485.485 0 00.214-.032c.042-.021.071-.09.087-.206a7.91 7.91 0 00.095-.949c.026-.4.039-.822.039-1.265v-.759h2.72v3.986h-.893V9.65h-.933c0 .327-.008.654-.024.98-.016.327-.04.63-.071.91-.026.28-.058.517-.095.712-.047.226-.145.384-.293.474-.142.09-.366.134-.672.134h-.348zm4.303 0V8.877h.893v2.562l1.613-2.562h.886v3.986h-.894v-2.539l-1.605 2.538h-.893zm6.719 1.527v-2.009c-.053.158-.174.293-.364.403a1.09 1.09 0 01-.569.166 1.51 1.51 0 01-.807-.229 1.732 1.732 0 01-.593-.696c-.147-.31-.221-.696-.221-1.154 0-.459.074-.844.221-1.155.153-.31.351-.543.593-.696.248-.158.517-.237.807-.237.195 0 .385.058.569.174.19.11.311.245.364.403V7.295h.886v2.063a.805.805 0 01.356-.403c.184-.116.374-.174.569-.174.295 0 .564.08.807.237.247.153.445.385.593.696.153.311.229.696.229 1.155 0 .458-.076.843-.229 1.154a1.658 1.658 0 01-.593.696c-.243.153-.512.23-.807.23a1.09 1.09 0 01-.569-.167.805.805 0 01-.356-.403v2.009h-.886zm-.806-2.286c.247 0 .442-.1.585-.3.147-.206.221-.517.221-.933 0-.422-.074-.73-.221-.925a.681.681 0 00-.585-.3c-.559 0-.839.408-.839 1.225 0 .822.28 1.233.839 1.233zm2.498 0c.554 0 .831-.41.831-1.233 0-.817-.277-1.226-.831-1.226-.242 0-.437.1-.585.3-.147.196-.221.504-.221.926 0 .416.074.727.221.933.148.2.343.3.585.3zm2.516.759V8.877h.893v2.562l1.613-2.562h.886v3.986h-.894v-2.539l-1.605 2.538h-.893zm6.933 1.029v-1.03h-2.57V8.877h.893v3.21h1.265v-3.21h.886v3.21h.309v1.803h-.783zm1.422-1.029V8.877h.894v2.562l1.613-2.562h.885v3.986h-.893v-2.539l-1.605 2.538h-.894zm4.363 1.559V8.883h.775l.048.427a1.307 1.307 0 011.059-.522c.353 0 .667.082.941.245.28.164.498.404.657.72.158.31.237.696.237 1.154 0 .433-.079.802-.237 1.107-.159.3-.377.533-.657.696a1.85 1.85 0 01-.941.237c-.195 0-.377-.036-.545-.11a1.406 1.406 0 01-.443-.324v1.905h-.894zm1.851-2.278a.884.884 0 00.695-.316c.185-.211.277-.517.277-.918 0-.442-.092-.77-.277-.98a.875.875 0 00-.695-.324.875.875 0 00-.696.324c-.185.216-.277.559-.277 1.028 0 .38.092.672.277.878a.894.894 0 00.696.308zm4.273.806a1.78 1.78 0 01-.941-.253 1.893 1.893 0 01-.657-.72 2.362 2.362 0 01-.237-1.082c0-.412.079-.773.237-1.084.164-.31.383-.55.657-.72a1.75 1.75 0 01.941-.26 1.755 1.755 0 011.605.98c.158.311.237.672.237 1.084 0 .41-.079.772-.237 1.083a1.807 1.807 0 01-.656.72 1.778 1.778 0 01-.949.252zm0-.838a.84.84 0 00.68-.316c.179-.21.269-.511.269-.902 0-.39-.09-.69-.269-.9a.832.832 0 00-.68-.325.824.824 0 00-.672.324c-.174.21-.261.511-.261.902 0 .39.087.69.261.901.174.21.398.316.672.316zm2.61.751V8.877h1.827c.474 0 .833.087 1.075.261.243.174.364.459.364.854 0 .19-.047.361-.142.514a.634.634 0 01-.364.3.873.873 0 01.49.325.916.916 0 01.206.609c0 .384-.108.67-.324.854-.211.179-.594.268-1.147.268h-1.985zm.886-.774h1.012c.248 0 .416-.035.506-.103.09-.074.134-.185.134-.332 0-.164-.05-.277-.15-.34-.095-.064-.258-.095-.49-.095h-1.012v.87zm0-1.645h.917c.2 0 .343-.032.427-.095.084-.063.127-.166.127-.308 0-.143-.045-.243-.135-.301-.089-.058-.237-.087-.443-.087h-.893v.79zm4.711 2.475c-.411.016-.751-.074-1.02-.269-.264-.195-.395-.477-.395-.846 0-.269.081-.498.245-.688.163-.19.374-.338.632-.443.259-.11.525-.169.799-.174a1.175 1.175 0 01.712.166v-.466c0-.248-.053-.409-.158-.483-.106-.074-.261-.11-.467-.11-.221 0-.456.04-.704.118-.242.08-.45.182-.624.309l-.404-.688c.216-.137.477-.256.783-.356.306-.106.622-.158.949-.158.49 0 .859.1 1.107.3.248.195.372.551.372 1.068v1.882c0 .11.024.174.071.19.053.015.169-.003.348-.056v.562a1.434 1.434 0 01-.301.094 1.432 1.432 0 01-.379.048.755.755 0 01-.38-.08.492.492 0 01-.182-.284c-.131.11-.284.198-.458.261a2.086 2.086 0 01-.546.103zm-.016-.775c.296-.01.538-.069.728-.174.195-.105.287-.256.277-.45-.006-.127-.072-.214-.198-.262a1.095 1.095 0 00-.459-.055 1.074 1.074 0 00-.64.198c-.169.12-.251.258-.245.41.01.238.189.349.537.333zm2.991.719V8.877h.893v1.518h1.408V8.876h.878v3.986h-.878v-1.7h-1.408v1.7h-.893zm4.154 0V8.877h.894v1.518h1.408V8.876h.877v3.986h-.877v-1.7h-1.408v1.7h-.894zm5.792.087a1.78 1.78 0 01-.941-.253 1.882 1.882 0 01-.656-.72 2.35 2.35 0 01-.238-1.082c0-.412.079-.773.238-1.084a1.75 1.75 0 011.597-.98 1.755 1.755 0 011.605.98c.158.311.237.672.237 1.084 0 .41-.079.772-.237 1.083a1.807 1.807 0 01-.656.72 1.776 1.776 0 01-.949.252zm0-.838a.84.84 0 00.68-.316c.179-.21.269-.511.269-.902 0-.39-.09-.69-.269-.9a.832.832 0 00-.68-.325.824.824 0 00-.672.324c-.174.21-.261.511-.261.902 0 .39.087.69.261.901.174.21.398.316.672.316zm2.61.751V8.877h.894v2.562l1.613-2.562h.886v3.986h-.894v-2.539l-1.605 2.538h-.894zm1.7-4.293c-.379 0-.651-.077-.814-.23-.158-.158-.261-.413-.308-.767h.513c.027.18.085.3.174.364.09.058.235.087.435.087.201 0 .346-.029.435-.087.095-.063.153-.184.174-.364h.506c-.042.354-.145.61-.308.767-.163.153-.432.23-.807.23zm6.627 4.38c-.437 0-.812-.116-1.123-.347-.305-.232-.514-.562-.624-.989l.854-.277c.11.538.408.807.893.807a.856.856 0 00.609-.221c.158-.153.258-.375.301-.665h-1.353v-.775h1.353c-.043-.29-.143-.508-.301-.656a.856.856 0 00-.609-.221.864.864 0 00-.585.197c-.153.132-.256.332-.308.601l-.854-.269c.11-.432.319-.764.624-.996.311-.232.686-.348 1.123-.348.369 0 .691.082.965.245.274.164.488.4.64.712.159.31.238.685.238 1.123 0 .432-.079.804-.238 1.115-.152.31-.366.55-.64.72a1.85 1.85 0 01-.965.244zm2.236-.087v-.774h.174a.485.485 0 00.214-.032c.042-.021.071-.09.087-.206a7.91 7.91 0 00.095-.949c.026-.4.039-.822.039-1.265v-.759h2.72v3.986h-.893V9.65h-.933c0 .327-.008.654-.024.98-.016.327-.039.63-.071.91-.026.28-.058.517-.095.712-.047.226-.145.384-.293.474-.142.09-.366.134-.672.134h-.348zm5.963.087c-.553 0-1.001-.17-1.344-.514-.343-.347-.514-.859-.514-1.534 0-.427.076-.793.229-1.099.153-.31.367-.548.641-.711.274-.17.588-.253.941-.253s.653.09.901.268c.248.174.438.414.57.72.131.3.197.643.197 1.028v.213h-2.601c.021.39.121.67.3.839.179.163.411.245.696.245.248 0 .451-.06.609-.182.158-.127.295-.311.411-.554l.656.467c-.195.38-.434.654-.719.822-.28.164-.604.245-.973.245zm-.941-2.601h1.685c-.043-.248-.135-.44-.277-.577a.718.718 0 00-.53-.206.875.875 0 00-.577.19c-.148.126-.248.324-.301.593zm3.404 2.514V8.877h.894v1.558a.525.525 0 00.285-.143.96.96 0 00.181-.34c.101-.305.201-.535.301-.687a.756.756 0 01.356-.309c.137-.053.313-.079.53-.079h.474v.767h-.403a.71.71 0 00-.23.032.364.364 0 00-.166.15 2.48 2.48 0 00-.166.38.708.708 0 01-.237.363c-.1.08-.232.145-.395.198.168.026.313.082.435.166.121.084.229.208.324.372a167.02 167.02 0 00.941 1.558h-.989l-.672-1.194a.93.93 0 00-.237-.293.743.743 0 00-.332-.134v1.62h-.894zm4.749 0v-3.21h-1.305v-.775h3.511v.775h-1.312v3.21h-.894zm3.182 1.559V8.883h.775l.047.427a1.307 1.307 0 011.06-.522c.353 0 .667.082.941.245.28.164.498.404.656.72.159.31.238.696.238 1.154 0 .433-.079.802-.238 1.107-.158.3-.376.533-.656.696a1.85 1.85 0 01-.941.237 1.35 1.35 0 01-.546-.11 1.414 1.414 0 01-.442-.324v1.905h-.894zm1.85-2.278c.28 0 .512-.105.696-.316.185-.211.277-.517.277-.918 0-.442-.092-.77-.277-.98a.875.875 0 00-.696-.324.875.875 0 00-.695.324c-.185.216-.277.559-.277 1.028 0 .38.092.672.277.878a.893.893 0 00.695.308zm4.274.806a1.78 1.78 0 01-.941-.253 1.885 1.885 0 01-.657-.72 2.362 2.362 0 01-.237-1.082c0-.412.079-.773.237-1.084.164-.31.382-.55.657-.72a1.75 1.75 0 01.941-.26 1.755 1.755 0 011.605.98c.158.311.237.672.237 1.084 0 .41-.079.772-.237 1.083a1.807 1.807 0 01-.656.72 1.778 1.778 0 01-.949.252zm0-.838a.84.84 0 00.68-.316c.179-.21.269-.511.269-.902 0-.39-.09-.69-.269-.9a.832.832 0 00-.68-.325.824.824 0 00-.673.324c-.174.21-.261.511-.261.902 0 .39.087.69.261.901.174.21.398.316.673.316zm2.61.751V8.877h.894v1.518h1.407V8.876h.878v3.986h-.878v-1.7h-1.407v1.7h-.894zm4.155 0V8.877h.893v1.518h1.408V8.876h.877v3.986h-.877v-1.7H230.2v1.7h-.893zm5.791.087a1.78 1.78 0 01-.941-.253 1.882 1.882 0 01-.656-.72 2.362 2.362 0 01-.238-1.082c0-.412.08-.773.238-1.084a1.75 1.75 0 011.597-.98 1.755 1.755 0 011.605.98c.158.311.237.672.237 1.084 0 .41-.079.772-.237 1.083a1.807 1.807 0 01-.656.72c-.274.168-.59.252-.949.252zm0-.838a.84.84 0 00.68-.316c.179-.21.269-.511.269-.902 0-.39-.09-.69-.269-.9a.832.832 0 00-.68-.325.824.824 0 00-.672.324c-.174.21-.261.511-.261.902 0 .39.087.69.261.901.174.21.398.316.672.316zm2.61.751V8.877h.894v2.562l1.613-2.562h.886v3.986h-.894v-2.539l-1.605 2.538h-.894zm1.701-4.293c-.38 0-.652-.077-.815-.23-.158-.158-.261-.413-.308-.767h.514c.026.18.084.3.174.364.089.058.234.087.435.087.2 0 .345-.029.434-.087.095-.063.153-.184.174-.364h.506c-.042.354-.144.61-.308.767-.163.153-.432.23-.806.23zm4.879 4.293V8.877h3.044v3.986h-.885V9.65h-1.266v3.21h-.893zm5.652.087c-.348 0-.661-.084-.941-.253a1.882 1.882 0 01-.656-.72 2.362 2.362 0 01-.237-1.082c0-.412.079-.773.237-1.084a1.753 1.753 0 011.597-.98c.359 0 .675.087.949.26.28.17.498.41.656.72.159.311.238.672.238 1.084 0 .41-.079.772-.238 1.083a1.8 1.8 0 01-.656.72c-.274.168-.59.252-.949.252zm0-.838c.28 0 .506-.105.68-.316.18-.21.269-.511.269-.902 0-.39-.089-.69-.269-.9a.831.831 0 00-.68-.325.824.824 0 00-.672.324c-.174.21-.261.511-.261.902 0 .39.087.69.261.901.174.21.398.316.672.316zm2.286 1.78v-1.803h.348c.143-.217.256-.44.34-.673.09-.237.153-.5.19-.79.042-.29.063-.628.063-1.013v-.735h2.863v3.21h.443v1.803h-.759v-1.027h-2.721v1.027h-.767zm1.297-1.803h1.605V9.65h-1.075c-.01.48-.055.917-.134 1.313-.079.39-.211.764-.396 1.123zm3.591.774V8.877h3.045v3.986h-.886V9.65h-1.265v3.21h-.894zm4.016 0V8.877h.894v2.562l1.613-2.562h.885v3.986h-.893v-2.539l-1.605 2.538h-.894zm6 .087a1.78 1.78 0 01-.941-.253 1.882 1.882 0 01-.656-.72 2.313 2.313 0 01-.238-1.075c0-.416.08-.777.238-1.083a1.75 1.75 0 011.597-.98 1.8 1.8 0 01.846.197c.258.127.469.314.633.562l-.712.537a.81.81 0 00-.767-.466.824.824 0 00-.672.324c-.174.21-.261.514-.261.91 0 .384.087.682.261.893.174.21.398.316.672.316a.83.83 0 00.775-.458l.704.537a1.67 1.67 0 01-.633.562 1.803 1.803 0 01-.846.197zm2.247-.087V8.877h.902v1.566h1.091c.559 0 .944.1 1.155.3.211.2.316.504.316.91s-.105.709-.316.909c-.211.2-.596.3-1.155.3h-1.993zm.894-.774h1.02c.243 0 .409-.035.498-.103.09-.074.135-.185.135-.332 0-.153-.045-.264-.135-.332-.089-.069-.255-.103-.498-.103h-1.02v.87zm6.659.861c-.49 0-.893-.147-1.209-.442-.311-.3-.501-.717-.57-1.25h-.648v1.605h-.894V8.877h.894v1.605h.648c.069-.532.259-.946.57-1.241.316-.3.719-.45 1.209-.45.554 0 .994.184 1.321.553.327.363.49.872.49 1.526s-.163 1.165-.49 1.534c-.327.364-.767.545-1.321.545zm0-.806c.612 0 .918-.425.918-1.273 0-.849-.306-1.273-.918-1.273-.601 0-.901.424-.901 1.273 0 .848.3 1.273.901 1.273zM10.205 24.059c-.501 0-.95-.119-1.345-.356a2.455 2.455 0 01-.917-1.004c-.221-.438-.332-.95-.332-1.535 0-.59.11-1.101.332-1.534a2.444 2.444 0 012.262-1.375c.463 0 .88.102 1.249.308.369.206.667.493.894.862l-.815.474a1.61 1.61 0 00-.561-.553 1.47 1.47 0 00-.767-.198 1.49 1.49 0 00-.862.253c-.248.163-.44.398-.578.704-.131.3-.197.654-.197 1.06 0 .4.066.753.197 1.06.137.3.33.534.578.703.247.163.535.245.862.245.29 0 .545-.066.767-.198a1.61 1.61 0 00.561-.553l.815.474a2.435 2.435 0 01-.894.854 2.523 2.523 0 01-1.25.309zm4.165-.071c-.41.015-.75-.074-1.02-.27-.263-.194-.394-.476-.394-.846 0-.268.081-.498.245-.687a1.63 1.63 0 01.632-.443c.258-.11.525-.169.799-.174a1.17 1.17 0 01.712.166v-.467c0-.247-.053-.408-.159-.482-.105-.074-.26-.11-.466-.11-.222 0-.456.039-.704.118a2.23 2.23 0 00-.625.308l-.403-.688a3.49 3.49 0 01.783-.356c.306-.105.622-.158.949-.158.49 0 .86.1 1.107.3.248.196.372.552.372 1.068v1.882c0 .111.023.174.07.19.053.016.17-.002.349-.055v.561c-.08.037-.18.069-.3.095a1.44 1.44 0 01-.38.047.753.753 0 01-.38-.079.488.488 0 01-.182-.284c-.132.11-.284.198-.459.26a2.08 2.08 0 01-.545.104zm-.015-.775c.295-.011.538-.069.728-.174.195-.106.287-.256.276-.451-.005-.127-.07-.214-.197-.261a1.096 1.096 0 00-.459-.055 1.075 1.075 0 00-.64.197c-.17.121-.25.259-.246.412.01.237.19.347.538.332zm2.991.719v-3.985h.893l1.084 1.605 1.075-1.605h.893v3.985h-.885v-2.657l-.838 1.313h-.498l-.83-1.313v2.657h-.894zm4.919 0v-3.985h.893v2.562l1.613-2.562h.886v3.985h-.893v-2.538l-1.606 2.538h-.893zm4.363 1.558v-5.535h.775l.047.427a1.307 1.307 0 011.06-.522 1.8 1.8 0 01.94.245c.28.163.499.403.657.72.158.31.237.695.237 1.154 0 .432-.079.801-.237 1.107-.158.3-.377.533-.656.696a1.848 1.848 0 01-.941.237c-.195 0-.377-.037-.546-.11a1.413 1.413 0 01-.443-.325v1.906h-.893zm1.85-2.277c.28 0 .511-.106.696-.317.184-.21.277-.516.277-.917 0-.443-.093-.77-.277-.98a.877.877 0 00-.696-.325.877.877 0 00-.696.324c-.184.217-.276.56-.276 1.028 0 .38.092.673.276.878a.895.895 0 00.696.309zm7.249.846c-.501 0-.95-.119-1.345-.356a2.455 2.455 0 01-.917-1.004c-.221-.438-.332-.95-.332-1.535 0-.59.11-1.101.332-1.534a2.444 2.444 0 012.262-1.375 2.444 2.444 0 012.246 1.376c.226.432.34.943.34 1.534 0 .585-.114 1.096-.34 1.534a2.455 2.455 0 01-.918 1.004 2.48 2.48 0 01-1.328.356zm0-.886c.332 0 .62-.082.862-.245.242-.169.43-.403.561-.704a2.57 2.57 0 00.206-1.06 2.54 2.54 0 00-.206-1.06 1.572 1.572 0 00-.561-.703 1.471 1.471 0 00-.862-.253c-.327 0-.614.084-.862.253-.248.163-.44.398-.578.704-.131.3-.197.654-.197 1.06 0 .4.066.753.197 1.06.138.3.33.534.578.703.247.163.535.245.862.245zm3.349.759v-3.985h.894l1.083 1.605 1.075-1.605h.894v3.985h-.886v-2.657l-.838 1.313H40.8l-.83-1.313v2.657h-.894zm6.169.056c-.412.015-.752-.074-1.02-.27-.264-.194-.396-.476-.396-.846 0-.268.082-.498.245-.687.164-.19.375-.338.633-.443.258-.11.524-.169.798-.174a1.17 1.17 0 01.712.166v-.467c0-.247-.053-.408-.158-.482-.105-.074-.26-.11-.466-.11-.222 0-.457.039-.704.118a2.237 2.237 0 00-.625.308l-.403-.688a3.49 3.49 0 01.783-.356c.305-.105.622-.158.949-.158.49 0 .859.1 1.107.3.247.196.371.552.371 1.068v1.882c0 .111.024.174.071.19.053.016.17-.002.348-.055v.561a1.418 1.418 0 01-.3.095 1.44 1.44 0 01-.38.047.753.753 0 01-.38-.079.489.489 0 01-.181-.284c-.132.11-.285.198-.459.26a2.081 2.081 0 01-.545.104zm-.016-.775c.295-.011.538-.069.727-.174.195-.106.288-.256.277-.451-.005-.127-.071-.214-.198-.261a1.095 1.095 0 00-.458-.055 1.075 1.075 0 00-.64.197c-.17.121-.251.259-.246.412.01.237.19.347.538.332zm2.991 2.277v-5.535h.774l.048.427c.131-.169.287-.298.466-.388.18-.09.377-.134.593-.134.354 0 .667.082.941.245.28.163.498.403.657.72.158.31.237.695.237 1.154 0 .432-.08.801-.237 1.107-.159.3-.377.533-.657.696a1.848 1.848 0 01-.94.237c-.196 0-.378-.037-.546-.11a1.412 1.412 0 01-.443-.325v1.906h-.894zm1.85-2.277a.887.887 0 00.696-.317c.184-.21.276-.516.276-.917 0-.443-.092-.77-.276-.98a.877.877 0 00-.696-.325.877.877 0 00-.696.324c-.185.217-.277.56-.277 1.028 0 .38.092.673.277.878a.895.895 0 00.696.309zm4.273.807c-.348 0-.662-.085-.941-.254a1.884 1.884 0 01-.657-.72 2.36 2.36 0 01-.237-1.083c0-.411.08-.772.237-1.083.164-.311.383-.551.657-.72.28-.174.593-.26.94-.26.36 0 .675.086.95.26.28.169.498.409.656.72.158.31.237.672.237 1.083 0 .411-.079.772-.237 1.084a1.805 1.805 0 01-.656.72c-.275.168-.59.252-.95.252zm0-.84a.84.84 0 00.68-.315c.18-.211.269-.512.269-.902s-.09-.69-.27-.901a.832.832 0 00-.68-.325.824.824 0 00-.671.325c-.174.21-.261.511-.261.901s.087.69.26.902c.175.21.399.316.673.316zm2.61.752v-3.985h1.827c.474 0 .833.087 1.075.26.243.175.364.46.364.855 0 .19-.047.36-.142.514a.633.633 0 01-.364.3.872.872 0 01.49.324.916.916 0 01.206.61c0 .384-.108.669-.324.853-.211.18-.593.27-1.147.27h-1.985zm.886-.775h1.012c.248 0 .416-.034.506-.103.09-.073.135-.184.135-.332 0-.163-.05-.277-.15-.34-.096-.063-.26-.095-.491-.095h-1.012v.87zm0-1.645h.917c.2 0 .343-.031.427-.095.084-.063.127-.166.127-.308s-.045-.242-.135-.3c-.09-.058-.237-.087-.443-.087h-.893v.79zm3.539 2.42v-3.985h.894v2.562l1.613-2.562h.885v3.985h-.893v-2.538l-1.605 2.538h-.894zm6.538 0v-1.447a2.191 2.191 0 01-.902.198c-.464 0-.793-.082-.988-.245-.19-.17-.285-.456-.285-.862v-1.63h.894v1.527c0 .148.036.25.11.308.08.053.211.08.396.08a2.547 2.547 0 00.775-.12v-1.794h.893v3.985h-.893zm3.756 0l1.827-2.886-1.7-2.65h1.083l1.107 1.82 1.099-1.82h1.091l-1.692 2.65 1.827 2.886h-1.092l-1.233-2.056-1.234 2.056h-1.083zm6.369.056c-.411.015-.751-.074-1.02-.27-.264-.194-.395-.476-.395-.846 0-.268.081-.498.245-.687.163-.19.374-.338.632-.443.259-.11.525-.169.799-.174a1.17 1.17 0 01.712.166v-.467c0-.247-.053-.408-.158-.482-.106-.074-.261-.11-.467-.11-.221 0-.456.039-.704.118-.242.079-.45.182-.624.308l-.404-.688a3.49 3.49 0 01.783-.356 2.89 2.89 0 01.949-.158c.49 0 .86.1 1.107.3.248.196.372.552.372 1.068v1.882c0 .111.023.174.07.19.054.016.17-.002.349-.055v.561a1.45 1.45 0 01-.3.095 1.44 1.44 0 01-.38.047.753.753 0 01-.38-.079.489.489 0 01-.182-.284c-.132.11-.284.198-.458.26a2.081 2.081 0 01-.546.104zm-.016-.775c.295-.011.538-.069.728-.174.195-.106.287-.256.276-.451-.005-.127-.07-.214-.197-.261a1.095 1.095 0 00-.459-.055 1.075 1.075 0 00-.64.197c-.169.121-.25.259-.246.412.011.237.19.347.538.332zm4.434.807c-.37 0-.683-.088-.941-.262a1.768 1.768 0 01-.601-.735 3.037 3.037 0 01-.246-1.1c-.031-.722.003-1.315.103-1.779.106-.463.282-.817.53-1.06.285-.294.672-.453 1.162-.474.264-.01.438-.05.522-.118.085-.069.127-.177.127-.325h.901c0 .217-.04.406-.118.57-.08.158-.23.285-.45.38-.222.094-.55.16-.981.197-.153.005-.29.034-.412.087a.945.945 0 00-.3.214c-.1.105-.177.237-.23.395a1.88 1.88 0 00-.094.506c.09-.19.226-.345.41-.466.19-.127.407-.19.65-.19.547 0 .977.187 1.288.561.317.375.475.875.475 1.503 0 .416-.074.782-.222 1.099a1.724 1.724 0 01-.617.735 1.717 1.717 0 01-.956.261zm0-.807c.3 0 .524-.114.672-.34.147-.232.221-.549.221-.95 0-.405-.074-.722-.221-.948-.148-.227-.372-.34-.672-.34a.76.76 0 00-.657.355c-.163.238-.245.549-.245.934 0 .4.077.717.23.948.152.227.376.34.672.34zm2.565.719v-3.985h.893v2.562l1.613-2.562h.886v3.985h-.894v-2.538l-1.605 2.538h-.893zm5.96.088c-.369 0-.683-.088-.941-.262a1.768 1.768 0 01-.601-.735 3.037 3.037 0 01-.245-1.1c-.032-.722.002-1.315.103-1.779.105-.463.282-.817.53-1.06.284-.294.672-.453 1.162-.474.263-.01.438-.05.522-.118.084-.069.126-.177.126-.325h.902c0 .217-.04.406-.119.57-.079.158-.23.285-.45.38-.222.094-.549.16-.981.197-.153.005-.29.034-.411.087a.946.946 0 00-.3.214c-.1.105-.177.237-.23.395a1.88 1.88 0 00-.095.506c.09-.19.227-.345.411-.466.19-.127.406-.19.649-.19.548 0 .978.187 1.289.561.316.375.474.875.474 1.503 0 .416-.074.782-.221 1.099a1.724 1.724 0 01-.617.735 1.723 1.723 0 01-.957.261zm0-.807c.3 0 .525-.114.672-.34.148-.232.222-.549.222-.95 0-.405-.074-.722-.222-.948-.147-.227-.372-.34-.672-.34a.76.76 0 00-.656.355c-.164.238-.245.549-.245.934 0 .4.076.717.229.948.153.227.377.34.672.34zM7.888 35.003v-5.535h.925v4l2.641-4h.886v5.535h-.934v-3.914l-2.601 3.914h-.917zm5.164 1.027v-1.802h.348c.142-.216.256-.44.34-.672.09-.237.153-.501.19-.791.042-.29.063-.627.063-1.012v-.736h2.863v3.21h.442v1.804h-.759v-1.028h-2.72v1.028h-.767zm1.297-1.802h1.605v-2.436H14.88a7.51 7.51 0 01-.135 1.313c-.079.39-.21.764-.395 1.123zm5.251.862c-.553 0-1-.172-1.344-.514-.342-.348-.514-.86-.514-1.534 0-.427.077-.794.23-1.1.153-.31.366-.548.64-.711.275-.169.588-.253.941-.253.354 0 .654.09.902.269.248.174.437.413.57.72.131.3.197.642.197 1.027v.214H18.62c.021.39.121.67.3.838.18.163.412.245.697.245.247 0 .45-.06.608-.182a1.55 1.55 0 00.412-.553l.656.466c-.195.38-.435.654-.72.823a1.892 1.892 0 01-.972.245zm-.94-2.602h1.684c-.042-.248-.134-.44-.277-.577a.717.717 0 00-.53-.206.875.875 0 00-.577.19c-.147.127-.248.324-.3.593zm3.404 2.515v-3.986h.893v1.519h1.408v-1.519h.878v3.986h-.878v-1.7h-1.407v1.7h-.894zm5.459 0v-3.21h-1.305v-.776h3.512v.775h-1.313v3.21h-.894zm3.182 0v-3.986h.894v2.562l1.613-2.562h.885v3.986h-.893v-2.538l-1.605 2.538h-.894zm6.72 1.526V34.52c-.053.159-.174.293-.364.404a1.1 1.1 0 01-.57.166c-.29 0-.558-.077-.806-.23a1.727 1.727 0 01-.593-.695c-.148-.311-.221-.696-.221-1.155 0-.459.073-.843.22-1.154.154-.311.352-.543.594-.696.248-.158.517-.238.807-.238.195 0 .384.058.569.174.19.111.311.246.364.404v-2.064h.885V31.5a.808.808 0 01.356-.404 1.06 1.06 0 01.57-.174c.295 0 .564.08.806.238.248.153.446.385.593.696.153.31.23.695.23 1.154 0 .459-.077.844-.23 1.155a1.65 1.65 0 01-.593.696 1.486 1.486 0 01-.806.229c-.195 0-.385-.056-.57-.166a.808.808 0 01-.356-.404v2.009h-.885zm-.807-2.285a.68.68 0 00.585-.3c.148-.206.222-.517.222-.934 0-.422-.074-.73-.222-.925a.68.68 0 00-.585-.3c-.559 0-.838.408-.838 1.225 0 .823.28 1.234.838 1.234zm2.499 0c.553 0 .83-.411.83-1.234 0-.817-.277-1.226-.83-1.226-.243 0-.438.1-.585.3-.148.196-.222.504-.222.926 0 .417.074.728.222.933.147.2.342.3.585.3zm2.515.759v-3.986h.894v2.562l1.613-2.562h.886v3.986h-.894v-2.538l-1.605 2.538h-.894zm4.363 0v-3.986h.894v1.558a.52.52 0 00.284-.142.963.963 0 00.182-.34c.1-.306.2-.535.3-.688a.756.756 0 01.357-.309 1.51 1.51 0 01.53-.079h.474v.767h-.403a.73.73 0 00-.23.032.362.362 0 00-.166.15 2.53 2.53 0 00-.166.38.71.71 0 01-.237.364c-.1.079-.232.145-.395.197.168.027.313.082.434.166.122.085.23.209.325.372.031.047.079.127.142.237l.285.475c.126.205.298.487.514.846h-.989l-.672-1.194a.921.921 0 00-.237-.293.742.742 0 00-.332-.134v1.62h-.894zm4.855.055c-.41.016-.75-.074-1.02-.269-.263-.195-.395-.477-.395-.846 0-.269.082-.498.246-.688.163-.19.374-.337.632-.443.258-.11.525-.168.799-.174a1.17 1.17 0 01.712.166v-.466c0-.248-.053-.409-.159-.482-.105-.074-.26-.111-.466-.111-.221 0-.456.04-.704.118-.242.08-.45.182-.625.309l-.403-.688c.216-.137.477-.256.783-.356.306-.105.622-.158.949-.158.49 0 .86.1 1.107.3.248.195.372.551.372 1.068v1.882c0 .11.023.174.07.19.053.016.17-.003.349-.056v.562a1.52 1.52 0 01-.3.095 1.437 1.437 0 01-.38.047.754.754 0 01-.38-.079.489.489 0 01-.182-.285 1.493 1.493 0 01-.458.261 2.085 2.085 0 01-.546.103zm-.015-.775c.295-.01.538-.068.728-.174.195-.105.287-.255.276-.45-.005-.127-.07-.214-.197-.261a1.095 1.095 0 00-.459-.056 1.077 1.077 0 00-.64.198c-.17.121-.25.258-.246.411.01.237.19.348.538.332zm4.295.72v-3.21h-1.304v-.776h3.51v.775h-1.312v3.21h-.894zm4.263.087c-.348 0-.662-.085-.94-.253a1.885 1.885 0 01-.657-.72 2.359 2.359 0 01-.237-1.083c0-.411.079-.773.237-1.083.163-.312.382-.551.656-.72.28-.174.593-.261.941-.261.359 0 .675.087.949.26.28.17.498.41.656.72.159.311.238.673.238 1.084 0 .411-.08.772-.238 1.083a1.807 1.807 0 01-.656.72c-.274.168-.59.253-.949.253zm0-.838a.84.84 0 00.68-.317c.18-.21.269-.511.269-.901s-.09-.69-.269-.902a.832.832 0 00-.68-.324.824.824 0 00-.672.324c-.174.211-.261.512-.261.902s.087.69.261.901a.832.832 0 00.672.317zm2.611 2.308v-5.535h.774l.048.427a1.305 1.305 0 011.059-.522c.354 0 .667.082.941.245.28.164.499.404.657.72.158.311.237.696.237 1.155 0 .432-.079.8-.237 1.107-.158.3-.377.532-.657.696a1.85 1.85 0 01-.94.237c-.196 0-.377-.037-.546-.11a1.415 1.415 0 01-.443-.325v1.906h-.893zm1.85-2.277c.28 0 .511-.105.696-.316.184-.21.276-.517.276-.917 0-.443-.092-.77-.276-.98a.877.877 0 00-.696-.325.877.877 0 00-.696.324c-.184.216-.277.559-.277 1.028 0 .38.093.672.277.878a.895.895 0 00.696.308zm3.174.807a.597.597 0 110-1.194c.163 0 .303.058.419.174a.568.568 0 01.182.427c0 .163-.06.303-.182.419a.571.571 0 01-.42.174zm0-2.8a.597.597 0 01-.601-.593.598.598 0 01.601-.593c.163 0 .303.058.419.174.121.111.182.25.182.42 0 .163-.06.303-.182.419a.571.571 0 01-.42.174zm3.796 2.713v-5.535h3.764v.846h-2.854v1.439h2.61v.854h-2.61v2.396h-.91zm5.982.079c-.227 0-.446-.037-.657-.11a1.387 1.387 0 01-.553-.404c-.164-.195-.29-.467-.38-.815-.09-.353-.129-.806-.118-1.36.015-1.044.184-1.805.506-2.285.321-.485.777-.727 1.368-.727.279 0 .545.076.798.229.253.147.454.332.601.553l-.632.49a1.14 1.14 0 00-.333-.355.742.742 0 00-.434-.127c-.354 0-.617.164-.791.49-.169.327-.258.812-.269 1.456a.887.887 0 01.38-.309c.168-.079.337-.119.506-.119.295 0 .558.07.79.206.232.132.414.322.546.57.137.242.206.532.206.87 0 .337-.064.637-.19.9a1.516 1.516 0 01-.538.626 1.445 1.445 0 01-.806.22zm-.056-.807a.626.626 0 00.538-.26c.132-.175.198-.401.198-.68 0-.264-.066-.475-.198-.633a.608.608 0 00-.506-.245c-.243 0-.432.081-.57.245-.137.163-.2.377-.19.64.011.3.08.533.206.696.127.158.3.237.522.237zm2.476.728v-5.535h3.764v.846h-2.855v1.439h2.61v.854h-2.61v2.396h-.909zm3.525 0l2.112-5.535h.806l2.112 5.535h-1.036l-.427-1.218H84.19l-.427 1.218H82.75zm1.74-2.064h1.534l-.759-2.159-.775 2.159zm5.379 2.143a1.7 1.7 0 01-.862-.214 1.528 1.528 0 01-.585-.6 1.878 1.878 0 01-.205-.894c0-.28.07-.533.213-.76a1.5 1.5 0 01.538-.521 1.497 1.497 0 01-.443-.467 1.305 1.305 0 01-.174-.68c0-.31.063-.582.19-.814a1.43 1.43 0 01.538-.554c.231-.132.495-.197.79-.197.3 0 .564.065.791.197.232.132.411.317.538.554.132.232.198.503.198.814 0 .258-.061.485-.182.68a1.58 1.58 0 01-.427.467c.21.116.387.29.53.522a1.4 1.4 0 01.213.759c0 .343-.071.643-.214.901a1.536 1.536 0 01-.585.593 1.7 1.7 0 01-.862.214zm0-.807c.264 0 .464-.073.601-.221.143-.153.214-.382.214-.688 0-.285-.071-.509-.214-.672-.137-.169-.337-.253-.6-.253-.259 0-.46.084-.602.253-.137.163-.205.387-.205.672 0 .606.269.91.806.91zm0-2.506c.222 0 .388-.072.498-.214.117-.142.175-.343.175-.6 0-.26-.064-.452-.19-.578a.653.653 0 00-.483-.19.653.653 0 00-.482.19c-.127.126-.19.319-.19.577 0 .258.056.459.166.601.116.142.285.214.506.214zm2.569 3.234v-5.535h3.764v.846h-2.855v1.439h2.61v.854h-2.61v2.396h-.91z" fill="#2B23CD"/><path d="M97.104 35.13c-.421 0-.764-.077-1.028-.23a1.391 1.391 0 01-.577-.664 2.605 2.605 0 01-.174-.989h.91c0 .343.073.593.221.752.148.158.364.237.648.237.285 0 .499-.08.641-.237.142-.159.213-.409.213-.752v-3.78h.926v3.78c0 .375-.061.704-.182.989a1.391 1.391 0 01-.578.664c-.258.153-.598.23-1.02.23zm2.826-.127v-5.535h3.763v.846h-2.854v1.439h2.609v.854h-2.609v2.396h-.91z" fill="#2B23CD"/><path d="M104.595 35.13c-.422 0-.764-.077-1.028-.23a1.387 1.387 0 01-.577-.664 2.605 2.605 0 01-.174-.989h.909c0 .343.074.593.222.752.147.158.363.237.648.237.285 0 .498-.08.641-.237.142-.159.213-.409.213-.752v-3.78h.925v3.78c0 .375-.06.704-.182.989a1.387 1.387 0 01-.577.664c-.258.153-.598.23-1.02.23zm5.142 0a2.56 2.56 0 01-1.344-.357 2.461 2.461 0 01-.918-1.004c-.221-.437-.332-.949-.332-1.534 0-.59.111-1.102.332-1.534a2.45 2.45 0 01.918-1.012 2.517 2.517 0 011.344-.364c.464 0 .88.103 1.249.309.369.205.667.492.894.861l-.815.475a1.602 1.602 0 00-.561-.554 1.47 1.47 0 00-.767-.197c-.327 0-.614.084-.862.253a1.6 1.6 0 00-.577.703 2.621 2.621 0 00-.198 1.06c0 .4.066.754.198 1.06.137.3.329.535.577.704.248.163.535.245.862.245.29 0 .546-.066.767-.198.227-.132.414-.316.561-.553l.815.474a2.438 2.438 0 01-.894.854 2.521 2.521 0 01-1.249.308zm4.427-.048c-.421 0-.751-.105-.988-.316-.237-.211-.406-.528-.506-.95-.095-.421-.143-.948-.143-1.58 0-.633.048-1.16.143-1.582.1-.427.269-.746.506-.957.237-.211.567-.316.988-.316.422 0 .749.105.981.316.237.21.403.53.498.957.1.421.15.948.15 1.581s-.05 1.16-.15 1.582c-.095.421-.261.738-.498.949-.232.21-.559.316-.981.316zm0-.807c.195 0 .348-.06.459-.182.116-.126.2-.337.253-.632.053-.295.079-.704.079-1.226 0-.527-.026-.938-.079-1.233-.053-.296-.137-.504-.253-.625a.579.579 0 00-.459-.19.6.6 0 00-.466.19c-.116.121-.201.33-.253.625-.048.295-.072.706-.072 1.233 0 .522.024.93.072 1.226.052.295.137.506.253.632a.614.614 0 00.466.182zm4.831.855c-.5 0-.946-.12-1.336-.357a2.469 2.469 0 01-.909-1.004c-.216-.437-.325-.949-.325-1.534 0-.59.109-1.102.325-1.534.221-.438.524-.775.909-1.012a2.48 2.48 0 011.336-.364c.412 0 .789.074 1.131.222.348.142.635.326.862.553l-.577.712a1.785 1.785 0 00-.617-.427 1.937 1.937 0 00-.799-.166c-.332 0-.619.084-.861.253a1.645 1.645 0 00-.554.711c-.132.3-.198.651-.198 1.052 0 .395.066.746.198 1.052.132.3.316.535.554.704.242.168.529.253.861.253.248 0 .454-.024.617-.072.169-.052.317-.115.443-.19v-1.185h-.909v-.854h1.834v2.64a2.978 2.978 0 01-.885.404 4.106 4.106 0 01-1.1.142zm2.982-.127v-5.535h.909v4.689h2.886v.846h-3.795zm4.509 0v-5.535h1.78c.553 0 1.03.102 1.431.308.406.206.717.514.933.925.221.411.332.923.332 1.534 0 .606-.111 1.115-.332 1.526a2.154 2.154 0 01-.933.933c-.401.206-.878.309-1.431.309h-1.78zm.91-.846h.798c.57 0 1.013-.164 1.329-.49.321-.333.482-.81.482-1.432 0-.627-.161-1.104-.482-1.431-.316-.327-.759-.49-1.329-.49h-.798v3.843zm5.399.925a1.55 1.55 0 01-.79-.221 1.861 1.861 0 01-.601-.562l.632-.482c.095.147.203.266.325.355a.762.762 0 00.434.127c.359 0 .622-.163.791-.49.169-.332.259-.82.269-1.463a.943.943 0 01-.38.316c-.163.074-.329.11-.498.11-.295 0-.561-.065-.798-.197a1.512 1.512 0 01-.554-.57 1.84 1.84 0 01-.198-.877c0-.343.064-.643.19-.901a1.46 1.46 0 011.345-.847c.231 0 .45.04.656.12.211.073.395.207.553.402.164.19.29.462.38.815.095.353.137.806.126 1.36-.021 1.038-.192 1.8-.514 2.285-.316.48-.772.72-1.368.72zm.19-3.068c.248 0 .44-.082.577-.245.138-.17.201-.385.19-.649-.01-.3-.081-.53-.213-.688a.625.625 0 00-.522-.245.64.64 0 00-.538.261c-.126.174-.19.4-.19.68 0 .264.064.477.19.64a.623.623 0 00.506.246zm4.923 3.116a2.56 2.56 0 01-1.344-.357 2.455 2.455 0 01-.918-1.004c-.221-.437-.332-.949-.332-1.534 0-.59.111-1.102.332-1.534a2.44 2.44 0 01.918-1.012 2.517 2.517 0 011.344-.364c.464 0 .88.103 1.249.309.369.205.667.492.894.861l-.815.475a1.602 1.602 0 00-.561-.554 1.472 1.472 0 00-.767-.197c-.327 0-.614.084-.862.253a1.6 1.6 0 00-.577.703 2.621 2.621 0 00-.198 1.06c0 .4.066.754.198 1.06.137.3.329.535.577.704.248.163.535.245.862.245.29 0 .545-.066.767-.198.227-.132.414-.316.561-.553l.815.474a2.438 2.438 0 01-.894.854 2.521 2.521 0 01-1.249.308zm3.984-.048a1.55 1.55 0 01-.79-.221 1.851 1.851 0 01-.601-.562l.632-.482c.095.147.203.266.324.355a.768.768 0 00.435.127c.359 0 .622-.163.791-.49.169-.332.258-.82.269-1.463a.943.943 0 01-.38.316c-.163.074-.329.11-.498.11a1.62 1.62 0 01-.799-.197 1.517 1.517 0 01-.553-.57 1.84 1.84 0 01-.198-.877c0-.343.064-.643.19-.901a1.46 1.46 0 011.344-.847c.232 0 .451.04.657.12.211.073.395.207.553.402.164.19.29.462.38.815.095.353.137.806.126 1.36-.021 1.038-.192 1.8-.514 2.285-.316.48-.772.72-1.368.72zm.19-3.068c.248 0 .44-.082.577-.245.137-.17.201-.385.19-.649-.01-.3-.082-.53-.213-.688a.625.625 0 00-.522-.245.64.64 0 00-.538.261c-.127.174-.19.4-.19.68 0 .264.063.477.19.64a.62.62 0 00.506.246zm4.923 3.116c-.501 0-.949-.12-1.345-.357a2.46 2.46 0 01-.917-1.004c-.221-.437-.332-.949-.332-1.534 0-.59.111-1.102.332-1.534.222-.438.527-.775.917-1.012a2.523 2.523 0 011.345-.364c.464 0 .88.103 1.249.309.369.205.667.492.894.861l-.815.475a1.61 1.61 0 00-.561-.554 1.472 1.472 0 00-.767-.197c-.327 0-.614.084-.862.253-.248.163-.44.398-.578.703a2.638 2.638 0 00-.197 1.06c0 .4.066.754.197 1.06.138.3.33.535.578.704.248.163.535.245.862.245.29 0 .545-.066.767-.198a1.61 1.61 0 00.561-.553l.815.474a2.438 2.438 0 01-.894.854 2.521 2.521 0 01-1.249.308zm2.996-.127v-5.535h.909v2.403l2.072-2.403h1.146l-2.245 2.577 2.293 2.958h-1.17l-2.096-2.831v2.83h-.909zm4.826 0v-5.535h1.779c.554 0 1.031.102 1.432.308.405.206.717.514.933.925.221.411.332.923.332 1.534 0 .606-.111 1.115-.332 1.526a2.16 2.16 0 01-.933.933c-.401.206-.878.309-1.432.309h-1.779zm.909-.846h.799c.569 0 1.012-.164 1.329-.49.321-.333.482-.81.482-1.432 0-.627-.161-1.104-.482-1.431-.317-.327-.76-.49-1.329-.49h-.799v3.843zm4.412.846v-5.535h.909v4.689h2.886v.846h-3.795zm5.704.047c-.333 0-.641-.081-.926-.245a1.834 1.834 0 01-.672-.656l.712-.45c.105.163.229.294.372.394.147.1.319.15.514.15.295 0 .516-.086.664-.26.153-.18.229-.427.229-.744 0-.342-.066-.59-.198-.743-.126-.158-.305-.237-.537-.237a.813.813 0 00-.396.095.559.559 0 00-.253.284h-.783v-3.17h2.816v.774h-1.969v1.455c.089-.063.187-.113.292-.15a.848.848 0 01.316-.063c.296 0 .559.066.791.198.237.131.425.326.562.585.142.258.213.582.213.972 0 .575-.161 1.02-.482 1.337-.322.316-.744.474-1.265.474zm3.508.032a1.55 1.55 0 01-.79-.221 1.861 1.861 0 01-.601-.562l.632-.482c.095.147.203.266.324.355a.768.768 0 00.435.127c.359 0 .622-.163.791-.49.169-.332.258-.82.269-1.463a.943.943 0 01-.38.316c-.163.074-.329.11-.498.11-.295 0-.561-.065-.798-.197a1.512 1.512 0 01-.554-.57 1.84 1.84 0 01-.198-.877c0-.343.064-.643.19-.901a1.46 1.46 0 011.344-.847c.232 0 .451.04.657.12.211.073.395.207.553.402.164.19.29.462.38.815.095.353.137.806.126 1.36-.021 1.038-.192 1.8-.514 2.285-.316.48-.772.72-1.368.72zm.19-3.068c.248 0 .44-.082.577-.245.137-.17.201-.385.19-.649-.01-.3-.081-.53-.213-.688a.625.625 0 00-.522-.245.64.64 0 00-.538.261c-.126.174-.19.4-.19.68 0 .264.064.477.19.64a.623.623 0 00.506.246zm2.606 2.989v-5.535h3.764v.846h-2.855v1.439h2.61v.854h-2.61v2.396h-.909zm5.349 0v-4.46l-.965.633-.451-.72 1.613-.996h.649v5.543h-.846zm3.868.079c-.227 0-.446-.037-.656-.11a1.383 1.383 0 01-.554-.404c-.163-.195-.29-.467-.38-.815-.089-.353-.129-.806-.118-1.36.016-1.044.184-1.805.506-2.285.321-.485.777-.727 1.368-.727.279 0 .546.076.799.229.253.147.453.332.601.553l-.633.49a1.148 1.148 0 00-.332-.355.741.741 0 00-.435-.127c-.353 0-.617.164-.791.49-.169.327-.258.812-.269 1.456a.887.887 0 01.38-.309c.169-.079.337-.119.506-.119.295 0 .559.07.791.206.232.132.414.322.545.57.137.242.206.532.206.87 0 .337-.063.637-.19.9a1.513 1.513 0 01-.538.626 1.442 1.442 0 01-.806.22zm-.055-.807a.625.625 0 00.537-.26c.132-.175.198-.401.198-.68 0-.264-.066-.475-.198-.633a.607.607 0 00-.506-.245c-.242 0-.432.081-.569.245-.137.163-.201.377-.19.64.011.3.079.533.206.696a.63.63 0 00.522.237zm2.475.728v-5.535h.91v2.403l2.072-2.403h1.146l-2.246 2.577 2.294 2.958h-1.171l-2.095-2.831v2.83h-.91zm6.726.127c-.501 0-.946-.12-1.336-.357a2.478 2.478 0 01-.91-1.004c-.216-.437-.324-.949-.324-1.534 0-.59.108-1.102.324-1.534.222-.438.525-.775.91-1.012.39-.243.835-.364 1.336-.364.411 0 .788.074 1.131.222.348.142.635.326.862.553l-.577.712a1.795 1.795 0 00-.617-.427 1.937 1.937 0 00-.799-.166 1.47 1.47 0 00-.862.253 1.643 1.643 0 00-.553.711c-.132.3-.198.651-.198 1.052 0 .395.066.746.198 1.052.131.3.316.535.553.704.243.168.53.253.862.253.248 0 .453-.024.617-.072.169-.052.316-.115.443-.19v-1.185h-.91v-.854h1.835v2.64a2.996 2.996 0 01-.886.404 4.099 4.099 0 01-1.099.142zm2.981-.127v-5.535h3.764v.846h-2.854v1.439h2.609v.854h-2.609v2.396h-.91zm4.479 0v-5.535h.91v2.403l2.071-2.403h1.147l-2.246 2.577 2.293 2.958h-1.17l-2.095-2.831v2.83h-.91zm4.344 0l2.112-5.535h.806l2.111 5.535h-1.035l-.427-1.218h-2.128l-.427 1.218h-1.012zm1.74-2.064h1.534l-.759-2.159-.775 2.159zm3.932 2.064v-5.535h1.779c.554 0 1.031.102 1.431.308.406.206.717.514.934.925.221.411.332.923.332 1.534 0 .606-.111 1.115-.332 1.526a2.162 2.162 0 01-.934.933c-.4.206-.877.309-1.431.309h-1.779zm.909-.846h.799c.569 0 1.012-.164 1.328-.49.322-.333.483-.81.483-1.432 0-.627-.161-1.104-.483-1.431-.316-.327-.759-.49-1.328-.49h-.799v3.843zm4.412.846v-5.535h3.764v.846h-2.855v1.439h2.609v.854h-2.609v2.396h-.909zm4.479 0v-5.535h2.53c.517 0 .925.12 1.226.363.305.243.458.651.458 1.226s-.153.986-.458 1.234c-.301.247-.709.371-1.226.371h-1.621v2.34h-.909zm.909-3.195h1.494c.269 0 .478-.058.625-.174.148-.116.222-.308.222-.577 0-.264-.074-.453-.222-.57-.147-.115-.356-.173-.625-.173h-1.494v1.494zm5.408 3.195v-4.69h-1.669v-.845h4.254v.846h-1.66v4.689h-.925zm4.513.079c-.374 0-.698-.098-.973-.293-.268-.2-.464-.493-.585-.877l.775-.261c.027.073.069.16.127.26.058.096.139.18.245.254.105.073.237.11.395.11.269 0 .483-.066.641-.197.158-.132.237-.354.237-.665 0-.279-.079-.503-.237-.672-.158-.169-.385-.253-.68-.253h-.396v-.775h.396c.263 0 .458-.076.585-.23a.898.898 0 00.19-.576c0-.264-.077-.448-.23-.554a.82.82 0 00-.506-.166.526.526 0 00-.348.119.994.994 0 00-.237.26c-.058.096-.1.18-.126.254l-.768-.309c.138-.358.338-.635.601-.83.269-.2.567-.3.894-.3.322 0 .601.063.838.19.243.12.43.292.562.513.137.222.205.483.205.783 0 .274-.074.522-.221.743a1.272 1.272 0 01-.546.475c.264.1.477.271.641.514.168.242.253.524.253.846 0 .5-.153.899-.459 1.194-.3.295-.725.443-1.273.443zm2.32-.079v-.261c0-.38.098-.749.293-1.107.2-.359.532-.76.996-1.202.164-.158.319-.316.467-.475.147-.163.269-.321.364-.474a.957.957 0 00.15-.45c.005-.275-.058-.478-.19-.61-.127-.131-.308-.197-.546-.197-.226 0-.395.081-.506.245-.11.163-.166.392-.166.688h-.838c0-.549.14-.976.419-1.281.28-.306.643-.459 1.091-.459a1.7 1.7 0 01.815.19c.242.126.432.31.569.553.137.243.201.54.19.894a1.522 1.522 0 01-.174.688c-.111.21-.258.416-.443.617a13.2 13.2 0 01-.617.624c-.242.238-.458.464-.648.68-.185.217-.293.404-.324.562h2.111v.775h-3.013zm4.241 0c.042-.28.11-.62.205-1.02.1-.4.214-.823.34-1.265a30.24 30.24 0 01.815-2.468h-2.191v-.782h3.124v.593c-.1.232-.206.51-.317.838-.11.327-.224.677-.34 1.052-.11.374-.216.748-.316 1.122-.1.375-.19.73-.269 1.068-.074.332-.132.62-.174.862h-.877zm4.386 0v-1.21h-2.167v-.648l2.175-3.701h.791v3.606h.775v.743h-.775v1.21h-.799zm-1.32-1.953h1.32v-2.262l-1.32 2.262zm4.532 2.032c-.274 0-.538-.074-.791-.221a1.861 1.861 0 01-.601-.562l.633-.482c.095.147.203.266.324.355a.763.763 0 00.435.127c.358 0 .622-.163.791-.49.168-.332.258-.82.268-1.463a.94.94 0 01-.379.316 1.2 1.2 0 01-.498.11c-.296 0-.562-.065-.799-.197a1.52 1.52 0 01-.554-.57 1.852 1.852 0 01-.197-.877c0-.343.063-.643.19-.901a1.457 1.457 0 011.344-.846c.232 0 .451.039.656.118.211.074.396.208.554.403.163.19.29.462.379.815.095.353.137.806.127 1.36-.021 1.038-.193 1.8-.514 2.285-.317.48-.772.72-1.368.72zm.19-3.068c.247 0 .44-.082.577-.245.137-.17.2-.385.19-.649-.011-.3-.082-.53-.214-.688a.623.623 0 00-.522-.245.64.64 0 00-.538.261c-.126.174-.189.4-.189.68 0 .264.063.477.189.64a.623.623 0 00.507.246zm4.052 3.068a1.7 1.7 0 01-.862-.214 1.538 1.538 0 01-.585-.6 1.879 1.879 0 01-.205-.894c0-.28.071-.533.213-.76a1.5 1.5 0 01.538-.521 1.502 1.502 0 01-.443-.467 1.305 1.305 0 01-.174-.68c0-.31.063-.582.19-.814a1.43 1.43 0 01.538-.554 1.57 1.57 0 01.79-.197c.301 0 .564.065.791.197.232.132.411.317.538.554.132.232.197.503.197.814 0 .258-.06.485-.181.68a1.59 1.59 0 01-.427.467c.21.116.387.29.529.522.143.226.214.48.214.759 0 .343-.071.643-.214.901a1.536 1.536 0 01-.585.593 1.7 1.7 0 01-.862.214zm0-.807c.264 0 .464-.073.601-.221.143-.153.214-.382.214-.688 0-.285-.071-.509-.214-.672-.137-.169-.337-.253-.601-.253-.258 0-.458.084-.601.253-.137.163-.205.387-.205.672 0 .606.269.91.806.91zm0-2.506c.222 0 .388-.072.499-.214.115-.142.173-.343.173-.6 0-.26-.063-.452-.189-.578a.656.656 0 00-.483-.19.653.653 0 00-.482.19c-.127.126-.19.319-.19.577 0 .258.056.459.166.601.116.142.285.214.506.214zm2.917 3.234c.042-.28.11-.62.205-1.02.101-.4.214-.823.34-1.265.127-.449.261-.886.404-1.313.142-.432.279-.817.411-1.155h-2.191v-.782h3.124v.593c-.1.232-.206.51-.316.838-.111.327-.224.677-.34 1.052a42.869 42.869 0 00-.586 2.19c-.073.332-.131.62-.173.862h-.878zm2.942 0v-5.535h3.764v.846h-2.855v1.439h2.609v.854h-2.609v2.396h-.909zm5.467.079c-.274 0-.538-.074-.791-.221a1.861 1.861 0 01-.601-.562l.633-.482c.095.147.203.266.324.355a.763.763 0 00.435.127c.358 0 .622-.163.791-.49.168-.332.258-.82.269-1.463a.95.95 0 01-.38.316 1.2 1.2 0 01-.498.11c-.295 0-.562-.065-.799-.197a1.51 1.51 0 01-.553-.57 1.84 1.84 0 01-.198-.877c0-.343.063-.643.19-.901a1.457 1.457 0 011.344-.846c.232 0 .451.039.656.118.211.074.396.208.554.403.163.19.29.462.379.815.095.353.137.806.127 1.36-.021 1.038-.193 1.8-.514 2.285-.316.48-.772.72-1.368.72zm.19-3.068c.247 0 .44-.082.577-.245.137-.17.2-.385.19-.649-.011-.3-.082-.53-.214-.688a.623.623 0 00-.522-.245.637.637 0 00-.537.261c-.127.174-.19.4-.19.68 0 .264.063.477.19.64a.62.62 0 00.506.246zM10.205 46.2c-.501 0-.95-.119-1.345-.356a2.455 2.455 0 01-.917-1.004c-.221-.438-.332-.949-.332-1.534 0-.59.11-1.102.332-1.534a2.444 2.444 0 012.262-1.376c.463 0 .88.103 1.249.308.369.206.667.493.894.862l-.815.475a1.61 1.61 0 00-.561-.554 1.47 1.47 0 00-.767-.198c-.327 0-.615.085-.862.253a1.61 1.61 0 00-.578.704c-.131.3-.197.654-.197 1.06 0 .4.066.754.197 1.06.137.3.33.535.578.703.247.164.535.245.862.245.29 0 .545-.066.767-.197a1.61 1.61 0 00.561-.554l.815.475a2.435 2.435 0 01-.894.854 2.523 2.523 0 01-1.25.308zm4.577-.04c-.553 0-1.002-.17-1.344-.513-.343-.349-.514-.86-.514-1.535 0-.427.076-.793.23-1.099.152-.31.366-.548.64-.712.274-.168.588-.253.94-.253.354 0 .654.09.902.27.248.173.438.413.57.719.131.3.197.643.197 1.028v.213h-2.601c.02.39.12.67.3.839.18.163.411.245.696.245.248 0 .45-.06.609-.182.158-.127.295-.311.411-.554l.656.467c-.195.38-.435.654-.72.822a1.882 1.882 0 01-.972.245zm-.94-2.601h1.683c-.042-.248-.134-.44-.276-.577a.717.717 0 00-.53-.206.875.875 0 00-.577.19c-.148.126-.248.324-.3.593zm3.403 4.072v-5.535h.775l.048.427c.131-.169.287-.298.466-.388.18-.09.377-.134.593-.134.353 0 .667.082.941.245.28.164.498.404.657.72.158.31.237.696.237 1.154 0 .433-.08.802-.237 1.107-.159.3-.377.533-.657.696a1.848 1.848 0 01-.94.237c-.196 0-.378-.036-.546-.11a1.412 1.412 0 01-.443-.325v1.906h-.894zm1.85-2.277a.89.89 0 00.697-.316c.184-.211.276-.517.276-.918 0-.442-.092-.77-.277-.98a.877.877 0 00-.695-.325.877.877 0 00-.696.325c-.185.216-.277.559-.277 1.028 0 .38.092.672.277.877a.895.895 0 00.696.309zm3.942.72v-3.211h-1.305v-.775h3.51v.775H23.93v3.21h-.893zm3.181 0v-3.986h.894v2.562l1.613-2.562h.886v3.986h-.894v-2.539l-1.605 2.539h-.893zm6.72 1.526v-2.01c-.053.158-.174.293-.364.403a1.089 1.089 0 01-.57.166c-.289 0-.558-.076-.806-.229a1.727 1.727 0 01-.593-.696c-.147-.31-.221-.696-.221-1.154 0-.459.074-.844.221-1.155.153-.31.35-.543.593-.696a1.47 1.47 0 01.807-.237c.195 0 .385.058.57.174.19.11.31.245.363.403v-2.063h.886v2.063a.808.808 0 01.355-.403 1.06 1.06 0 01.57-.174c.295 0 .564.08.806.237.248.153.446.385.593.696.153.311.23.696.23 1.155 0 .458-.077.843-.23 1.154a1.65 1.65 0 01-.593.696c-.242.153-.51.23-.806.23-.195 0-.385-.056-.57-.167a.808.808 0 01-.355-.403v2.01h-.886zm-.806-2.286a.68.68 0 00.585-.3c.147-.206.221-.517.221-.933 0-.422-.074-.73-.221-.925a.68.68 0 00-.585-.3c-.56 0-.839.408-.839 1.225 0 .822.28 1.233.839 1.233zm2.498 0c.554 0 .83-.41.83-1.233 0-.817-.276-1.226-.83-1.226-.242 0-.437.1-.585.3-.148.196-.221.504-.221.926 0 .416.074.727.221.933.148.2.343.3.585.3zm2.515.76v-3.986h.894v2.562l1.613-2.562h.886v3.986h-.894v-2.539l-1.605 2.539h-.894zm4.364 0v-3.986h.893v1.558a.52.52 0 00.285-.142.962.962 0 00.182-.34c.1-.306.2-.536.3-.689a.757.757 0 01.356-.308c.137-.053.314-.079.53-.079h.474v.767h-.403a.73.73 0 00-.23.032.364.364 0 00-.165.15 2.298 2.298 0 00-.166.38.71.71 0 01-.238.363 1.26 1.26 0 01-.395.198c.169.026.314.082.435.166s.23.208.324.372c.032.047.08.126.142.237l.285.474c.127.206.298.488.514.847h-.988l-.672-1.195a.924.924 0 00-.238-.292.744.744 0 00-.332-.135v1.622h-.893zm4.855.055c-.41.016-.75-.074-1.02-.269-.263-.195-.395-.477-.395-.846 0-.269.082-.498.245-.688a1.63 1.63 0 01.633-.443c.258-.11.524-.169.798-.174a1.172 1.172 0 01.712.166v-.466c0-.248-.053-.409-.158-.483-.106-.074-.261-.11-.467-.11-.221 0-.456.04-.704.118-.242.08-.45.182-.624.309l-.404-.688a3.49 3.49 0 01.783-.356c.306-.106.622-.158.95-.158.49 0 .858.1 1.106.3.248.195.372.551.372 1.068v1.882c0 .11.024.174.071.19.053.015.169-.003.348-.056v.562c-.079.036-.18.068-.3.094a1.44 1.44 0 01-.38.048.753.753 0 01-.38-.08.489.489 0 01-.181-.284c-.132.11-.285.198-.46.261a2.08 2.08 0 01-.545.103zm-.015-.775c.295-.01.537-.069.727-.174.195-.105.287-.256.277-.45-.006-.127-.071-.214-.198-.262a1.096 1.096 0 00-.459-.055 1.075 1.075 0 00-.64.198c-.169.12-.25.258-.245.41.01.238.19.349.538.333zm4.295.72v-3.211h-1.305v-.775h3.511v.775h-1.313v3.21h-.893zm3.719.086a.598.598 0 11.42-1.02.568.568 0 01.181.427.56.56 0 01-.182.42.57.57 0 01-.419.173zm0-2.799a.598.598 0 01-.6-.593c0-.169.057-.308.173-.419a.598.598 0 01.427-.174.57.57 0 01.42.174c.12.11.181.25.181.42 0 .163-.06.302-.182.418a.57.57 0 01-.419.174zm3.797 2.713v-5.536h.909v2.199h2.515v-2.199h.925v5.536h-.925v-2.491h-2.515v2.49h-.91zm5.467 0v-5.536h.91l1.589 2.657 1.566-2.657h.925v5.536h-.933v-3.946l-1.297 2.253h-.538l-1.305-2.253v3.946h-.917zm6.108 0v-5.536h.91v5.536h-.91zm2.379 0c.042-.28.111-.62.206-1.02a39.252 39.252 0 01.743-2.579c.142-.432.28-.817.411-1.154h-2.19v-.783h3.123v.593c-.1.232-.205.512-.316.838-.11.327-.224.678-.34 1.052-.11.374-.216.749-.316 1.123s-.19.73-.269 1.068c-.074.332-.132.619-.174.861h-.878zm4.444.079a1.97 1.97 0 01-.656-.111 1.387 1.387 0 01-.553-.403c-.164-.196-.29-.467-.38-.815-.09-.353-.13-.806-.119-1.36.016-1.044.185-1.806.507-2.285.321-.485.777-.728 1.368-.728.279 0 .545.077.798.23.253.147.454.332.601.553l-.632.49a1.142 1.142 0 00-.333-.356.743.743 0 00-.434-.126c-.354 0-.617.163-.791.49-.169.327-.259.812-.27 1.455a.887.887 0 01.38-.308c.17-.08.338-.119.507-.119.295 0 .558.069.79.206.232.132.414.321.546.57.137.242.206.532.206.869 0 .337-.064.638-.19.901a1.516 1.516 0 01-.538.625 1.445 1.445 0 01-.807.222zm-.055-.807a.626.626 0 00.538-.261c.132-.174.198-.4.198-.68 0-.264-.066-.474-.198-.633a.608.608 0 00-.506-.245c-.243 0-.433.082-.57.245-.137.164-.2.377-.19.64.011.301.08.533.206.697.127.158.3.237.522.237zm3.67.774c-.332 0-.64-.08-.925-.244a1.825 1.825 0 01-.672-.657l.711-.45c.106.163.23.295.372.395.148.1.319.15.514.15.295 0 .517-.087.664-.26.153-.18.23-.428.23-.744 0-.343-.066-.59-.198-.743-.127-.158-.306-.237-.538-.237a.813.813 0 00-.395.094.559.559 0 00-.253.285H78.9v-3.17h2.815v.774h-1.969v1.455a1.18 1.18 0 01.293-.15.848.848 0 01.316-.063c.295 0 .559.066.79.197a1.4 1.4 0 01.562.585c.142.259.214.583.214.973 0 .575-.161 1.02-.483 1.337-.321.316-.743.474-1.265.474zm2.038-.046l2.111-5.536h.807l2.111 5.536h-1.036l-.427-1.218H83.65l-.427 1.218h-1.012zm1.74-2.064h1.534l-.76-2.16-.774 2.16zm3.932 2.064v-5.536h2.53c.517 0 .925.121 1.226.364.306.242.459.651.459 1.226 0 .485-.111.854-.333 1.107-.221.247-.527.4-.917.458l1.186 2.38h-1.067l-1.068-2.34h-1.107v2.34h-.91zm.91-3.195h1.494c.268 0 .477-.058.624-.174.148-.116.222-.309.222-.577 0-.264-.074-.454-.222-.57-.147-.116-.356-.174-.624-.174h-1.495v1.495zm5.31 3.274c-.374 0-.698-.098-.973-.293-.268-.2-.463-.493-.585-.878l.775-.26c.027.073.069.16.127.26a.85.85 0 00.245.253.67.67 0 00.395.111c.27 0 .483-.066.64-.198.159-.132.238-.353.238-.664 0-.28-.08-.503-.237-.672-.158-.169-.385-.253-.68-.253h-.396v-.775h.396c.263 0 .458-.076.585-.23a.895.895 0 00.19-.577c0-.263-.077-.448-.23-.553a.821.821 0 00-.506-.166.526.526 0 00-.348.118 1.014 1.014 0 00-.237.261c-.058.095-.1.18-.126.253l-.767-.308c.137-.358.337-.635.6-.83.27-.2.567-.3.894-.3.322 0 .601.062.838.189.243.121.43.293.562.514.137.221.205.482.205.783 0 .274-.073.522-.221.743a1.276 1.276 0 01-.546.475c.264.1.477.271.64.514.17.242.254.524.254.846 0 .5-.153.898-.459 1.194-.3.295-.725.443-1.273.443zm3.649 0c-.274 0-.538-.074-.791-.222a1.862 1.862 0 01-.601-.561l.633-.483c.095.148.203.267.324.356a.767.767 0 00.435.127c.358 0 .622-.164.79-.49.17-.333.259-.82.27-1.464a.943.943 0 01-.38.317 1.2 1.2 0 01-.498.11c-.296 0-.562-.065-.799-.197a1.511 1.511 0 01-.554-.57 1.844 1.844 0 01-.197-.877c0-.343.063-.643.19-.902a1.462 1.462 0 011.344-.846c.232 0 .45.04.656.119.211.074.395.208.554.403.163.19.29.461.38.815.094.353.136.806.126 1.36-.021 1.038-.193 1.8-.514 2.285-.317.48-.773.72-1.368.72zm.19-3.069c.247 0 .44-.081.577-.245.137-.168.2-.385.19-.648-.011-.3-.082-.53-.214-.688a.624.624 0 00-.522-.245.639.639 0 00-.537.26c-.127.175-.19.401-.19.68 0 .264.063.478.19.641.131.164.3.245.505.245zm2.953 2.99c.042-.28.111-.62.206-1.02a37.74 37.74 0 01.743-2.579c.142-.432.279-.817.411-1.154h-2.19v-.783h3.123v.593c-.1.232-.205.512-.316.838a41.98 41.98 0 00-.34 1.052 42.839 42.839 0 00-.585 2.19c-.074.333-.132.62-.174.863h-.878zm4.444.079a1.97 1.97 0 01-.656-.111 1.39 1.39 0 01-.554-.403c-.163-.196-.289-.467-.379-.815-.09-.353-.129-.806-.119-1.36.016-1.044.185-1.806.506-2.285.322-.485.778-.728 1.368-.728.28 0 .546.077.799.23.253.147.453.332.601.553l-.633.49a1.126 1.126 0 00-.332-.356.742.742 0 00-.435-.126c-.353 0-.616.163-.79.49-.169.327-.259.812-.269 1.455a.884.884 0 01.379-.308c.169-.08.338-.119.506-.119.296 0 .559.069.791.206.232.132.414.321.546.57.137.242.205.532.205.869 0 .337-.063.638-.189.901a1.52 1.52 0 01-.538.625 1.447 1.447 0 01-.807.222zm-.055-.807a.627.627 0 00.538-.261c.132-.174.197-.4.197-.68 0-.264-.065-.474-.197-.633a.608.608 0 00-.506-.245c-.243 0-.433.082-.57.245-.137.164-.2.377-.189.64.01.301.079.533.205.697a.633.633 0 00.522.237zm4.476.838a2.83 2.83 0 01-1.281-.292c-.384-.196-.693-.525-.925-.989l.767-.435c.158.264.351.472.578.625.226.147.524.221.893.221s.627-.066.775-.197a.706.706 0 00.229-.554.685.685 0 00-.102-.38c-.064-.105-.201-.202-.412-.292-.205-.095-.524-.19-.956-.285-.512-.121-.891-.313-1.139-.577-.243-.264-.364-.598-.364-1.004 0-.322.077-.604.229-.846a1.6 1.6 0 01.657-.578 2.27 2.27 0 01.996-.205c.501 0 .923.11 1.265.332.343.216.604.472.783.767l-.719.553a2.507 2.507 0 00-.317-.363 1.42 1.42 0 00-.427-.293 1.35 1.35 0 00-.593-.118c-.274 0-.498.06-.672.181-.169.116-.253.293-.253.53a.72.72 0 00.071.309c.053.095.164.187.332.276.174.09.44.177.799.261.633.143 1.089.356 1.368.64.279.286.419.644.419 1.076 0 .528-.184.933-.553 1.218-.364.28-.847.42-1.448.42zm2.934-.11v-5.536h3.764v.846h-2.854v1.44h2.609v.854h-2.609v2.396h-.91zm5.349 0v-4.46l-.965.632-.45-.72 1.613-.996h.648v5.544h-.846zm3.868.079a1.97 1.97 0 01-.656-.111 1.39 1.39 0 01-.554-.403c-.163-.196-.289-.467-.379-.815-.09-.353-.129-.806-.119-1.36.016-1.044.185-1.806.506-2.285.322-.485.778-.728 1.368-.728.28 0 .546.077.799.23.253.147.453.332.601.553l-.633.49a1.126 1.126 0 00-.332-.356.742.742 0 00-.435-.126c-.353 0-.616.163-.79.49-.169.327-.259.812-.269 1.455a.884.884 0 01.379-.308c.169-.08.338-.119.506-.119.296 0 .559.069.791.206.232.132.414.321.546.57.137.242.205.532.205.869 0 .337-.063.638-.189.901a1.52 1.52 0 01-.538.625 1.447 1.447 0 01-.807.222zm-.055-.807a.627.627 0 00.538-.261c.132-.174.197-.4.197-.68 0-.264-.065-.474-.197-.633a.608.608 0 00-.506-.245c-.243 0-.433.082-.57.245-.137.164-.2.377-.189.64.01.301.079.533.205.697a.633.633 0 00.522.237zm4.524.83c-.691 0-1.218-.182-1.582-.545-.363-.37-.545-.92-.545-1.653v-3.44h.925v3.393c0 .474.105.82.316 1.035.216.211.512.317.886.317s.667-.106.878-.317c.211-.216.316-.561.316-1.035v-3.393h.917v3.44c0 .733-.179 1.284-.537 1.653-.359.363-.883.545-1.574.545zm3.172-.102v-5.536h.909v2.404l2.072-2.404h1.147l-2.246 2.578 2.293 2.958h-1.17l-2.096-2.831v2.83h-.909zm6.258.079c-.422 0-.751-.106-.989-.317-.237-.21-.406-.527-.506-.949-.095-.421-.142-.949-.142-1.581 0-.633.047-1.16.142-1.582.1-.427.269-.746.506-.956.238-.211.567-.317.989-.317.422 0 .748.106.98.316.238.211.404.53.499.957.1.422.15.95.15 1.582 0 .632-.05 1.16-.15 1.581-.095.422-.261.738-.499.95-.232.21-.558.316-.98.316zm0-.807c.195 0 .348-.06.458-.182.116-.126.201-.337.253-.633.053-.295.08-.703.08-1.225 0-.527-.027-.939-.08-1.234-.052-.295-.137-.503-.253-.625a.575.575 0 00-.458-.19.603.603 0 00-.467.19c-.116.122-.2.33-.253.625a8.295 8.295 0 00-.071 1.234c0 .522.024.93.071 1.226.053.295.137.506.253.632a.617.617 0 00.467.182zm2.538.728v-5.536h2.53c.517 0 .925.121 1.226.364.306.242.458.651.458 1.226 0 .485-.11.854-.332 1.107-.221.247-.527.4-.917.458l1.186 2.38h-1.067l-1.068-2.34h-1.107v2.34h-.909zm.909-3.195h1.495c.269 0 .477-.058.624-.174.148-.116.222-.309.222-.577 0-.264-.074-.454-.222-.57-.147-.116-.355-.174-.624-.174h-1.495v1.495zm5.604 3.274a1.7 1.7 0 01-.862-.214 1.524 1.524 0 01-.585-.6 1.868 1.868 0 01-.206-.895c0-.279.071-.532.213-.759.148-.232.327-.406.538-.522a1.503 1.503 0 01-.443-.466 1.305 1.305 0 01-.174-.68c0-.311.064-.583.19-.815a1.43 1.43 0 01.538-.553 1.57 1.57 0 01.791-.198c.3 0 .564.066.79.198.232.132.412.316.538.553.132.232.198.504.198.815 0 .258-.061.485-.182.68a1.57 1.57 0 01-.427.466c.211.116.387.29.53.522a1.4 1.4 0 01.213.76c0 .342-.071.643-.213.901-.143.253-.338.45-.585.593a1.7 1.7 0 01-.862.214zm0-.807c.263 0 .464-.074.601-.221.142-.153.213-.383.213-.688 0-.285-.071-.51-.213-.673-.137-.168-.338-.253-.601-.253-.259 0-.459.085-.601.253-.137.164-.206.388-.206.673 0 .606.269.909.807.909zm0-2.507c.221 0 .387-.07.498-.213.116-.143.174-.343.174-.601 0-.258-.063-.451-.19-.578a.654.654 0 00-.482-.19.656.656 0 00-.483.19c-.126.127-.189.32-.189.578 0 .258.055.458.166.6.116.143.284.214.506.214zm2.916 3.235c.042-.28.111-.62.206-1.02a37.74 37.74 0 01.743-2.579c.142-.432.279-.817.411-1.154h-2.19v-.783h3.123v.593c-.1.232-.205.512-.316.838a41.98 41.98 0 00-.34 1.052 42.839 42.839 0 00-.585 2.19c-.074.333-.132.62-.174.863h-.878zm2.459 0l2.112-5.536h.806l2.112 5.536h-1.036l-.427-1.218h-2.127l-.427 1.218h-1.013zm1.74-2.064h1.534l-.759-2.16-.775 2.16zm3.932 2.064v-5.536h.91v5.536h-.91zm2.379 0c.042-.28.111-.62.206-1.02a37.74 37.74 0 01.743-2.579c.142-.432.279-.817.411-1.154h-2.19v-.783h3.123v.593c-.1.232-.205.512-.316.838a41.98 41.98 0 00-.34 1.052 42.839 42.839 0 00-.585 2.19c-.074.333-.132.62-.174.863h-.878zm4.136.046c-.332 0-.641-.08-.925-.244a1.819 1.819 0 01-.672-.657l.711-.45c.106.163.23.295.372.395.148.1.319.15.514.15.295 0 .517-.087.664-.26.153-.18.229-.428.229-.744 0-.343-.065-.59-.197-.743-.127-.158-.306-.237-.538-.237a.81.81 0 00-.395.094.555.555 0 00-.253.285h-.783v-3.17h2.815v.774h-1.969v1.455a1.19 1.19 0 01.292-.15.851.851 0 01.317-.063c.295 0 .559.066.791.197a1.4 1.4 0 01.561.585c.142.259.213.583.213.973 0 .575-.16 1.02-.482 1.337-.321.316-.743.474-1.265.474zm3.675.033c-.375 0-.699-.098-.973-.293-.269-.2-.464-.493-.585-.878l.775-.26c.026.073.068.16.126.26.058.095.14.18.246.253a.67.67 0 00.395.111c.269 0 .482-.066.64-.198.159-.132.238-.353.238-.664 0-.28-.079-.503-.238-.672-.158-.169-.384-.253-.68-.253h-.395v-.775h.395c.264 0 .459-.076.586-.23a.898.898 0 00.189-.577c0-.263-.076-.448-.229-.553a.821.821 0 00-.506-.166.526.526 0 00-.348.118 1.01 1.01 0 00-.237.261c-.058.095-.1.18-.127.253l-.767-.308c.137-.358.338-.635.601-.83.269-.2.567-.3.894-.3.321 0 .601.062.838.189.242.121.43.293.561.514.137.221.206.482.206.783 0 .274-.074.522-.221.743a1.284 1.284 0 01-.546.475c.264.1.477.271.64.514.169.242.254.524.254.846 0 .5-.153.898-.459 1.194-.301.295-.725.443-1.273.443zm2.66-.079v-5.536h.909l2.61 3.93v-3.93h.925v5.536h-.878l-2.657-4.041v4.04h-.909zm5.56 0v-5.536h3.701v.846h-2.792v1.44h2.547v.854h-2.547v1.55h2.879v.846h-3.788zm6.136.079a1.96 1.96 0 01-.656-.111 1.383 1.383 0 01-.554-.403c-.163-.196-.29-.467-.38-.815-.089-.353-.129-.806-.118-1.36.016-1.044.184-1.806.506-2.285.322-.485.778-.728 1.368-.728.279 0 .546.077.799.23.253.147.453.332.601.553l-.633.49a1.149 1.149 0 00-.332-.356.742.742 0 00-.435-.126c-.353 0-.617.163-.791.49-.168.327-.258.812-.269 1.455a.887.887 0 01.38-.308 1.17 1.17 0 01.506-.119c.295 0 .559.069.791.206.232.132.414.321.545.57.137.242.206.532.206.869 0 .337-.063.638-.19.901a1.513 1.513 0 01-.538.625 1.442 1.442 0 01-.806.222zm-.055-.807a.624.624 0 00.537-.261c.132-.174.198-.4.198-.68 0-.264-.066-.474-.198-.633a.607.607 0 00-.506-.245c-.242 0-.432.082-.569.245-.137.164-.2.377-.19.64.011.301.079.533.206.697a.63.63 0 00.522.237zm3.298.728l-1.226-5.536h.941l.783 3.883 1.004-3.883h.815l1.004 3.883.783-3.883h.949l-1.234 5.536h-.838l-1.075-4.089-1.068 4.089h-.838zm5.772 0v-5.536h.91v5.536h-.91zm2.031 0v-5.536h.91l2.609 3.93v-3.93h.925v5.536h-.878l-2.656-4.041v4.04h-.91zm5.56 0v-5.536h.91v5.536h-.91zm2.031 0v-5.536h.91l2.609 3.93v-3.93h.925v5.536h-.878l-2.656-4.041v4.04h-.91zm6.715.079c-.375 0-.699-.098-.973-.293-.269-.2-.464-.493-.585-.878l.775-.26c.026.073.068.16.126.26.058.095.14.18.246.253a.67.67 0 00.395.111c.269 0 .482-.066.64-.198.159-.132.238-.353.238-.664 0-.28-.079-.503-.238-.672-.158-.169-.384-.253-.68-.253h-.395v-.775h.395c.264 0 .459-.076.586-.23a.898.898 0 00.189-.577c0-.263-.076-.448-.229-.553a.821.821 0 00-.506-.166.526.526 0 00-.348.118 1.01 1.01 0 00-.237.261c-.058.095-.1.18-.127.253l-.767-.308c.137-.358.338-.635.601-.83.269-.2.567-.3.894-.3.321 0 .601.062.838.189.242.121.43.293.561.514.137.221.206.482.206.783 0 .274-.074.522-.221.743a1.284 1.284 0 01-.546.475c.264.1.477.271.64.514.169.242.253.524.253.846 0 .5-.152.898-.458 1.194-.301.295-.725.443-1.273.443zm4.162 0a1.97 1.97 0 01-.656-.111 1.387 1.387 0 01-.553-.403c-.164-.196-.29-.467-.38-.815-.09-.353-.129-.806-.119-1.36.016-1.044.185-1.806.506-2.285.322-.485.778-.728 1.368-.728.28 0 .546.077.799.23.253.147.454.332.601.553l-.632.49a1.14 1.14 0 00-.333-.356.742.742 0 00-.435-.126c-.353 0-.616.163-.79.49-.169.327-.259.812-.269 1.455a.89.89 0 01.379-.308c.169-.08.338-.119.507-.119.295 0 .558.069.79.206.232.132.414.321.546.57.137.242.206.532.206.869 0 .337-.064.638-.19.901a1.52 1.52 0 01-.538.625 1.447 1.447 0 01-.807.222zm-.055-.807a.627.627 0 00.538-.261c.132-.174.197-.4.197-.68 0-.264-.065-.474-.197-.633a.608.608 0 00-.506-.245c-.243 0-.433.082-.57.245-.137.164-.2.377-.189.64.01.301.079.533.205.697a.633.633 0 00.522.237zm4.16.728v-1.21h-2.166v-.649l2.174-3.7h.791v3.605h.775v.744h-.775v1.21h-.799zm-1.32-1.954h1.32v-2.26l-1.32 2.261zm4.737 2c-.332 0-.64-.08-.925-.244a1.834 1.834 0 01-.672-.657l.712-.45c.105.163.229.295.371.395.148.1.319.15.514.15.296 0 .517-.087.665-.26.153-.18.229-.428.229-.744 0-.343-.066-.59-.198-.743-.126-.158-.305-.237-.537-.237a.814.814 0 00-.396.094.56.56 0 00-.253.285h-.783v-3.17h2.815v.774h-1.969v1.455a1.21 1.21 0 01.293-.15.846.846 0 01.316-.063c.296 0 .559.066.791.197.237.132.424.327.562.585.142.259.213.583.213.973 0 .575-.161 1.02-.482 1.337-.322.316-.744.474-1.266.474zm3.968.033a1.7 1.7 0 01-.862-.214 1.524 1.524 0 01-.585-.6 1.88 1.88 0 01-.206-.895c0-.279.071-.532.214-.759.147-.232.327-.406.537-.522a1.5 1.5 0 01-.442-.466 1.305 1.305 0 01-.174-.68c0-.311.063-.583.189-.815a1.43 1.43 0 01.538-.553c.232-.132.496-.198.791-.198.3 0 .564.066.791.198.232.132.411.316.537.553.132.232.198.504.198.815 0 .258-.061.485-.182.68a1.57 1.57 0 01-.427.466c.211.116.388.29.53.522a1.4 1.4 0 01.213.76c0 .342-.071.643-.213.901-.142.253-.337.45-.585.593a1.7 1.7 0 01-.862.214zm0-.807c.263 0 .464-.074.601-.221.142-.153.213-.383.213-.688 0-.285-.071-.51-.213-.673-.137-.168-.338-.253-.601-.253-.258 0-.459.085-.601.253-.137.164-.206.388-.206.673 0 .606.269.909.807.909zm0-2.507c.221 0 .387-.07.498-.213.116-.143.174-.343.174-.601 0-.258-.063-.451-.19-.578a.652.652 0 00-.482-.19.652.652 0 00-.482.19c-.127.127-.19.32-.19.578 0 .258.055.458.166.6.116.143.284.214.506.214zm2.916 3.235c.043-.28.111-.62.206-1.02a37.74 37.74 0 01.743-2.579c.143-.432.28-.817.411-1.154h-2.19v-.783h3.124v.593c-.101.232-.206.512-.317.838-.11.327-.224.678-.34 1.052a42.839 42.839 0 00-.585 2.19c-.074.333-.132.62-.174.863h-.878zm4.943.11c-.464 0-.891-.097-1.281-.292-.385-.196-.694-.525-.926-.989l.768-.435c.158.264.35.472.577.625.226.147.524.221.893.221s.628-.066.775-.197a.706.706 0 00.23-.554.685.685 0 00-.103-.38c-.063-.105-.201-.202-.411-.292-.206-.095-.525-.19-.957-.285-.512-.121-.891-.313-1.139-.577-.242-.264-.364-.598-.364-1.004 0-.322.077-.604.23-.846.158-.248.377-.44.656-.578.285-.137.617-.205.996-.205.501 0 .923.11 1.266.332.342.216.603.472.782.767l-.719.553a2.56 2.56 0 00-.316-.363 1.437 1.437 0 00-.428-.293 1.35 1.35 0 00-.593-.118c-.274 0-.498.06-.672.181-.168.116-.253.293-.253.53a.72.72 0 00.071.309c.053.095.164.187.333.276.173.09.44.177.798.261.633.143 1.089.356 1.368.64.28.286.419.644.419 1.076 0 .528-.184.933-.553 1.218-.364.28-.846.42-1.447.42zm2.934-.11v-5.536h2.53c.517 0 .925.121 1.226.364.305.242.458.651.458 1.226 0 .574-.153.985-.458 1.233-.301.248-.709.372-1.226.372h-1.621v2.34h-.909zm.909-3.195h1.495c.268 0 .477-.058.624-.174.148-.116.222-.309.222-.577 0-.264-.074-.454-.222-.57-.147-.116-.356-.174-.624-.174h-1.495v1.495zm5.408 3.195v-4.69h-1.669v-.846h4.254v.846h-1.66v4.69h-.925zm3.359 0v-5.536h.909l1.589 2.657 1.566-2.657h.925v5.536h-.933v-3.946l-1.297 2.253h-.537l-1.305-2.253v3.946h-.917zm6.108 0v-5.536h2.325c.453 0 .827.121 1.123.364.295.237.442.582.442 1.036 0 .321-.073.59-.221.806a1.043 1.043 0 01-.546.427c.285.053.522.209.712.467.195.253.293.567.293.94 0 .512-.153.89-.459 1.132-.306.242-.725.364-1.257.364h-2.412zm.909-.847h1.376c.29 0 .504-.06.641-.181.142-.127.213-.325.213-.594 0-.258-.081-.45-.245-.577a.937.937 0 00-.609-.197h-1.376v1.55zm0-2.404h1.258c.242 0 .424-.066.545-.197.121-.132.182-.314.182-.546 0-.232-.066-.406-.198-.522-.126-.116-.308-.174-.545-.174h-1.242v1.44zm4.134 3.251v-5.536h2.53c.517 0 .925.121 1.226.364.305.242.458.651.458 1.226 0 .485-.11.854-.332 1.107-.221.247-.527.4-.917.458l1.186 2.38h-1.067l-1.068-2.34h-1.107v2.34h-.909zm.909-3.195h1.494c.269 0 .478-.058.625-.174.148-.116.222-.309.222-.577 0-.264-.074-.454-.222-.57-.147-.116-.356-.174-.625-.174h-1.494v1.495zm3.816 3.195v-.261c0-.38.098-.75.293-1.108.2-.358.532-.759.996-1.201.164-.159.319-.317.467-.475.147-.163.269-.322.364-.474a.958.958 0 00.15-.451c.005-.274-.058-.477-.19-.609-.126-.132-.308-.198-.546-.198-.226 0-.395.082-.506.245-.11.164-.166.393-.166.688h-.838c0-.548.14-.975.419-1.28.28-.306.643-.46 1.091-.46.306 0 .578.064.815.19.242.127.432.312.569.554.137.242.201.54.19.894a1.522 1.522 0 01-.174.688 2.92 2.92 0 01-.443.616c-.179.195-.385.404-.617.625-.242.237-.458.464-.648.68-.184.216-.293.403-.324.561h2.111v.776h-3.013zm5.047.079c-.374 0-.698-.098-.972-.293-.269-.2-.464-.493-.586-.878l.775-.26c.027.073.069.16.127.26a.85.85 0 00.245.253.67.67 0 00.395.111c.269 0 .483-.066.641-.198.158-.132.237-.353.237-.664 0-.28-.079-.503-.237-.672-.158-.169-.385-.253-.68-.253h-.396v-.775h.396c.263 0 .458-.076.585-.23a.898.898 0 00.19-.577c0-.263-.077-.448-.23-.553a.82.82 0 00-.506-.166.526.526 0 00-.348.118 1.032 1.032 0 00-.237.261c-.058.095-.1.18-.126.253l-.767-.308c.137-.358.337-.635.601-.83.268-.2.566-.3.893-.3.322 0 .601.062.838.189.243.121.43.293.562.514.137.221.205.482.205.783 0 .274-.073.522-.221.743a1.272 1.272 0 01-.546.475c.264.1.477.271.641.514.169.242.253.524.253.846 0 .5-.153.898-.459 1.194-.3.295-.725.443-1.273.443zM7.484 58.386v-2.088h.364c.232-.47.39-1.015.475-1.637.09-.627.134-1.355.134-2.182v-.87h3.408v4.689h.443v2.088h-.846v-1.242H8.33v1.242h-.846zm1.353-2.088h2.103v-3.843H9.382c0 .817-.045 1.542-.134 2.175a7.224 7.224 0 01-.411 1.668zm5.767.933c-.553 0-1.001-.171-1.344-.514-.342-.348-.514-.86-.514-1.534 0-.427.077-.793.23-1.1.152-.31.366-.547.64-.71.274-.17.588-.254.941-.254s.654.09.902.269c.247.174.437.414.569.72.132.3.198.643.198 1.028v.213h-2.602c.021.39.121.67.3.838.18.164.412.245.696.245.248 0 .451-.06.61-.181a1.55 1.55 0 00.41-.554l.657.467c-.195.38-.435.653-.72.822-.28.163-.604.245-.973.245zm-.94-2.602h1.684c-.042-.247-.135-.44-.277-.577a.717.717 0 00-.53-.205.875.875 0 00-.577.19c-.148.126-.248.324-.3.593zm3.404 2.515V53.16h.893v2.562l1.613-2.562h.886v3.985h-.894v-2.538l-1.605 2.538h-.893zm1.7-4.294c-.38 0-.651-.076-.815-.229-.158-.158-.26-.414-.308-.767h.514c.026.18.084.3.174.364.09.058.234.087.435.087.2 0 .345-.03.435-.087.095-.064.152-.185.174-.364h.506c-.043.353-.145.609-.309.767-.163.153-.432.23-.806.23zm4.3 4.381c-.348 0-.662-.084-.942-.253a1.885 1.885 0 01-.656-.72c-.158-.305-.237-.664-.237-1.075 0-.416.08-.777.237-1.083.164-.311.382-.551.657-.72a1.74 1.74 0 01.94-.26c.312 0 .594.065.847.197.258.126.469.313.632.561l-.711.538a.81.81 0 00-.767-.467.824.824 0 00-.673.325c-.174.21-.26.514-.26.909 0 .385.086.683.26.894.174.21.398.316.673.316a.83.83 0 00.774-.459l.704.538c-.163.242-.374.43-.632.561a1.804 1.804 0 01-.846.198zm3.552-.087v-3.21h-1.305v-.775h3.511v.775h-1.313v3.21h-.893zm3.182 0V53.16h1.826c.475 0 .833.087 1.076.26.242.175.364.46.364.855 0 .19-.048.36-.143.514a.632.632 0 01-.364.3.872.872 0 01.49.324.915.915 0 01.206.61c0 .384-.108.669-.324.853-.21.18-.593.27-1.147.27h-1.984zm.885-.775H31.7c.248 0 .417-.034.506-.103.09-.073.135-.184.135-.332 0-.163-.05-.276-.15-.34-.095-.063-.259-.095-.49-.095h-1.013v.87zm0-1.645h.918c.2 0 .342-.031.427-.094.084-.064.126-.167.126-.309s-.045-.242-.134-.3c-.09-.058-.238-.087-.443-.087h-.894v.79zm3.54 2.42V53.16h.893v2.562l1.613-2.562h.886v3.985h-.894v-2.538l-1.605 2.538h-.893zm5.667 0v-3.21H38.59v-.775h3.51v.775h-1.312v3.21h-.894zm4.286.087c-.553 0-1-.171-1.343-.514-.343-.348-.515-.86-.515-1.534 0-.427.077-.793.23-1.1.153-.31.366-.547.64-.71a1.75 1.75 0 01.941-.254c.354 0 .654.09.902.269.248.174.437.414.57.72.131.3.197.643.197 1.028v.213H43.2c.021.39.121.67.3.838.18.164.412.245.697.245.247 0 .45-.06.608-.181a1.55 1.55 0 00.412-.554l.656.467c-.195.38-.435.653-.72.822a1.892 1.892 0 01-.972.245zm-.94-2.602h1.684c-.042-.247-.134-.44-.277-.577a.717.717 0 00-.53-.205.875.875 0 00-.577.19c-.147.126-.248.324-.3.593zm3.032 2.515v-.775h.174a.47.47 0 00.214-.032c.042-.02.07-.09.087-.205.042-.232.074-.548.095-.949.026-.4.04-.822.04-1.265v-.76h2.72v3.986h-.894v-3.21h-.933c0 .327-.008.653-.024.98-.016.327-.04.63-.071.91a8.097 8.097 0 01-.095.711c-.047.227-.145.385-.293.475-.142.09-.366.134-.672.134h-.348zm4.303 0V53.16h.901v1.565h1.091c.56 0 .944.1 1.155.3.21.201.316.504.316.91s-.105.71-.316.91c-.211.2-.596.3-1.155.3h-1.992zm.893-.775h1.02c.243 0 .409-.034.498-.103.09-.073.135-.184.135-.332 0-.153-.045-.263-.135-.332-.09-.068-.255-.103-.498-.103h-1.02v.87zm3.338.775V53.16h.894v1.518h1.407V53.16h.878v3.985h-.877v-1.7H55.7v1.7h-.894zm4.154 0V53.16h.895v1.565h1.099c.548 0 .928.1 1.138.3.217.201.325.504.325.91s-.108.71-.325.91c-.21.2-.59.3-1.138.3H58.96zm3.836 0V53.16h.886v3.985h-.886zm-2.941-.775h1.004c.247 0 .416-.034.506-.103.095-.073.142-.184.142-.332 0-.153-.047-.263-.142-.332-.09-.068-.259-.103-.506-.103h-1.005v.87zm4.797.775V53.16h.894v2.562l1.613-2.562h.886v3.985h-.894v-2.538l-1.605 2.538h-.894zm1.7-4.294c-.38 0-.65-.076-.814-.229-.158-.158-.261-.414-.308-.767h.513c.027.18.085.3.175.364.09.058.234.087.434.087.2 0 .346-.03.435-.087.095-.064.153-.185.174-.364h.506c-.042.353-.145.609-.308.767-.163.153-.432.23-.807.23zm6.516 4.381a1.78 1.78 0 01-.94-.253 1.885 1.885 0 01-.657-.72c-.158-.305-.237-.664-.237-1.075 0-.416.079-.777.237-1.083a1.82 1.82 0 01.656-.72c.28-.174.594-.26.941-.26.312 0 .594.065.847.197.258.126.469.313.632.561l-.712.538a.81.81 0 00-.767-.467.824.824 0 00-.672.325c-.174.21-.26.514-.26.909 0 .385.086.683.26.894.174.21.398.316.672.316a.83.83 0 00.775-.459l.704.538c-.163.242-.374.43-.632.561a1.804 1.804 0 01-.847.198zm4.203-.087v-.26c0-.38.098-.75.293-1.108.2-.358.532-.759.996-1.202.164-.158.32-.316.467-.474a3.36 3.36 0 00.364-.475.95.95 0 00.15-.45c.005-.275-.058-.478-.19-.61-.127-.131-.308-.197-.546-.197-.226 0-.395.082-.506.245-.11.163-.166.393-.166.688h-.838c0-.548.14-.975.42-1.281.278-.306.642-.459 1.09-.459.306 0 .578.064.815.19.242.127.432.311.57.554.136.242.2.54.189.893a1.53 1.53 0 01-.174.688c-.11.211-.258.417-.443.617-.18.195-.385.403-.617.625-.242.237-.458.464-.648.68-.185.216-.293.403-.324.561h2.111v.775h-3.013zm5.324.079c-.422 0-.751-.105-.989-.316-.237-.211-.406-.527-.506-.949-.095-.422-.142-.949-.142-1.581 0-.633.047-1.16.142-1.582.1-.427.27-.746.506-.957.238-.21.567-.316.989-.316.422 0 .748.105.98.316.238.211.404.53.499.957.1.422.15.949.15 1.581 0 .633-.05 1.16-.15 1.582-.095.422-.261.738-.499.949-.232.21-.558.316-.98.316zm0-.806a.59.59 0 00.459-.182c.115-.127.2-.338.252-.633.053-.295.08-.704.08-1.225 0-.528-.027-.939-.08-1.234-.052-.295-.137-.504-.252-.625a.577.577 0 00-.46-.19.602.602 0 00-.466.19c-.116.121-.2.33-.253.625-.047.295-.07.706-.07 1.233 0 .522.023.93.07 1.226.053.295.137.506.253.633a.615.615 0 00.467.182zm2.198.727v-.26c0-.38.097-.75.292-1.108.2-.358.533-.759.997-1.202.163-.158.319-.316.466-.474a3.36 3.36 0 00.364-.475.95.95 0 00.15-.45c.006-.275-.058-.478-.19-.61-.126-.131-.308-.197-.545-.197-.227 0-.395.082-.506.245-.111.163-.166.393-.166.688h-.838c0-.548.14-.975.419-1.281.279-.306.643-.459 1.09-.459.307 0 .578.064.815.19.243.127.433.311.57.554.137.242.2.54.19.893a1.53 1.53 0 01-.174.688 2.936 2.936 0 01-.443.617c-.18.195-.385.403-.617.625-.243.237-.459.464-.649.68-.184.216-.292.403-.324.561h2.112v.775h-3.013zm5.047.079c-.375 0-.699-.097-.973-.292-.269-.2-.464-.493-.585-.878l.775-.261c.026.074.068.16.126.26.058.096.14.18.245.254.106.074.238.11.396.11.269 0 .482-.065.64-.197.158-.132.237-.353.237-.664 0-.28-.079-.504-.237-.672-.158-.17-.385-.254-.68-.254h-.395v-.774h.395c.264 0 .459-.077.585-.23a.894.894 0 00.19-.577c0-.264-.076-.448-.23-.554a.821.821 0 00-.505-.166.525.525 0 00-.348.119.998.998 0 00-.237.261c-.058.095-.1.18-.127.253l-.767-.308c.137-.359.337-.636.601-.83.269-.201.567-.301.894-.301.321 0 .6.063.838.19.242.12.43.292.561.514.137.221.206.482.206.782 0 .275-.074.522-.222.744a1.276 1.276 0 01-.545.474c.263.1.477.272.64.514.169.243.253.525.253.846 0 .501-.153.9-.458 1.194-.3.296-.725.443-1.273.443zm2.573-1.613v-.838h2.46v.838h-2.46zm4.924 1.613c-.422 0-.752-.105-.989-.316-.237-.211-.406-.527-.506-.949-.095-.422-.142-.949-.142-1.581 0-.633.047-1.16.142-1.582.1-.427.269-.746.506-.957.237-.21.567-.316.989-.316.421 0 .748.105.98.316.237.211.403.53.498.957.1.422.15.949.15 1.581 0 .633-.05 1.16-.15 1.582-.094.422-.26.738-.498.949-.232.21-.559.316-.98.316zm0-.806a.59.59 0 00.458-.182c.116-.127.2-.338.253-.633.053-.295.08-.704.08-1.225 0-.528-.027-.939-.08-1.234-.052-.295-.137-.504-.253-.625a.577.577 0 00-.458-.19.602.602 0 00-.467.19c-.116.121-.2.33-.253.625a8.286 8.286 0 00-.071 1.233c0 .522.024.93.071 1.226.053.295.137.506.253.633a.615.615 0 00.467.182zm3.692.806c-.374 0-.698-.097-.972-.292-.27-.2-.464-.493-.586-.878l.775-.261c.027.074.069.16.127.26.058.096.139.18.245.254a.67.67 0 00.395.11c.269 0 .483-.065.641-.197.158-.132.237-.353.237-.664 0-.28-.079-.504-.237-.672-.158-.17-.385-.254-.68-.254h-.396v-.774h.396c.263 0 .458-.077.585-.23a.898.898 0 00.19-.577c0-.264-.077-.448-.23-.554a.82.82 0 00-.506-.166.526.526 0 00-.348.119.998.998 0 00-.237.261c-.058.095-.1.18-.126.253l-.767-.308c.137-.359.337-.636.6-.83.269-.201.567-.301.894-.301.322 0 .601.063.838.19.243.12.43.292.562.514.137.221.205.482.205.782 0 .275-.073.522-.221.744a1.272 1.272 0 01-.546.474c.264.1.477.272.641.514.169.243.253.525.253.846 0 .501-.153.9-.459 1.194-.3.296-.725.443-1.273.443zm2.573-1.613v-.838h2.46v.838h-2.46zm4.924 1.613c-.422 0-.751-.105-.988-.316-.237-.211-.406-.527-.506-.949-.095-.422-.143-.949-.143-1.581 0-.633.048-1.16.143-1.582.1-.427.269-.746.506-.957.237-.21.566-.316.988-.316.422 0 .749.105.981.316.237.211.403.53.498.957.1.422.15.949.15 1.581 0 .633-.05 1.16-.15 1.582-.095.422-.261.738-.498.949-.232.21-.559.316-.981.316zm0-.806a.592.592 0 00.459-.182c.116-.127.2-.338.253-.633.053-.295.079-.704.079-1.225 0-.528-.026-.939-.079-1.234-.053-.295-.137-.504-.253-.625a.579.579 0 00-.459-.19.6.6 0 00-.466.19c-.116.121-.201.33-.253.625-.048.295-.072.706-.072 1.233 0 .522.024.93.072 1.226.052.295.137.506.253.633a.614.614 0 00.466.182zm2.886.727c.042-.28.111-.62.206-1.02a37.87 37.87 0 01.743-2.578c.142-.432.279-.817.411-1.154h-2.19v-.783h3.123v.593c-.1.232-.205.511-.316.838a41.98 41.98 0 00-.34 1.052 42.839 42.839 0 00-.585 2.19c-.074.332-.132.62-.174.862h-.878zm4.27 0v-4.69h-1.668v-.845h4.254v.846h-1.66v4.69h-.926zm4.229 0v-4.46l-.965.633-.45-.72 1.613-.996h.648v5.543h-.846zm4.05 0v-1.21h-2.166v-.648l2.174-3.7h.791v3.605h.775v.743h-.775v1.21h-.799zm-1.32-1.953h1.32v-2.262l-1.32 2.262zm4.002 2.04a.598.598 0 11.419-1.02.569.569 0 01.182.427.56.56 0 01-.182.42.572.572 0 01-.419.173zm0-2.8a.598.598 0 01-.601-.592c0-.169.058-.309.174-.42a.598.598 0 01.427-.173c.163 0 .303.058.419.174.121.11.182.25.182.419a.56.56 0 01-.182.419.572.572 0 01-.419.174zm2.45 2.713v-4.46l-.965.633-.451-.72 1.614-.996h.648v5.543h-.846zm3.868.079a1.97 1.97 0 01-.656-.11 1.39 1.39 0 01-.554-.404c-.163-.195-.29-.466-.379-.814-.09-.354-.129-.807-.119-1.36.016-1.044.185-1.806.506-2.286.322-.485.778-.727 1.368-.727.28 0 .546.076.799.23.253.147.453.331.601.553l-.633.49a1.137 1.137 0 00-.332-.356.741.741 0 00-.435-.126c-.353 0-.617.163-.791.49-.168.327-.258.812-.268 1.455a.885.885 0 01.379-.309c.169-.079.338-.118.506-.118.295 0 .559.068.791.205.232.132.414.322.546.57.137.242.205.532.205.87 0 .337-.063.638-.19.901a1.511 1.511 0 01-.537.625 1.447 1.447 0 01-.807.221zm-.055-.806a.627.627 0 00.538-.261c.131-.174.197-.401.197-.68 0-.264-.066-.475-.197-.633a.61.61 0 00-.507-.245c-.242 0-.432.082-.569.245-.137.163-.2.377-.19.64.011.301.079.533.206.696a.63.63 0 00.522.238zm4.613.727V53.16h3.044v3.985h-.885v-3.21h-1.266v3.21h-.893zm5.652.087c-.348 0-.661-.084-.941-.253a1.882 1.882 0 01-.656-.72 2.362 2.362 0 01-.237-1.083c0-.411.079-.772.237-1.083.163-.311.382-.551.656-.72.28-.174.593-.26.941-.26.359 0 .675.086.949.26.28.169.498.409.657.72.158.31.237.672.237 1.083 0 .411-.079.772-.237 1.084a1.81 1.81 0 01-.657.72c-.274.168-.59.252-.949.252zm0-.838c.28 0 .506-.105.68-.316.18-.211.269-.512.269-.902s-.089-.69-.269-.901a.83.83 0 00-.68-.325.824.824 0 00-.672.325c-.174.21-.261.511-.261.901s.087.69.261.902c.174.21.398.316.672.316zm4.566.751v-.26c0-.38.098-.75.293-1.108.2-.358.532-.759.996-1.202.163-.158.319-.316.466-.474.148-.164.269-.322.364-.475a.946.946 0 00.15-.45c.006-.275-.057-.478-.189-.61-.127-.131-.309-.197-.546-.197-.227 0-.395.082-.506.245-.111.163-.166.393-.166.688h-.838c0-.548.139-.975.419-1.281.279-.306.643-.459 1.091-.459.306 0 .577.064.815.19.242.127.432.311.569.554.137.242.2.54.19.893a1.548 1.548 0 01-.174.688 2.936 2.936 0 01-.443.617c-.179.195-.385.403-.617.625-.242.237-.459.464-.648.68-.185.216-.293.403-.325.561h2.112v.775h-3.013zm5.324.079c-.422 0-.752-.105-.989-.316-.237-.211-.406-.527-.506-.949-.095-.422-.142-.949-.142-1.581 0-.633.047-1.16.142-1.582.1-.427.269-.746.506-.957.237-.21.567-.316.989-.316.421 0 .748.105.98.316.237.211.403.53.498.957.1.422.151.949.151 1.581 0 .633-.051 1.16-.151 1.582-.095.422-.261.738-.498.949-.232.21-.559.316-.98.316zm0-.806a.59.59 0 00.458-.182c.116-.127.201-.338.253-.633.053-.295.079-.704.079-1.225 0-.528-.026-.939-.079-1.234-.052-.295-.137-.504-.253-.625a.576.576 0 00-.458-.19.603.603 0 00-.467.19c-.116.121-.2.33-.253.625a8.295 8.295 0 00-.071 1.233c0 .522.024.93.071 1.226.053.295.137.506.253.633a.616.616 0 00.467.182zm2.198.727v-.26c0-.38.097-.75.292-1.108.2-.358.533-.759.996-1.202.164-.158.319-.316.467-.474.148-.164.269-.322.364-.475a.946.946 0 00.15-.45c.005-.275-.058-.478-.19-.61-.126-.131-.308-.197-.545-.197-.227 0-.396.082-.506.245-.111.163-.167.393-.167.688h-.838c0-.548.14-.975.419-1.281.28-.306.643-.459 1.092-.459.305 0 .577.064.814.19.243.127.432.311.569.554.137.242.201.54.19.893a1.522 1.522 0 01-.174.688c-.11.211-.258.417-.443.617a13.63 13.63 0 01-.616.625c-.243.237-.459.464-.649.68-.184.216-.292.403-.324.561h2.111v.775h-3.012zm5.576 0v-1.21h-2.167v-.648l2.175-3.7h.791v3.605h.775v.743h-.775v1.21h-.799zm-1.32-1.953h1.32v-2.262l-1.32 2.262zm3.456.419v-.838h2.46v.838h-2.46zm4.924 1.613c-.422 0-.751-.105-.988-.316-.238-.211-.406-.527-.506-.949-.095-.422-.143-.949-.143-1.581 0-.633.048-1.16.143-1.582.1-.427.268-.746.506-.957.237-.21.566-.316.988-.316.422 0 .749.105.981.316.237.211.403.53.498.957.1.422.15.949.15 1.581 0 .633-.05 1.16-.15 1.582-.095.422-.261.738-.498.949-.232.21-.559.316-.981.316zm0-.806a.592.592 0 00.459-.182c.116-.127.2-.338.253-.633.052-.295.079-.704.079-1.225 0-.528-.027-.939-.079-1.234-.053-.295-.137-.504-.253-.625a.579.579 0 00-.459-.19.6.6 0 00-.466.19c-.116.121-.201.33-.254.625a8.295 8.295 0 00-.071 1.233c0 .522.024.93.071 1.226.053.295.138.506.254.633a.613.613 0 00.466.182zm3.693.806c-.375 0-.699-.097-.973-.292-.269-.2-.464-.493-.585-.878l.775-.261c.026.074.068.16.126.26.058.096.14.18.245.254.106.074.238.11.396.11.269 0 .482-.065.64-.197.158-.132.237-.353.237-.664 0-.28-.079-.504-.237-.672-.158-.17-.385-.254-.68-.254h-.395v-.774h.395c.264 0 .459-.077.585-.23a.892.892 0 00.19-.577c0-.264-.076-.448-.229-.554a.823.823 0 00-.506-.166.526.526 0 00-.348.119.998.998 0 00-.237.261c-.058.095-.101.18-.127.253l-.767-.308c.137-.359.337-.636.601-.83.269-.201.567-.301.894-.301.321 0 .601.063.838.19.242.12.429.292.561.514.137.221.206.482.206.782 0 .275-.074.522-.222.744a1.275 1.275 0 01-.545.474c.263.1.477.272.64.514.169.243.253.525.253.846 0 .501-.153.9-.458 1.194-.301.296-.725.443-1.273.443zm2.573-1.613v-.838h2.459v.838h-2.459zm4.924 1.613c-.422 0-.752-.105-.989-.316-.237-.211-.406-.527-.506-.949-.095-.422-.142-.949-.142-1.581 0-.633.047-1.16.142-1.582.1-.427.269-.746.506-.957.237-.21.567-.316.989-.316.421 0 .748.105.98.316.237.211.403.53.498.957.101.422.151.949.151 1.581 0 .633-.05 1.16-.151 1.582-.095.422-.261.738-.498.949-.232.21-.559.316-.98.316zm0-.806a.588.588 0 00.458-.182c.116-.127.201-.338.253-.633.053-.295.079-.704.079-1.225 0-.528-.026-.939-.079-1.234-.052-.295-.137-.504-.253-.625a.575.575 0 00-.458-.19.603.603 0 00-.467.19c-.116.121-.2.33-.253.625a8.295 8.295 0 00-.071 1.233c0 .522.024.93.071 1.226.053.295.137.506.253.633a.616.616 0 00.467.182zm4.04.806a1.97 1.97 0 01-.656-.11 1.39 1.39 0 01-.554-.404c-.163-.195-.29-.466-.379-.814-.09-.354-.13-.807-.119-1.36.016-1.044.185-1.806.506-2.286.322-.485.778-.727 1.368-.727.279 0 .546.076.799.23.253.147.453.331.601.553l-.633.49a1.137 1.137 0 00-.332-.356.741.741 0 00-.435-.126c-.353 0-.617.163-.791.49-.168.327-.258.812-.269 1.455a.894.894 0 01.38-.309c.169-.079.337-.118.506-.118.295 0 .559.068.791.205.232.132.414.322.546.57.137.242.205.532.205.87 0 .337-.063.638-.19.901a1.511 1.511 0 01-.537.625 1.447 1.447 0 01-.807.221zm-.055-.806a.624.624 0 00.537-.261c.132-.174.198-.401.198-.68 0-.264-.066-.475-.198-.633a.607.607 0 00-.506-.245c-.242 0-.432.082-.569.245-.137.163-.2.377-.19.64.011.301.079.533.206.696a.63.63 0 00.522.238zm3.804.727v-4.69h-1.669v-.845h4.255v.846h-1.661v4.69h-.925zm4.229 0v-4.46l-.965.633-.451-.72 1.613-.996h.649v5.543h-.846zm4.05 0v-1.21h-2.167v-.648l2.175-3.7h.791v3.605h.775v.743h-.775v1.21h-.799zm-1.321-1.953h1.321v-2.262l-1.321 2.262zm4.003 2.04a.596.596 0 110-1.194c.163 0 .303.058.419.174a.569.569 0 01.182.427.56.56 0 01-.182.42.572.572 0 01-.419.173zm0-2.8a.596.596 0 01-.601-.592c0-.169.058-.309.174-.42a.597.597 0 01.427-.173c.163 0 .303.058.419.174.121.11.182.25.182.419a.56.56 0 01-.182.419.572.572 0 01-.419.174zm2.45 2.713v-4.46l-.965.633-.451-.72 1.613-.996h.649v5.543h-.846zm3.868.079c-.227 0-.446-.037-.657-.11a1.387 1.387 0 01-.553-.404c-.163-.195-.29-.466-.38-.814-.089-.354-.129-.807-.118-1.36.016-1.044.184-1.806.506-2.286.321-.485.777-.727 1.368-.727.279 0 .545.076.799.23.253.147.453.331.6.553l-.632.49a1.148 1.148 0 00-.332-.356.741.741 0 00-.435-.126c-.353 0-.617.163-.791.49-.169.327-.258.812-.269 1.455a.888.888 0 01.38-.309 1.18 1.18 0 01.506-.118c.295 0 .559.068.791.205.232.132.413.322.545.57.137.242.206.532.206.87 0 .337-.063.638-.19.901a1.513 1.513 0 01-.538.625 1.442 1.442 0 01-.806.221zm-.056-.806a.626.626 0 00.538-.261c.132-.174.198-.401.198-.68 0-.264-.066-.475-.198-.633a.607.607 0 00-.506-.245c-.242 0-.432.082-.569.245-.137.163-.201.377-.19.64.01.301.079.533.206.696a.63.63 0 00.521.238z" fill="#2B23CD"/></svg>