<svg width="322" height="405" fill="none" xmlns="http://www.w3.org/2000/svg"><path opacity=".7" d="M8.355 203.921l-.44.158.128.449 13.25 46.586.133.468.472-.12 36.97-9.406v157.816h56.157V182.913H66.984l-.081.029-58.548 20.979zm289.315 169.84l.001-.001c15.902-20.883 23.829-48.355 23.829-82.368 0-34.011-7.927-61.38-23.829-82.058-15.716-20.705-37.749-31.049-66.032-31.049-28.487 0-50.622 10.342-66.339 31.046-15.7 20.27-23.523 47.642-23.523 82.061 0 34.217 7.824 61.689 23.521 82.367l.003.005c15.922 20.496 38.056 30.736 66.338 30.736 28.282 0 50.314-10.24 66.031-30.739zM1 2.961H.5v29.394h28.279v86.494h30.26V32.355h28.278V2.962H1zm189.111 100.973l.003-.003c11.755-11.803 17.636-26.154 17.636-43.025 0-16.98-5.88-31.278-17.638-42.863C178.465 6.349 164.17.5 147.26.5c-17.019 0-31.369 5.848-43.017 17.544C92.594 29.63 86.769 43.928 86.769 60.906s5.825 31.33 17.473 43.025l.002.002c11.649 11.585 25.998 17.378 43.016 17.378 16.802 0 31.095-5.794 42.851-17.377zm-21.138-64.996l.007.006c5.774 5.584 8.674 12.888 8.674 21.962 0 8.96-2.897 16.323-8.678 22.128-5.895 5.703-13.123 8.555-21.716 8.555-8.593 0-15.821-2.852-21.716-8.554-5.781-5.806-8.678-13.169-8.678-22.13 0-9.073 2.899-16.377 8.674-21.96h0l.007-.008c5.785-5.808 13.01-8.715 21.713-8.715 8.702 0 15.928 2.907 21.713 8.715zm51.851-35.976h-.5v115.887h30.26V84.383h14.702c11.671 0 21.497-3.819 29.442-11.464 7.952-7.652 11.923-17.414 11.923-29.246 0-11.833-3.971-21.595-11.923-29.247-7.945-7.645-17.771-11.464-29.442-11.464h-44.462zm52.28 49.22l-.008.01c-2.082 2.194-4.673 3.29-7.81 3.29h-14.702V32.027h14.702c3.137 0 5.728 1.096 7.81 3.291l.008.009.009.008c2.176 2.08 3.278 4.842 3.278 8.337s-1.102 6.317-3.287 8.51zm-75.169 239.21c0-19.61 2.848-34.236 8.483-43.943 5.611-9.666 13.997-14.483 25.221-14.483s19.609 4.817 25.22 14.483c5.635 9.707 8.483 24.333 8.483 43.943 0 19.611-2.848 34.236-8.483 43.944-5.611 9.666-13.996 14.483-25.22 14.483-11.224 0-19.61-4.817-25.221-14.483-5.635-9.708-8.483-24.333-8.483-43.944z" stroke="#fff"/></svg>