<svg width="28" height="28" fill="none" xmlns="http://www.w3.org/2000/svg"><path d="M23.695 6.508H27v16.085H1V6.508h3.305m9.144-2.754V14.22m0-10.466h-3.085a2.754 2.754 0 000 5.509h3.085l6.39 2.754h.55V1h-.55l-6.39 2.754zM6.84 27h14.322M6.288 18.186h2.204m2.203 0h2.203m2.204 0h2.203m2.204 0h2.203m-10.466 4.407V27m5.508-4.407V27" stroke="#504EF3" stroke-width="1.8" stroke-miterlimit="10"/><path d="M13.45 3.754V14.22m0-10.466h-3.085a2.754 2.754 0 000 5.509h3.084l6.39 2.754h.551V1h-.55l-6.39 2.754z" stroke="#504EF3" stroke-width="1.8" stroke-miterlimit="10"/><path d="M13.45 3.754V14.22m0-10.466h-3.085a2.754 2.754 0 000 5.509h3.084l6.39 2.754h.551V1h-.55l-6.39 2.754z" stroke="url(#paint0_linear_11_1106)" stroke-width="1.8" stroke-miterlimit="10"/><defs><linearGradient id="paint0_linear_11_1106" x1="14" y1="1" x2="14" y2="14.22" gradientUnits="userSpaceOnUse"><stop stop-color="#AF1CFB"/><stop offset="1" stop-color="#FC50B7"/></linearGradient></defs></svg>