<svg width="28" height="28" fill="none" xmlns="http://www.w3.org/2000/svg"><path d="M23.77 22.667L27 27H1l3.31-4.333h19.46zm0 0v-13m0 0L19.436 14V9.667H14m9.77 0H27V1H14v8.667m-9.776 13v-13H14m-4.235 13v-.002a4.235 4.235 0 118.47 0v.002m-1.47-6.986a2.754 2.754 0 11-5.508 0 2.754 2.754 0 015.508 0z" stroke="#504EF3" stroke-width="1.8" stroke-miterlimit="10" stroke-linecap="round" stroke-linejoin="round"/><path d="M9.765 22.667v-.002a4.235 4.235 0 118.47 0v.002m-1.47-6.986a2.754 2.754 0 11-5.509 0 2.754 2.754 0 015.509 0z" stroke="#504EF3" stroke-width="1.8" stroke-miterlimit="10" stroke-linecap="round" stroke-linejoin="round"/><path d="M9.765 22.667v-.002a4.235 4.235 0 118.47 0v.002m-1.47-6.986a2.754 2.754 0 11-5.509 0 2.754 2.754 0 015.509 0z" stroke="url(#paint0_linear_11_1107)" stroke-width="1.8" stroke-miterlimit="10" stroke-linecap="round" stroke-linejoin="round"/><defs><linearGradient id="paint0_linear_11_1107" x1="14" y1="12.927" x2="14" y2="22.667" gradientUnits="userSpaceOnUse"><stop stop-color="#AF1CFB"/><stop offset="1" stop-color="#FC50B7"/></linearGradient></defs></svg>