<svg width="22" height="28" fill="none" xmlns="http://www.w3.org/2000/svg"><path d="M10.87 22.403a5.792 5.792 0 100-11.584m0 11.584a5.792 5.792 0 110-11.584m0 11.584c1.18 0 2.136-2.593 2.136-5.792s-.956-5.792-2.135-5.792m0 11.584c-1.18 0-2.136-2.593-2.136-5.792s.956-5.792 2.136-5.792m-5.63 5.792H16.5M5.976 4.196h-1.67A3.305 3.305 0 001 7.501v16.194A3.305 3.305 0 004.305 27h13.131a3.305 3.305 0 003.305-3.29m0-5.508v-10.7a3.305 3.305 0 00-3.305-3.306h-1.602m-2.643-1.584a2.476 2.476 0 00-4.64 0h-.58a1.995 1.995 0 100 3.99h5.8a1.995 1.995 0 100-3.99h-.58z" stroke="#504EF3" stroke-width="1.8" stroke-miterlimit="10" stroke-linecap="round" stroke-linejoin="round"/><path d="M10.871 22.403a5.792 5.792 0 100-11.584m0 11.584a5.792 5.792 0 110-11.584m0 11.584c1.18 0 2.136-2.593 2.136-5.792s-.957-5.792-2.136-5.792m0 11.584c-1.18 0-2.135-2.593-2.135-5.792s.956-5.792 2.135-5.792m-5.63 5.792h11.26" stroke="#504EF3" stroke-width="1.8" stroke-miterlimit="10" stroke-linecap="round" stroke-linejoin="round"/><path d="M10.871 22.403a5.792 5.792 0 100-11.584m0 11.584a5.792 5.792 0 110-11.584m0 11.584c1.18 0 2.136-2.593 2.136-5.792s-.957-5.792-2.136-5.792m0 11.584c-1.18 0-2.135-2.593-2.135-5.792s.956-5.792 2.135-5.792m-5.63 5.792h11.26" stroke="url(#paint0_linear_11_1102)" stroke-width="1.8" stroke-miterlimit="10" stroke-linecap="round" stroke-linejoin="round"/><defs><linearGradient id="paint0_linear_11_1102" x1="10.871" y1="10.819" x2="10.871" y2="22.403" gradientUnits="userSpaceOnUse"><stop stop-color="#AF1CFB"/><stop offset="1" stop-color="#FC50B7"/></linearGradient></defs></svg>