<svg width="26" height="26" fill="none" xmlns="http://www.w3.org/2000/svg"><g clip-path="url(#clip0_144_1337)"><path d="M6.414 13.115l12.655 6.7m6.17 4.428V3.71L17.35 1.757 8.943 3.645.762 1.757v20.544l8.159 1.875 8.43-1.886 7.887 1.953zM6.601 6.035a2.793 2.793 0 012.793 2.793c0 1.543-1.803 4.317-2.793 4.317-.99 0-2.793-2.774-2.793-4.317a2.793 2.793 0 012.793-2.793zm12.796 6.754a2.793 2.793 0 012.793 2.793c0 1.543-1.802 4.316-2.793 4.316-.99 0-2.793-2.773-2.793-4.316a2.793 2.793 0 012.793-2.793z" stroke="#504EF3" stroke-width="1.8" stroke-miterlimit="22.926" stroke-linecap="round" stroke-linejoin="round"/><path d="M6.414 13.115l12.655 6.7M6.602 6.034a2.793 2.793 0 012.793 2.793c0 1.543-1.803 4.317-2.793 4.317-.99 0-2.793-2.774-2.793-4.317a2.793 2.793 0 012.793-2.793zm12.796 6.754a2.793 2.793 0 012.793 2.793c0 1.543-1.802 4.316-2.793 4.316-.99 0-2.793-2.773-2.793-4.316a2.793 2.793 0 012.793-2.793z" stroke="#504EF3" stroke-width="1.8" stroke-miterlimit="22.926" stroke-linecap="round" stroke-linejoin="round"/><path d="M6.414 13.115l12.655 6.7M6.602 6.034a2.793 2.793 0 012.793 2.793c0 1.543-1.803 4.317-2.793 4.317-.99 0-2.793-2.774-2.793-4.317a2.793 2.793 0 012.793-2.793zm12.796 6.754a2.793 2.793 0 012.793 2.793c0 1.543-1.802 4.316-2.793 4.316-.99 0-2.793-2.773-2.793-4.316a2.793 2.793 0 012.793-2.793z" stroke="url(#paint0_linear_144_1337)" stroke-width="1.8" stroke-miterlimit="22.926" stroke-linecap="round" stroke-linejoin="round"/><path fill-rule="evenodd" clip-rule="evenodd" d="M6.602 9.59c.42 0 .761-.342.761-.762a.763.763 0 00-.761-.762.763.763 0 00-.762.762c0 .42.342.762.762.762zm12.796 6.754c.42 0 .762-.343.762-.762a.763.763 0 00-.762-.762.763.763 0 00-.761.762c0 .42.342.762.761.762z" fill="#504EF3"/></g><defs><linearGradient id="paint0_linear_144_1337" x1="13" y1="6.035" x2="13" y2="19.898" gradientUnits="userSpaceOnUse"><stop stop-color="#AF1CFB"/><stop offset="1" stop-color="#FC50B7"/></linearGradient><clipPath id="clip0_144_1337"><path fill="#fff" d="M0 0h26v26H0z"/></clipPath></defs></svg>