<svg width="28" height="28" fill="none" xmlns="http://www.w3.org/2000/svg"><path d="M18.423 20.527h-.647a3.237 3.237 0 000 6.473h.431m-.539-3.236h9.278M12.382 2.62a6.107 6.107 0 00-2.416.878 6.107 6.107 0 01-6.823-.22l-.828-.599m23.37 0l-.828.598a6.106 6.106 0 01-6.823.221 6.107 6.107 0 00-2.416-.878m-12.46 8.574h4.854m12.01 0h4.855m-20.64 9.332a3.236 3.236 0 100 6.473H27v-6.473H4.237zm15.05 0H8.713l1.955-3.236h6.664l1.955 3.236zM5.567 3.913l2.789 7.893a2.788 2.788 0 01-5.576 0l2.788-7.893zm16.865 0l2.788 7.893a2.788 2.788 0 11-5.576 0l2.788-7.893zM14 1c-.894 0-1.618.724-1.618 1.618v14.673h3.236V2.618C15.618 1.724 14.894 1 14 1z" stroke="#504EF3" stroke-width="1.8" stroke-miterlimit="10"/><path d="M18.423 20.527h-.647a3.237 3.237 0 000 6.473h.431m-.539-3.237h9.278m-7.66-3.236H8.714m-4.476 0a3.236 3.236 0 100 6.473H27v-6.473H4.237z" stroke="#504EF3" stroke-width="1.8" stroke-miterlimit="10"/><path d="M18.423 20.527h-.647a3.237 3.237 0 000 6.473h.431m-.539-3.237h9.278m-7.66-3.236H8.714m-4.476 0a3.236 3.236 0 100 6.473H27v-6.473H4.237z" stroke="url(#paint0_linear_11_1100)" stroke-width="1.8" stroke-miterlimit="10"/><defs><linearGradient id="paint0_linear_11_1100" x1="14" y1="20.527" x2="14" y2="27" gradientUnits="userSpaceOnUse"><stop stop-color="#AF1CFB"/><stop offset="1" stop-color="#FC50B7"/></linearGradient></defs></svg>