<svg width="30" height="28" fill="none" xmlns="http://www.w3.org/2000/svg"><path d="M27.653 22.158H2.08V4.49C2.08 2.562 3.66 1 5.606 1h18.522c1.947 0 3.525 1.562 3.525 3.49v11.84m-17.39.917c2.543-2.516 6.664-2.516 9.207 0M25.208 27H4.525C2.578 27 1 25.437 1 23.51v-1.352h27.733v1.352c0 1.927-1.578 3.49-3.525 3.49zm-6.135-15.804c0 2.3-1.883 4.164-4.206 4.164-2.323 0-4.207-1.864-4.207-4.164s1.884-4.164 4.207-4.164 4.206 1.864 4.206 4.164z" stroke="#504EF3" stroke-width="1.8" stroke-miterlimit="10" stroke-linecap="round" stroke-linejoin="round"/><path d="M10.264 17.247c2.542-2.516 6.663-2.516 9.206 0m-.397-6.051c0 2.3-1.883 4.164-4.206 4.164-2.323 0-4.207-1.864-4.207-4.164s1.884-4.164 4.207-4.164 4.206 1.864 4.206 4.164z" stroke="#504EF3" stroke-width="1.8" stroke-miterlimit="10" stroke-linecap="round" stroke-linejoin="round"/><path d="M10.264 17.247c2.542-2.516 6.663-2.516 9.206 0m-.397-6.051c0 2.3-1.883 4.164-4.206 4.164-2.323 0-4.207-1.864-4.207-4.164s1.884-4.164 4.207-4.164 4.206 1.864 4.206 4.164z" stroke="url(#paint0_linear_11_1101)" stroke-width="1.8" stroke-miterlimit="10" stroke-linecap="round" stroke-linejoin="round"/><defs><linearGradient id="paint0_linear_11_1101" x1="14.867" y1="7.032" x2="14.867" y2="17.247" gradientUnits="userSpaceOnUse"><stop stop-color="#AF1CFB"/><stop offset="1" stop-color="#FC50B7"/></linearGradient></defs></svg>