<svg width="27" height="28" fill="none" xmlns="http://www.w3.org/2000/svg"><path d="M1 27h25.055m-9.9 0H2.55V4.314A3.314 3.314 0 015.863 1h6.979a3.314 3.314 0 013.313 3.314V27zm0 0V7.598h5.037a3.314 3.314 0 013.314 3.314v10.58M16.156 27h5.366M11.587 6.106h-4.47m9.094 6.755h2.798m-2.798 4.858h2.798m-2.798 4.859h2.798M11.587 27h-4.47v-5.212c0-1.234 1-2.235 2.235-2.235h0c1.234 0 2.235 1 2.235 2.235V27h0zm-4.47-16.574h4.47v4.486h-4.47v-4.486z" stroke="#504EF3" stroke-width="1.8" stroke-miterlimit="10" stroke-linecap="round" stroke-linejoin="round"/><path d="M11.586 6.106H7.117M11.587 27h-4.47v-5.212a2.234 2.234 0 114.47 0V27zm-4.47-16.574h4.47v4.486h-4.47v-4.486z" stroke="#504EF3" stroke-width="1.8" stroke-miterlimit="10" stroke-linecap="round" stroke-linejoin="round"/><path d="M11.586 6.106H7.117M11.587 27h-4.47v-5.212a2.234 2.234 0 114.47 0V27zm-4.47-16.574h4.47v4.486h-4.47v-4.486z" stroke="url(#paint0_linear_11_1104)" stroke-width="1.8" stroke-miterlimit="10" stroke-linecap="round" stroke-linejoin="round"/><defs><linearGradient id="paint0_linear_11_1104" x1="9.352" y1="6.106" x2="9.352" y2="27" gradientUnits="userSpaceOnUse"><stop stop-color="#AF1CFB"/><stop offset="1" stop-color="#FC50B7"/></linearGradient></defs></svg>