<svg width="29" height="28" fill="none" xmlns="http://www.w3.org/2000/svg"><path d="M12.51 18.907l1.698-1.698 1.698 1.698m-1.698-1.508v4.823m6.673 1.43A3.358 3.358 0 0117.523 27h-6.63a3.358 3.358 0 01-3.358-3.358v-8.138a3.358 3.358 0 013.358-3.358h6.63a3.358 3.358 0 013.358 3.358v2.55h1.142v-.002a5.499 5.499 0 005.393-5.5A5.5 5.5 0 0021.92 7.05a5.05 5.05 0 00-.174.004C20.812 3.568 17.635 1 13.857 1 9.57 1 6.054 4.308 5.72 8.513A4.769 4.769 0 001 13.283a4.77 4.77 0 004.767 4.772h1.724" stroke="#504EF3" stroke-width="1.8" stroke-miterlimit="10" stroke-linecap="round" stroke-linejoin="round"/><path d="M12.51 18.907l1.698-1.698 1.698 1.698m-1.698-1.508v4.823" stroke="#504EF3" stroke-width="1.8" stroke-miterlimit="10" stroke-linecap="round" stroke-linejoin="round"/><path d="M12.51 18.907l1.698-1.698 1.698 1.698m-1.698-1.508v4.823" stroke="url(#paint0_linear_11_1103)" stroke-width="1.8" stroke-miterlimit="10" stroke-linecap="round" stroke-linejoin="round"/><defs><linearGradient id="paint0_linear_11_1103" x1="14.208" y1="17.209" x2="14.208" y2="22.222" gradientUnits="userSpaceOnUse"><stop stop-color="#AF1CFB"/><stop offset="1" stop-color="#FC50B7"/></linearGradient></defs></svg>