<svg width="28" height="28" fill="none" xmlns="http://www.w3.org/2000/svg"><path d="M27 14c0 7.18-5.82 13-13 13S1 21.18 1 14 6.82 1 14 1s13 5.82 13 13z" stroke="#504EF3" stroke-width="1.8" stroke-miterlimit="10"/><path d="M22.091 11.232h-5.323V5.91h-5.536v5.323H5.91v5.536h5.323v5.323h5.536v-5.323h5.323v-5.536z" stroke="#504EF3" stroke-width="1.8" stroke-miterlimit="10"/><path d="M22.092 11.232h-5.324V5.91h-5.535v5.323H5.909v5.536h5.324v5.323h5.535v-5.323h5.324v-5.536z" stroke="#504EF3" stroke-width="1.8" stroke-miterlimit="10"/><path d="M22.092 11.232h-5.324V5.91h-5.535v5.323H5.909v5.536h5.324v5.323h5.535v-5.323h5.324v-5.536z" stroke="url(#paint0_linear_11_1105)" stroke-width="1.8" stroke-miterlimit="10"/><defs><linearGradient id="paint0_linear_11_1105" x1="14.001" y1="5.909" x2="14.001" y2="22.091" gradientUnits="userSpaceOnUse"><stop stop-color="#AF1CFB"/><stop offset="1" stop-color="#FC50B7"/></linearGradient></defs></svg>