<svg width="14" height="7" fill="none" xmlns="http://www.w3.org/2000/svg"><path d="M13.875 6.244c-.037-.056-.27-.499-1.39-1.41-1.173-.954-1.015-.799.397-2.448.86-1.005 1.204-1.618 1.097-1.88-.103-.25-.736-.185-.736-.185L11.14.332s-.156-.018-.272.042c-.113.06-.186.198-.186.198s-.333.778-.778 1.439c-.937 1.395-1.312 1.468-1.466 1.381-.356-.201-.266-.81-.266-1.243 0-1.352.233-1.916-.456-2.062-.23-.048-.398-.08-.983-.085-.75-.007-1.387.002-1.747.156-.24.103-.424.332-.311.345.139.016.454.074.621.274.216.257.208.835.208.835s.125 1.591-.29 1.789c-.284.136-.673-.141-1.509-1.407A11.212 11.212 0 012.954.629S2.89.495 2.78.424A.933.933 0 002.457.31l-2 .01S.155.329.045.444C-.052.545.038.755.038.755s1.566 3.21 3.34 4.83C5.003 7.067 6.85 6.97 6.85 6.97h.837s.253-.025.381-.147c.12-.112.115-.322.115-.322s-.017-.984.505-1.129c.513-.142 1.173.951 1.872 1.372.529.318.93.249.93.249l1.87-.023s.979-.053.515-.727z" fill="#5857F0"/></svg>