<svg width="15" height="15" fill="none" xmlns="http://www.w3.org/2000/svg"><path fill-rule="evenodd" clip-rule="evenodd" d="M11.246 3.196a4.996 4.996 0 00-8.211 3.26 5.002 5.002 0 00.882 3.424l.324.459-.581 1.338 1.852-.33.293.144a4.996 4.996 0 006.376-1.748 5.003 5.003 0 00-.935-6.547zM7.887 0a6.996 6.996 0 017.043 6.01 7.002 7.002 0 01-5.078 7.741 6.996 6.996 0 01-4.62-.323l-4.89.872 1.629-3.753A7.002 7.002 0 017.887 0zM5.39 4.046a1.333 1.333 0 012.276.943v.666c0 .344-.133.674-.37.922.132.372.277.62.387.728.108.109.355.254.727.386.248-.236.578-.369.921-.369h.667a1.333 1.333 0 010 2.667 5.395 5.395 0 01-.54-.029 5.423 5.423 0 01-.356-.038 2.01 2.01 0 01-.213-.043 7.717 7.717 0 01-.78-.184c-.615-.18-1.348-.482-1.84-.976-.493-.492-.795-1.22-.975-1.834a7.662 7.662 0 01-.185-.79l-.002-.004a1.985 1.985 0 01-.04-.205 5.307 5.307 0 01-.04-.387A5.55 5.55 0 015 5.08l-.002-.016V4.99c0-.354.14-.693.39-.943zm.942.943A.667.667 0 006.21 5h.244a.667.667 0 00-.121-.011H6.33zm3.666 3.643z" fill="#5857F0"/></svg>