<svg width="15" height="15" fill="none" xmlns="http://www.w3.org/2000/svg"><path d="M12.809 2.18A7.399 7.399 0 007.529 0C3.415 0 .063 3.336.06 7.43c0 1.312.345 2.588.996 3.718L0 15l3.96-1.033a7.498 7.498 0 003.568.905h.004c4.114 0 7.464-3.336 7.468-7.435a7.399 7.399 0 00-2.191-5.257zm-5.28 11.433a6.211 6.211 0 01-3.161-.862l-.226-.135-2.349.613.627-2.28-.147-.236a6.13 6.13 0 01-.948-3.286c0-3.4 2.785-6.173 6.207-6.173a6.201 6.201 0 015.735 3.814c.312.75.471 1.554.47 2.365-.005 3.412-2.79 6.18-6.209 6.18zm3.404-4.625c-.186-.093-1.102-.542-1.275-.606-.17-.06-.296-.093-.419.093-.125.185-.483.606-.59.727-.107.124-.219.138-.405.046-.186-.093-.787-.288-1.5-.923-.555-.492-.927-1.102-1.038-1.286-.107-.186-.01-.285.083-.378.082-.083.185-.218.279-.324.094-.107.125-.186.186-.31.061-.125.032-.232-.014-.325-.047-.093-.42-1.009-.576-1.378-.151-.365-.305-.314-.42-.319-.107-.007-.232-.007-.357-.007a.688.688 0 00-.498.232c-.172.186-.651.635-.651 1.55 0 .917.668 1.797.763 1.922.092.124 1.312 1.998 3.185 2.805.443.192.792.305 1.064.391.447.143.851.121 1.173.075.358-.054 1.103-.45 1.26-.884.155-.435.155-.806.107-.884-.046-.078-.17-.124-.357-.217z" fill="#2AB63F"/></svg>