<svg width="17" height="17" fill="none" xmlns="http://www.w3.org/2000/svg"><path d="M8.5 16C4.365 16 1 12.636 1 8.5M8.5 16c4.136 0 7.5-3.364 7.5-7.5M8.5 16c1.822 0 3.859-3.364 3.859-7.5 0-4.135-2.037-7.5-3.859-7.5m0 15c-1.822 0-3.859-3.364-3.859-7.5C4.641 4.365 6.678 1 8.5 1m0 15V1M1 8.5C1 4.365 4.365 1 8.5 1M1 8.5h15M8.5 1C12.636 1 16 4.365 16 8.5M2.986 3.422c1.371.879 3.336 1.499 5.514 1.499 2.178 0 4.143-.62 5.514-1.499m0 10.156c-1.371-.879-3.336-1.499-5.514-1.499-2.178 0-4.143.62-5.515 1.499" stroke="#919198" stroke-width="1.2" stroke-miterlimit="10"/></svg>